<svg width="28" height="28" viewBox="0 0 28 28" fill="none" xmlns="http://www.w3.org/2000/svg">
<g filter="url(#filter0_i_716_292)">
<path d="M9.51992 3.4519C6.10138 3.4519 3.31982 6.2351 3.31982 9.65449V18.5132C3.31982 21.9322 6.10302 24.7141 9.52241 24.7141H18.3811C21.8001 24.7141 24.582 21.9309 24.582 18.5115V9.652C24.582 6.23346 21.7988 3.4519 18.3795 3.4519H9.51992ZM20.3296 6.85386C20.7991 6.85386 21.1801 7.23488 21.1801 7.70435C21.1801 8.17382 20.7991 8.55484 20.3296 8.55484C19.8601 8.55484 19.4791 8.17382 19.4791 7.70435C19.4791 7.23488 19.8601 6.85386 20.3296 6.85386ZM13.9509 8.55484C16.9999 8.55484 19.4791 11.034 19.4791 14.083C19.4791 17.132 16.9995 19.6112 13.9509 19.6112C10.9019 19.6112 8.42276 17.1316 8.42276 14.083C8.42276 11.0344 10.9019 8.55484 13.9509 8.55484ZM13.9509 10.2558C11.837 10.2558 10.1237 11.9691 10.1237 14.083C10.1237 16.1969 11.837 17.9102 13.9509 17.9102C16.0648 17.9102 17.7781 16.1969 17.7781 14.083C17.7781 11.9691 16.0648 10.2558 13.9509 10.2558Z" fill="url(#paint0_linear_716_292)"/>
</g>
<defs>
<filter id="filter0_i_716_292" x="0.343262" y="0.475098" width="27.2158" height="31.2156" filterUnits="userSpaceOnUse" color-interpolation-filters="sRGB">
<feFlood flood-opacity="0" result="BackgroundImageFix"/>
<feBlend mode="normal" in="SourceGraphic" in2="BackgroundImageFix" result="shape"/>
<feColorMatrix in="SourceAlpha" type="matrix" values="0 0 0 0 0 0 0 0 0 0 0 0 0 0 0 0 0 0 127 0" result="hardAlpha"/>
<feOffset dy="4"/>
<feGaussianBlur stdDeviation="7.5"/>
<feComposite in2="hardAlpha" operator="arithmetic" k2="-1" k3="1"/>
<feColorMatrix type="matrix" values="0 0 0 0 0 0 0 0 0 0 0 0 0 0 0 0 0 0 0.2 0"/>
<feBlend mode="normal" in2="shape" result="effect1_innerShadow_716_292"/>
</filter>
<linearGradient id="paint0_linear_716_292" x1="13.9509" y1="3.4519" x2="13.9509" y2="24.7141" gradientUnits="userSpaceOnUse">
<stop stop-color="#FC700A"/>
<stop offset="1" stop-color="#8408FF"/>
</linearGradient>
</defs>
</svg>
