<svg width="24" height="26" viewBox="0 0 24 26" fill="none" xmlns="http://www.w3.org/2000/svg">
<path d="M22.4268 6.24875C22.0145 4.7781 21.1991 3.61387 20.0026 2.79035C18.4926 1.7501 16.7559 1.38118 15.256 1.15741C13.1805 0.847956 11.3007 0.804612 9.51047 1.02335C7.83116 1.22897 6.56714 1.55758 5.413 2.08778C3.15208 3.12601 1.79533 4.80733 1.38105 7.08336C1.17945 8.18812 1.04438 9.18703 0.965761 10.1396C0.784324 12.342 0.948626 14.2915 1.46875 16.0978C1.97476 17.8587 2.85977 19.1177 4.17418 19.9443C4.50984 20.1549 4.93723 20.3071 5.35252 20.4543C5.56017 20.5279 5.75975 20.6005 5.93413 20.6771V24.2353C5.93413 24.701 6.31112 25.0779 6.77681 25.0779C6.99655 25.0779 7.20722 24.9923 7.36446 24.8391L10.6475 21.6457C10.7906 21.4825 10.7906 21.4825 10.9378 21.4794C12.0597 21.4573 13.2057 21.4139 14.3448 21.3524C15.7247 21.2768 17.3234 21.1438 18.8293 20.5158C20.2072 19.9402 21.2132 19.027 21.817 17.8023C22.447 16.5242 22.8219 15.1392 22.9621 13.5698C23.208 10.8099 23.0326 8.41491 22.4268 6.24875ZM16.7105 16.752C16.3809 17.2912 15.887 17.6642 15.3064 17.9061C14.882 18.0835 14.4486 18.0462 14.0303 17.8688C10.5185 16.383 7.76564 14.0405 5.94522 10.6748C5.57025 9.98133 5.30918 9.22634 5.00981 8.49354C4.94832 8.34234 4.95336 8.16594 4.92614 8.00164C4.95235 6.81725 5.86055 6.15098 6.77781 5.94938C7.12859 5.87176 7.43905 5.99575 7.69911 6.24472C8.41882 6.93217 8.98833 7.72847 9.41672 8.62155C9.60421 9.01366 9.51954 9.36041 9.20001 9.65171C9.13449 9.71219 9.06494 9.76864 8.99337 9.82206C8.26459 10.3704 8.15775 10.7847 8.54582 11.6102C9.20706 13.0144 10.3048 13.9568 11.725 14.5415C12.099 14.6957 12.4518 14.6191 12.738 14.3157C12.7763 14.2753 12.8197 14.236 12.8479 14.1897C13.4084 13.2553 14.2198 13.348 14.9697 13.8812C15.4626 14.231 15.9404 14.5999 16.4283 14.9567C17.1681 15.5021 17.1621 16.0141 16.7105 16.752ZM12.4971 7.07832C12.3086 7.07832 12.1191 7.09344 11.9337 7.12469C11.6192 7.17811 11.3228 6.96543 11.2704 6.65094C11.218 6.33745 11.4297 6.0401 11.7442 5.98768C11.9911 5.94736 12.2451 5.92619 12.4971 5.92619C14.9919 5.92619 17.022 7.95628 17.022 10.451C17.022 10.7041 17.0008 10.9581 16.9595 11.205C16.9121 11.4863 16.6682 11.6858 16.392 11.6858C16.3607 11.6858 16.3285 11.6838 16.2962 11.6778C15.9828 11.6243 15.7711 11.328 15.8235 11.0145C15.8547 10.8311 15.8699 10.6416 15.8699 10.4521C15.8699 8.59131 14.3569 7.07832 12.4971 7.07832ZM15.006 10.822C15.006 11.1395 14.748 11.3975 14.4305 11.3975C14.1129 11.3975 13.8549 11.1395 13.8549 10.822C13.8549 9.86944 13.0797 9.0943 12.1272 9.0943C11.8097 9.0943 11.5516 8.83625 11.5516 8.51874C11.5516 8.20122 11.8097 7.94318 12.1272 7.94318C13.7138 7.94217 15.006 9.23441 15.006 10.822ZM18.8827 11.5246C18.8223 11.7927 18.5854 11.9731 18.3213 11.9731C18.2789 11.9731 18.2356 11.9681 18.1933 11.959C17.8828 11.8884 17.6883 11.58 17.7588 11.2705C17.8425 10.9026 17.8848 10.5226 17.8848 10.1416C17.8848 7.34141 15.6068 5.06235 12.8056 5.06235C12.4235 5.06235 12.0445 5.10469 11.6766 5.18835C11.3682 5.25992 11.0577 5.06437 10.9882 4.75391C10.9176 4.44345 11.1122 4.135 11.4226 4.06545C11.8742 3.96163 12.3399 3.91022 12.8076 3.91022C16.2428 3.91022 19.038 6.70537 19.038 10.1406C19.038 10.6083 18.9855 11.074 18.8827 11.5246Z" fill="#9D29A7"/>
</svg>
