<svg width="22" height="22" viewBox="0 0 22 22" fill="none" xmlns="http://www.w3.org/2000/svg">
<path d="M11.083 0.196777C5.0711 0.196777 0.196777 5.0711 0.196777 11.083C0.196777 13.1253 0.77043 15.0294 1.74892 16.6626L0.294229 21.9693L5.71432 20.5465C7.29947 21.4477 9.1294 21.9693 11.083 21.9693C17.095 21.9693 21.9693 17.095 21.9693 11.083C21.9693 5.0711 17.095 0.196777 11.083 0.196777ZM7.35683 6.00491C7.53373 6.00491 7.7155 6.00383 7.87244 6.012C8.06658 6.01653 8.27788 6.03075 8.48019 6.47799C8.72059 7.0096 9.24405 8.34324 9.31118 8.47841C9.37832 8.61358 9.42589 8.77282 9.33244 8.94973C9.24354 9.13116 9.1973 9.24098 9.06667 9.40155C8.9315 9.55758 8.78338 9.75138 8.66091 9.86932C8.52574 10.0045 8.38616 10.1527 8.5422 10.4221C8.69824 10.6916 9.24014 11.5748 10.0412 12.2879C11.0708 13.2078 11.9396 13.4905 12.2099 13.6256C12.4803 13.7608 12.6368 13.7398 12.7929 13.5583C12.9534 13.3814 13.4672 12.7744 13.6487 12.5041C13.8256 12.2337 14.0062 12.2805 14.2511 12.3694C14.4997 12.4583 15.8253 13.1113 16.0956 13.2465C16.3659 13.3816 16.5432 13.4485 16.6112 13.5583C16.6811 13.6717 16.6811 14.2115 16.4571 14.8411C16.233 15.4698 15.1327 16.0778 14.6391 16.1204C14.1411 16.1667 13.6763 16.3443 11.402 15.4489C8.65863 14.3684 6.92855 11.5586 6.79338 11.3772C6.65821 11.2003 5.69483 9.91631 5.69483 8.59181C5.69483 7.26278 6.39165 6.6119 6.63569 6.34156C6.88426 6.07122 7.17539 6.00491 7.35683 6.00491Z" fill="#11F97C"/>
</svg>
