<svg width="50" height="51" viewBox="0 0 50 51" fill="none" xmlns="http://www.w3.org/2000/svg">
<path d="M49.6282 25.2228L43.0809 21.0568L46.6668 14.1721C46.7194 14.0707 46.7518 13.9569 46.757 13.8356C46.7757 13.3919 46.432 13.0169 45.9883 12.9983L38.2348 12.6644L37.9023 4.96617C37.9059 4.83375 37.8771 4.70002 37.8124 4.57348C37.6073 4.1785 37.1211 4.02482 36.7262 4.22983L29.8414 7.81836L25.684 1.2825C25.6228 1.18244 25.5378 1.09384 25.4315 1.02615C25.0578 0.787462 24.5615 0.897651 24.3228 1.27138L20.1568 7.81836L13.2721 4.23245C13.1707 4.17981 13.0569 4.14743 12.9356 4.14253C12.4919 4.12357 12.1169 4.46721 12.0982 4.91124L11.7634 12.6644L4.06484 12.997C3.93242 12.9934 3.79869 13.0221 3.67247 13.0869C3.27749 13.2919 3.12349 13.7784 3.3285 14.1734L6.91735 21.0578L0.382474 25.2166C0.28242 25.2777 0.193811 25.3627 0.126127 25.469C-0.112563 25.8427 -0.00237299 26.3391 0.371357 26.5778L6.91833 30.7437L3.33242 37.6285C3.27978 37.7298 3.24741 37.8436 3.24251 37.9649C3.22354 38.4086 3.56719 38.7837 4.01122 38.8023L11.7644 39.1361L12.0969 46.8344C12.0933 46.9668 12.1221 47.1006 12.1872 47.2271C12.3919 47.6221 12.8784 47.7757 13.2734 47.5707L20.1578 43.9822L24.3166 50.5181C24.3777 50.6181 24.4627 50.7067 24.569 50.7744C24.9427 51.0131 25.4391 50.9029 25.6777 50.5292L29.8437 43.9822L36.7284 47.5681C36.8298 47.6208 36.9436 47.6531 37.0649 47.658C37.5086 47.677 37.8836 47.3334 37.9023 46.8893L38.2371 39.1361L45.9357 38.8036C46.0681 38.8072 46.2018 38.7784 46.328 38.7137C46.723 38.5087 46.877 38.0221 46.672 37.6272L43.0832 30.7428L49.6194 26.584C49.7194 26.5228 49.808 26.4378 49.8757 26.3316C50.1118 25.9578 50.0019 25.4615 49.6282 25.2228ZM41.5945 29.785C41.241 30.01 41.1233 30.4674 41.3133 30.8327L41.311 30.834L44.6546 37.2498L37.4285 37.5611C37.0087 37.5784 36.6774 37.9172 36.6598 38.3298L36.3485 45.5556L29.9326 42.212C29.539 42.0073 29.0528 42.1597 28.8477 42.5533L25.0003 48.602L21.1155 42.4958C20.8905 42.142 20.4328 42.0246 20.0679 42.2146L20.0666 42.212L13.6507 45.5556L13.3394 38.3298C13.3221 37.9097 12.9834 37.5784 12.5707 37.5611L5.34494 37.2498L8.68824 30.834C8.89325 30.44 8.74088 29.9551 8.34721 29.7488L2.29984 25.9003L8.40606 22.0155C8.75952 21.7906 8.87723 21.3328 8.68726 20.9679L8.68955 20.9666L5.34494 14.5507L12.5707 14.2395C12.9909 14.2221 13.3221 13.8834 13.3394 13.4707L13.6507 6.24464L20.0666 9.58826C20.4606 9.79327 20.9468 9.6409 21.1518 9.24723L25.0003 3.19987L28.885 9.30608C29.11 9.65954 29.5677 9.77725 29.9326 9.58728L29.934 9.58957L36.3498 6.24595L36.6611 13.472C36.6784 13.8919 37.0172 14.2231 37.4298 14.2408L44.6556 14.552L41.312 20.9679C41.1073 21.3616 41.2596 21.8468 41.6533 22.0528L47.7007 25.9003L41.5945 29.785ZM33.2776 18.7644L17.8631 34.1763C17.5479 34.4912 17.0381 34.4912 16.7229 34.1763C16.4081 33.8611 16.4081 33.3513 16.7229 33.0361L32.1374 17.6243C32.4526 17.3094 32.9624 17.3094 33.2776 17.6243C33.5911 17.9382 33.5911 18.4492 33.2776 18.7644ZM22.0467 21.9629C22.7592 21.2504 23.2003 20.2669 23.2003 19.1807C23.2003 18.0945 22.7592 17.1093 22.0467 16.3981C21.3342 15.6857 20.3504 15.2455 19.2629 15.2455C18.1767 15.2455 17.1918 15.687 16.4793 16.3981C15.7669 17.1106 15.3258 18.0945 15.3258 19.1807C15.3258 20.2669 15.7669 21.2517 16.4793 21.9629C17.1918 22.6754 18.1757 23.1155 19.2629 23.1155C20.3491 23.1168 21.3342 22.6754 22.0467 21.9629ZM16.9394 19.1807C16.9394 18.5395 17.1993 17.9581 17.6192 17.538C18.0393 17.1181 18.6204 16.8582 19.2629 16.8582C19.9041 16.8582 20.4867 17.1181 20.9066 17.538C21.3267 17.9581 21.5867 18.5395 21.5867 19.1807C21.5867 19.8219 21.3267 20.4029 20.9066 20.823C20.4867 21.2429 19.9054 21.5028 19.2629 21.5028C18.6217 21.5028 18.0393 21.2429 17.6192 20.823C17.1993 20.4029 16.9394 19.8219 16.9394 19.1807ZM30.7376 28.6838C29.6514 28.6838 28.6663 29.1252 27.9538 29.8364C27.2413 30.5489 26.8002 31.5327 26.8002 32.6189C26.8002 33.7051 27.2413 34.69 27.9538 35.4011C28.6663 36.1136 29.6501 36.5537 30.7376 36.5537C31.8239 36.5537 32.8087 36.1123 33.5212 35.4011C34.2336 34.6887 34.6747 33.7051 34.6747 32.6189C34.6747 31.5327 34.2336 30.5475 33.5212 29.8364C32.8087 29.1252 31.8239 28.6838 30.7376 28.6838ZM32.3813 34.2636C31.9612 34.6838 31.3802 34.9437 30.7376 34.9437C30.0965 34.9437 29.5138 34.6838 29.094 34.2636C28.6738 33.8438 28.4139 33.2624 28.4139 32.6212C28.4139 31.98 28.6738 31.3987 29.094 30.9788C29.5138 30.559 30.0951 30.2987 30.7376 30.2987C31.3788 30.2987 31.9612 30.559 32.3813 30.9788C32.8012 31.3987 33.0611 31.98 33.0611 32.6212C33.0611 33.2611 32.8012 33.8425 32.3813 34.2636Z" fill="black"/>
</svg>
