<svg width="50" height="41" viewBox="0 0 50 41" fill="none" xmlns="http://www.w3.org/2000/svg">
<mask id="mask0_94_676" style="mask-type:luminance" maskUnits="userSpaceOnUse" x="0" y="0" width="50" height="41">
<path d="M0 0H50V40.75H0V0Z" fill="white"/>
</mask>
<g mask="url(#mask0_94_676)">
<path d="M49.9896 10.7516C49.9889 9.89679 49.6527 9.14256 49.0169 8.57127L41.417 1.73956C40.4717 0.890279 39.2799 0.0217896 37.6042 0.0217896C37.6035 0.0217896 37.6029 0.0217896 37.6022 0.0217896C35.9255 0.0224406 34.7334 0.891907 33.7887 1.74249L26.1937 8.57941C25.5579 9.15102 25.2223 9.90558 25.2227 10.7604L25.2262 19.5348H20.1823C21.0951 17.639 21.7308 14.6442 21.0169 12.4017C20.5143 10.8235 19.4076 9.78318 17.8164 9.39288C17.6133 9.34308 17.3988 9.37693 17.2207 9.48663C17.0426 9.59601 16.916 9.77277 16.8691 9.97622C16.7826 10.3525 16.7021 10.7054 16.627 11.0368C15.6885 15.1693 15.568 15.7002 12.9759 17.3942C11.1449 18.5911 11.015 18.7454 9.8763 20.4069C9.76009 20.5765 9.63151 20.7637 9.48796 20.9713C9.02669 21.6383 8.43685 21.9391 7.57943 21.9466L7.51335 21.9469V21.7597C7.51335 20.7868 6.72201 19.9951 5.7487 19.9951H1.76465C0.791667 19.9951 0 20.7868 0 21.7597V38.973C0 39.9463 0.791667 40.7376 1.76465 40.7376H5.7487C6.72201 40.7376 7.51367 39.9463 7.51367 38.973V38.1722C7.86556 38.2952 8.21777 38.4261 8.5804 38.5615C10.3551 39.2243 12.3669 39.9759 15.3535 39.9759H25.7243C26.1663 39.9759 26.5872 39.8834 26.9691 39.7181C27.3441 39.8867 27.7503 39.9759 28.1667 39.9759C28.167 39.9759 28.1673 39.9759 28.1673 39.9759L47.0677 39.9691C48.6852 39.9684 50.0007 38.6523 50 37.0348L49.9896 10.7516ZM5.95117 38.973C5.95117 39.0827 5.8584 39.1751 5.7487 39.1751H1.76465C1.65495 39.1751 1.5625 39.0827 1.5625 38.973V21.7597C1.5625 21.6504 1.65495 21.5576 1.76465 21.5576H5.7487C5.8584 21.5576 5.95117 21.6504 5.95117 21.7597V38.973ZM15.3535 38.4134C12.6491 38.4134 10.8587 37.7444 9.12695 37.0976C8.60417 36.9026 8.06836 36.7025 7.51367 36.5237V23.5094L7.58887 23.5091C8.95378 23.4974 10.0251 22.9424 10.7734 21.8597C10.9183 21.6504 11.0479 21.4616 11.165 21.2903C12.2152 19.7581 12.2152 19.7581 13.8311 18.7021C16.9518 16.6624 17.182 15.6487 18.1507 11.3828C18.165 11.3196 18.1797 11.2552 18.1943 11.1904C18.8382 11.5322 19.2777 12.0892 19.528 12.876C20.2653 15.1907 19.1029 18.7545 18.1934 19.8047C17.9932 20.0358 17.9463 20.3626 18.0732 20.6406C18.2005 20.9189 18.4782 21.0973 18.7839 21.0973H27.7155C28.5859 21.0973 29.2943 21.8053 29.2943 22.6758C29.2943 23.5462 28.5859 24.2545 27.7155 24.2545H21.5579C21.1263 24.2545 20.7767 24.6041 20.7767 25.0358C20.7767 25.4671 21.1263 25.817 21.5579 25.817H29.0062C29.8763 25.817 30.5846 26.525 30.5846 27.3955C30.5846 28.2659 29.8763 28.9739 29.0062 28.9739H21.5579C21.1266 28.9739 20.7767 29.3239 20.7767 29.7552C20.7767 30.1868 21.1266 30.5364 21.5579 30.5364H28.195C29.0654 30.5364 29.7734 31.2448 29.7734 32.1152C29.7734 32.9857 29.0654 33.6937 28.195 33.6937H21.5579C21.1266 33.6937 20.7767 34.0433 20.7767 34.4749C20.7767 34.9062 21.1266 35.2562 21.5579 35.2562H25.7243C26.5947 35.2562 27.3031 35.9642 27.3031 36.8346C27.3031 37.7051 26.5951 38.4134 25.7243 38.4134H15.3535ZM47.0674 38.4066L28.4382 38.4131C28.7093 37.9489 28.8656 37.4098 28.8656 36.8346C28.8656 36.2558 28.708 35.7132 28.4339 35.2471C30.0547 35.1243 31.3359 33.7666 31.3359 32.1152C31.3359 31.3489 31.0599 30.6458 30.6025 30.0999C31.5264 29.5524 32.1471 28.5449 32.1471 27.3955C32.1471 26.109 31.3695 25.001 30.2601 24.5156C30.6351 23.9984 30.8568 23.3626 30.8568 22.6758C30.8568 20.944 29.4476 19.5348 27.7155 19.5348H26.7887L26.7855 10.7601C26.7852 10.3489 26.9336 10.0156 27.2389 9.74054L34.834 2.90363C35.8747 1.9671 36.6771 1.58494 37.6029 1.58429C37.6035 1.58429 37.6038 1.58429 37.6042 1.58429C38.5293 1.58429 39.3317 1.96613 40.3727 2.90167L47.9727 9.73338C48.2783 10.0081 48.4271 10.3415 48.4271 10.7523L48.4375 37.0355C48.4378 37.7913 47.8232 38.4066 47.0674 38.4066ZM42.2962 27.8343C42.4105 28.777 42.1579 29.6377 41.5654 30.3226C40.8685 31.1282 39.7106 31.6683 38.3926 31.82V32.8138C38.3926 33.2451 38.043 33.595 37.6113 33.595C37.18 33.595 36.8301 33.2451 36.8301 32.8138V31.8086C34.8786 31.5403 33.3617 30.3066 32.9225 28.5449C32.818 28.1263 33.0729 27.7025 33.4915 27.598C33.9105 27.4941 34.3343 27.7484 34.4385 28.167C34.8431 29.79 36.4766 30.3314 37.7529 30.2995C38.8486 30.2734 39.8812 29.8815 40.3838 29.3004C40.6885 28.9482 40.807 28.5299 40.7451 28.0224C40.5993 26.8213 39.5973 26.1318 37.4961 25.7868C34.152 25.2376 33.3734 23.5416 33.3089 22.2158C33.2197 20.3782 34.5062 18.8382 36.5098 18.3838C36.6149 18.36 36.722 18.3395 36.8304 18.3222V17.3063C36.8304 16.8747 37.18 16.525 37.6117 16.525C38.043 16.525 38.3929 16.8747 38.3929 17.3063V18.3157C39.8232 18.5276 41.2344 19.3561 41.9391 21.0355C42.1061 21.4329 41.9193 21.8909 41.5215 22.0579C41.1234 22.2252 40.6657 22.0381 40.4987 21.6403C39.821 20.0263 38.1807 19.6071 36.8555 19.9079C35.8542 20.1347 34.8066 20.8405 34.8698 22.14C34.8893 22.5472 34.9495 23.7855 37.7494 24.2451C38.7865 24.4153 41.944 24.9336 42.2962 27.8343ZM37.6048 10.4977C39.139 10.4977 40.387 9.24965 40.387 7.71547C40.387 6.18129 39.139 4.93325 37.6048 4.93325C36.0706 4.93325 34.8226 6.18129 34.8226 7.71547C34.8226 9.24965 36.0706 10.4977 37.6048 10.4977ZM37.6048 6.49575C38.2777 6.49575 38.8245 7.04295 38.8245 7.71547C38.8245 8.388 38.2777 8.9352 37.6048 8.9352C36.9323 8.9352 36.3851 8.388 36.3851 7.71547C36.3851 7.04295 36.9323 6.49575 37.6048 6.49575Z" fill="black"/>
</g>
</svg>
