<svg width="50" height="46" viewBox="0 0 50 46" fill="none" xmlns="http://www.w3.org/2000/svg">
<mask id="mask0_94_699" style="mask-type:luminance" maskUnits="userSpaceOnUse" x="16" y="0" width="17" height="17">
<path d="M16.9739 0.900024H32.9881V16.1115H16.9739V0.900024Z" fill="white"/>
</mask>
<g mask="url(#mask0_94_699)">
<path d="M25.2967 12.2891C25.2054 12.234 25.1028 12.2066 24.9998 12.2066C24.8972 12.2066 24.7943 12.234 24.703 12.2891L21.299 14.3423L22.1992 10.4701C22.2477 10.2622 22.177 10.0452 22.0161 9.90544L19.0114 7.30221L22.9723 6.96207C23.1848 6.94382 23.3695 6.80959 23.4526 6.61312L24.9998 2.95133L26.5475 6.61312C26.6305 6.80959 26.8153 6.94382 27.0277 6.96207L30.9886 7.30221L27.984 9.90544C27.823 10.0452 27.7523 10.2622 27.8005 10.4701L28.7011 14.3423L25.2967 12.2891ZM28.9989 10.5473L32.7691 7.28038C32.9438 7.12888 33.0109 6.88811 32.9395 6.66851C32.8682 6.44859 32.672 6.29317 32.442 6.2733L27.4711 5.84649L25.5296 1.25092C25.4394 1.03849 25.2308 0.900024 24.9998 0.900024C24.7688 0.900024 24.5603 1.03849 24.4707 1.25092L22.5286 5.84649L17.558 6.2733C17.328 6.29317 17.1318 6.44859 17.0605 6.66851C16.9891 6.88811 17.0562 7.12888 17.2306 7.28038L21.0012 10.5473L19.8713 15.4064C19.8188 15.6316 19.9064 15.8658 20.0931 16.0017C20.1935 16.0747 20.3121 16.1115 20.431 16.1115C20.5333 16.1115 20.6363 16.0841 20.7278 16.0291L24.9998 13.4522L29.2722 16.0291C29.3641 16.0841 29.4667 16.1115 29.569 16.1115C29.5693 16.1112 29.57 16.1112 29.5703 16.1115C29.888 16.1115 30.1451 15.8541 30.1451 15.5368C30.1451 15.4775 30.1363 15.4208 30.1196 15.367L28.9989 10.5473Z" fill="#2E2A2B"/>
</g>
<path d="M17.4971 10.4235L16.2541 11.5006C16.1023 11.6319 16.0359 11.8365 16.0815 12.0317L16.7771 15.0233L14.1471 13.4376C13.9751 13.3336 13.7601 13.3336 13.5884 13.4376L10.9584 15.0233L11.654 12.0317C11.6996 11.8365 11.6332 11.6319 11.4813 11.5006L9.16026 9.48939L12.2203 9.22678C12.42 9.20951 12.594 9.0831 12.6722 8.89836L13.8676 6.06935L15.0633 8.89836C15.1793 9.17367 15.4966 9.30237 15.7719 9.18606C16.0473 9.06974 16.1759 8.7524 16.0596 8.47742L14.3661 4.46929C14.2814 4.26891 14.0852 4.13892 13.8676 4.13892C13.6503 4.13892 13.4541 4.26891 13.3694 4.46929L11.8026 8.17669L7.7925 8.52107C7.57584 8.53965 7.39143 8.68594 7.32431 8.89283C7.25687 9.09972 7.32008 9.32648 7.48429 9.46886L10.5264 12.1047L9.61477 16.0252C9.56557 16.2366 9.64767 16.4572 9.82361 16.5849C9.9181 16.654 10.0295 16.6885 10.1416 16.6885C10.238 16.6885 10.3348 16.6628 10.4208 16.6106L13.8676 14.532L17.3143 16.6106C17.5007 16.7227 17.7359 16.7129 17.9119 16.5849C18.0878 16.4572 18.1699 16.2366 18.1207 16.0252L17.2091 12.1047L18.2058 11.2409C18.4315 11.0455 18.456 10.7037 18.2602 10.4782C18.0647 10.2524 17.7232 10.2277 17.4971 10.4235Z" fill="#2E2A2B"/>
<path d="M39.4734 12.1047L42.5158 9.46886C42.68 9.32648 42.7432 9.09972 42.6761 8.89283C42.6087 8.68594 42.4243 8.53965 42.2076 8.52107L38.1975 8.17669L36.6307 4.46929C36.546 4.26891 36.3498 4.13892 36.1322 4.13892C35.9149 4.13892 35.7187 4.26891 35.634 4.46929L33.9408 8.47742C33.8242 8.7524 33.9528 9.06974 34.2282 9.18606C34.5038 9.30237 34.8208 9.17367 34.9371 8.89836L36.1322 6.06935L37.3279 8.89836C37.4061 9.0831 37.5801 9.20951 37.7798 9.22678L40.8398 9.48939L38.5188 11.5006C38.3673 11.6319 38.3008 11.8365 38.3461 12.0317L39.0417 15.0233L36.4117 13.4376C36.24 13.3336 36.025 13.3336 35.853 13.4376L33.223 15.0233L33.919 12.0317C33.9643 11.8365 33.8978 11.6319 33.746 11.5006L32.503 10.4235C32.2769 10.2277 31.9354 10.2524 31.7399 10.4782C31.5441 10.7037 31.5686 11.0455 31.7944 11.2409L32.791 12.1047L31.8794 16.0252C31.8302 16.2366 31.9126 16.4572 32.0886 16.5849C32.2642 16.7129 32.4997 16.723 32.6858 16.6106L36.1322 14.532L39.5793 16.6106C39.6656 16.6628 39.7624 16.6885 39.8585 16.6885C39.9706 16.6885 40.082 16.654 40.1765 16.5849C40.3524 16.4572 40.4345 16.2366 40.3853 16.0252L39.4734 12.1047Z" fill="#2E2A2B"/>
<path d="M7.50642 12.7579L6.54071 13.5949C6.39866 13.7177 6.3361 13.9096 6.37879 14.0928L6.82221 16.0001L5.14526 14.9891C4.98431 14.892 4.78264 14.892 4.62169 14.9891L2.94474 16.0001L3.38816 14.0928C3.43085 13.9096 3.36829 13.7177 3.22624 13.5949L1.74608 12.3125L3.69736 12.1451C3.8847 12.1288 4.04793 12.0102 4.12124 11.8368L4.88331 10.0331L5.64571 11.8368C5.75453 12.0949 6.05232 12.2158 6.31004 12.1066C6.56808 11.9978 6.68896 11.7003 6.57981 11.4423L5.35053 8.53279C5.27135 8.34512 5.08727 8.22327 4.88364 8.22327C4.67968 8.22327 4.4956 8.34512 4.41642 8.53279L3.30606 11.1605L0.463684 11.4045C0.260704 11.4218 0.0880241 11.5592 0.0248168 11.7531C-0.0380648 11.947 0.0209071 12.1597 0.175016 12.293L2.33091 14.1612L1.68482 16.9397C1.63889 17.1381 1.71578 17.3447 1.88064 17.4646C2.0455 17.5845 2.2664 17.5939 2.44071 17.4887L4.88364 16.0154L7.32624 17.4887C7.40704 17.5372 7.49762 17.5617 7.5882 17.5617C7.69311 17.5617 7.79769 17.5291 7.88631 17.4646C8.05117 17.3447 8.12839 17.1381 8.08213 16.9397L7.43604 14.1612L8.17075 13.5245C8.38252 13.3408 8.40533 13.0208 8.2219 12.8091C8.03847 12.5973 7.71819 12.5745 7.50642 12.7579Z" fill="#2E2A2B"/>
<mask id="mask1_94_699" style="mask-type:luminance" maskUnits="userSpaceOnUse" x="41" y="8" width="9" height="10">
<path d="M41.641 8.22034H50V17.5848H41.641V8.22034Z" fill="white"/>
</mask>
<g mask="url(#mask1_94_699)">
<path d="M49.9753 11.753C49.9124 11.5592 49.739 11.4217 49.5364 11.4044L46.6943 11.1604L45.584 8.53273C45.5045 8.34506 45.3207 8.22321 45.1164 8.22321C44.9131 8.22321 44.729 8.34506 44.6495 8.53273L43.4203 11.4422C43.3111 11.7003 43.4317 11.9977 43.69 12.1065C43.9481 12.216 44.2455 12.0948 44.3544 11.8368L45.1164 10.0331L45.8788 11.8368C45.9521 12.0101 46.1154 12.1287 46.3027 12.145L48.2537 12.3125L46.7738 13.5949C46.6318 13.7177 46.5692 13.9096 46.6122 14.0927L47.0557 16L45.3787 14.989C45.2174 14.8919 45.0158 14.8919 44.8548 14.989L43.1775 16L43.6213 14.0927C43.664 13.9096 43.6017 13.7177 43.4597 13.5949L42.4937 12.7578C42.2819 12.5744 41.9616 12.5972 41.7782 12.809C41.5947 13.0208 41.6179 13.3407 41.8293 13.5245L42.5644 14.1611L41.9179 16.9396C41.872 17.138 41.9492 17.3446 42.1138 17.4645C42.2786 17.5844 42.4995 17.5939 42.6738 17.4886L45.1164 16.0153L47.5594 17.4886C47.6402 17.5372 47.7307 17.5616 47.8213 17.5616C47.9262 17.5616 48.0308 17.529 48.1194 17.4645C48.2843 17.3446 48.3615 17.138 48.3152 16.9396L47.6692 14.1611L49.8251 12.2929C49.9792 12.1597 50.0381 11.9469 49.9753 11.753Z" fill="#2E2A2B"/>
</g>
<mask id="mask2_94_699" style="mask-type:luminance" maskUnits="userSpaceOnUse" x="8" y="16" width="29" height="30">
<path d="M8.54968 16.6816H36.1504V45.5016H8.54968V16.6816Z" fill="white"/>
</mask>
<g mask="url(#mask2_94_699)">
<path d="M35.4982 28.3134C34.9877 27.6667 34.236 27.3099 33.3811 27.3099H28.8057C29.4284 26.1344 29.8083 25.2472 29.9376 24.666C29.9402 24.6542 29.9428 24.6422 29.9448 24.6318C30.1722 23.453 30.0826 22.1797 29.6854 20.9491C29.2873 19.7146 28.6197 18.6466 27.7544 17.8611C27.1988 17.3564 26.6 17.0094 25.9741 16.8289C25.3251 16.6422 24.6761 16.6416 24.0456 16.8276C23.02 17.1303 22.3843 17.7122 22.1569 18.557C21.9823 19.2057 22.1035 19.8443 22.2208 20.462C22.3938 21.3756 22.5577 22.2383 21.8862 23.2559C21.877 23.2695 21.8686 23.2835 21.8608 23.2976C21.8533 23.3112 21.0971 24.6741 20.073 26.0386C18.8408 27.6804 17.7142 28.65 16.9785 28.7031L10.6783 28.7559C10.6779 28.7559 10.6773 28.7559 10.6766 28.7562C9.50437 28.7598 8.5517 29.7147 8.5517 30.8877V43.3698C8.5517 44.5453 9.50795 45.5016 10.6835 45.5016C10.6841 45.5016 10.6851 45.5016 10.6858 45.5016L13.5301 45.4921C13.8735 45.4908 14.1511 45.2116 14.1498 44.8682C14.1485 44.5254 13.8706 44.2485 13.5281 44.2485C13.5275 44.2485 13.5265 44.2485 13.5259 44.2485L10.6832 44.2583C10.1938 44.2583 9.79532 43.8595 9.79532 43.3698V30.8877C9.79532 30.398 10.1938 29.9992 10.6835 29.9992C10.6854 29.9992 10.6871 29.9992 10.6887 29.9992L17.0062 29.9467C17.0166 29.9464 17.0267 29.9461 17.0368 29.9454C17.7161 29.9063 18.4345 29.545 19.2324 28.8399C19.8081 28.3317 20.4256 27.6403 21.0674 26.785C22.0843 25.43 22.8313 24.1101 22.9372 23.9205C23.3533 23.2835 23.5735 22.6221 23.6107 21.8995C23.6423 21.284 23.5361 20.724 23.4422 20.23C23.3432 19.7065 23.2572 19.2539 23.3579 18.8805C23.4331 18.6003 23.6195 18.2498 24.3972 18.0204C25.2163 17.7786 26.1116 18.0491 26.918 18.7815C28.3659 20.0961 29.1084 22.4048 28.7236 24.3968C28.5927 24.9849 28.057 26.1318 27.2148 27.6266C27.1066 27.8192 27.1086 28.0547 27.22 28.2456C27.3314 28.4362 27.5357 28.5535 27.7566 28.5535H33.3811C33.8539 28.5535 34.2484 28.737 34.5218 29.0836C34.8798 29.5381 34.9975 30.2126 34.8355 30.888C34.7521 31.2363 34.5951 31.5396 34.3739 31.7853C34.3657 31.7846 34.3572 31.7846 34.3491 31.7846H32.4079C32.0648 31.7846 31.7863 32.0629 31.7863 32.4063C31.7863 32.7497 32.0648 33.0282 32.4079 33.0282H33.8864C34.3097 33.6215 34.1826 34.426 34.1067 34.7488C34.0057 35.1779 33.8082 35.5272 33.518 35.7901C33.4974 35.7878 33.4762 35.7869 33.4547 35.7869H31.5139C31.1705 35.7869 30.8919 36.0654 30.8919 36.4088C30.8919 36.7523 31.1705 37.0305 31.5139 37.0305H33.2798C33.5339 37.4817 33.572 38.0939 33.3769 38.7065C33.2136 39.219 32.9185 39.6295 32.5197 39.9025H30.6195C30.2761 39.9025 29.9979 40.1808 29.9979 40.5245C29.9979 40.8679 30.2761 41.1461 30.6195 41.1461H32.3502C32.504 41.5345 32.5044 42.0033 32.3454 42.4735C31.9185 43.7341 30.8619 44.2485 28.6979 44.2485H21.9741C21.9663 44.2485 21.9585 44.2488 21.9507 44.2488C20.0574 44.3205 18.6779 43.9712 17.9618 43.2395C17.4118 42.6765 17.4235 42.0584 17.4265 41.9946C17.4284 41.9743 17.4284 41.9675 17.4284 41.9457L17.4538 33.7036C17.4551 33.3602 17.1775 33.081 16.8341 33.08C16.8335 33.08 16.8328 33.08 16.8322 33.08C16.4898 33.08 16.2115 33.357 16.2105 33.6997L16.1848 41.9222C16.1793 42.0216 16.1757 42.2862 16.2568 42.6348C16.3806 43.1681 16.6517 43.6663 17.0404 44.0749C17.9416 45.0226 19.4305 45.5016 21.4708 45.5016C21.6389 45.5016 21.8103 45.4983 21.9855 45.4921H28.6979C29.4974 45.4921 30.5335 45.4446 31.4513 45.0738C32.4711 44.6616 33.168 43.9211 33.5235 42.8723C33.7757 42.1268 33.7685 41.3635 33.5134 40.7056C33.9949 40.2912 34.353 39.7396 34.5618 39.0838C34.8368 38.22 34.7948 37.3306 34.4602 36.6099C34.8782 36.1915 35.1708 35.6559 35.3171 35.0333C35.4151 34.6156 35.5644 33.659 35.1607 32.762C35.5934 32.3411 35.8954 31.8025 36.0449 31.1776C36.2945 30.135 36.0902 29.0644 35.4982 28.3134Z" fill="#2E2A2B"/>
</g>
<path d="M13.3052 41.1462C13.3052 41.2429 13.226 41.3221 13.1293 41.3221C12.7859 41.3221 12.5076 41.6004 12.5076 41.9438C12.5076 42.2868 12.7859 42.5654 13.1293 42.5654C13.9119 42.5654 14.5485 41.9288 14.5485 41.1462C14.5485 40.8028 14.2703 40.5245 13.9269 40.5245C13.5835 40.5245 13.3052 40.8028 13.3052 41.1462Z" fill="#2E2A2B"/>
</svg>
