<svg width="50" height="48" viewBox="0 0 50 48" fill="none" xmlns="http://www.w3.org/2000/svg">
<mask id="mask0_108_5436" style="mask-type:luminance" maskUnits="userSpaceOnUse" x="0" y="0" width="50" height="47">
<path d="M0 0H50V46.3105H0V0Z" fill="white"/>
</mask>
<g mask="url(#mask0_108_5436)">
<path d="M0.413672 16.3851L16.0602 25.623L15.6552 32.8275C15.6549 32.8822 15.6601 32.9362 15.6702 32.9896C15.6803 33.043 15.6952 33.0951 15.7154 33.1458C15.7356 33.1966 15.76 33.2448 15.7893 33.2907C15.8186 33.3369 15.8518 33.3796 15.8889 33.4193C15.9264 33.459 15.9671 33.4948 16.0113 33.5267C16.0553 33.5589 16.1021 33.5863 16.1513 33.6094C16.2008 33.6325 16.2519 33.6507 16.3046 33.6644C16.3574 33.6777 16.4111 33.6862 16.4654 33.6895L22.9137 33.8359L32.5257 45.9521C32.6061 46.0511 32.7034 46.1286 32.818 46.1842C32.9326 46.2399 33.0536 46.2689 33.1809 46.2712H33.3189C33.3915 46.2575 33.4612 46.2347 33.5279 46.2031C33.595 46.1712 33.6565 46.1318 33.7132 46.0843C33.7698 46.0368 33.8196 45.9827 33.8622 45.9225C33.9049 45.862 33.9394 45.7975 33.9654 45.7282L49.9482 1.08008C49.9521 1.03971 49.9521 0.999675 49.9482 0.95931C49.9524 0.924805 49.9524 0.890625 49.9482 0.85612C49.9651 0.758464 49.9651 0.660807 49.9482 0.563151C49.9264 0.458659 49.8831 0.363607 49.8189 0.278646L49.7415 0.192383L49.6552 0.10612H49.6035L49.4915 0.0546875C49.4361 0.0292969 49.3788 0.0120443 49.3189 0.00292973H49.207C49.1262 -0.0143229 49.0458 -0.0143229 48.9654 0.00292973H48.8964L0.620703 14.8597C0.544857 14.8854 0.473893 14.9209 0.408138 14.9661C0.342057 15.0117 0.283789 15.0651 0.232682 15.1266C0.181575 15.1885 0.139909 15.2559 0.107682 15.3291C0.0757811 15.4023 0.0539713 15.4785 0.0429035 15.5576C0.0324869 15.637 0.0328124 15.7165 0.0445311 15.7956C0.0559244 15.875 0.0780598 15.9508 0.110612 16.0241C0.143489 16.097 0.185482 16.1644 0.237239 16.2256C0.288672 16.2871 0.347591 16.3402 0.413672 16.3851ZM17.3619 32.0605L17.638 27.2262L21.5517 32.1641L17.3619 32.0605ZM32.8792 43.7116L18.3707 25.4766L47.4137 3.18262L32.8792 43.7116ZM44.9482 2.95866L17.1292 24.3304L2.87917 15.9111L44.9482 2.95866Z" fill="black"/>
</g>
<path d="M8.36204 38.8082H8.54303C8.58958 38.8069 8.63548 38.8017 8.68138 38.7929C8.72695 38.7844 8.77155 38.7721 8.81517 38.7561C8.85879 38.7402 8.90078 38.7206 8.94115 38.6978C8.98184 38.6751 9.01992 38.6493 9.05638 38.6204C9.09284 38.5914 9.12637 38.5598 9.15762 38.5253C9.18887 38.4908 9.21686 38.4544 9.24225 38.4153C9.26764 38.3762 9.28945 38.3355 9.30801 38.2929C9.32689 38.2506 9.34186 38.2066 9.35358 38.1617C9.51439 37.4706 9.71263 36.7906 9.94863 36.1214C10.1846 35.4521 10.4564 34.7981 10.7647 34.1588C11.073 33.5195 11.4151 32.8993 11.7917 32.2978C12.1684 31.6962 12.5769 31.1174 13.0173 30.5611C13.0499 30.5191 13.0785 30.4749 13.1029 30.4277C13.1273 30.3805 13.1472 30.3316 13.1625 30.2809C13.1778 30.2301 13.1885 30.1783 13.1944 30.1256C13.2003 30.0728 13.2012 30.0198 13.197 29.9671C13.1931 29.914 13.1843 29.8619 13.171 29.8108C13.1573 29.7594 13.1391 29.7099 13.1163 29.662C13.0935 29.6139 13.0668 29.5686 13.0355 29.5256C13.0043 29.4827 12.9695 29.443 12.9311 29.4062C12.8878 29.3736 12.8415 29.3456 12.7927 29.3215C12.7442 29.2978 12.6934 29.2786 12.641 29.2643C12.5889 29.2499 12.5355 29.2408 12.4815 29.2366C12.4271 29.2324 12.3731 29.233 12.3194 29.2392C12.2654 29.2451 12.2123 29.2561 12.1605 29.2721C12.1088 29.288 12.0587 29.3085 12.0108 29.3339C11.9626 29.3593 11.9177 29.3889 11.8751 29.4228C11.8327 29.4566 11.794 29.4944 11.7585 29.5354C11.2771 30.1402 10.8305 30.7695 10.419 31.4238C10.0076 32.0781 9.63353 32.7532 9.29694 33.4488C8.96068 34.1448 8.6638 34.857 8.40664 35.5859C8.14948 36.3147 7.93333 37.0556 7.75853 37.8085C7.74811 37.8609 7.74225 37.914 7.74128 37.9677C7.74063 38.0214 7.74486 38.0745 7.75397 38.1272C7.76309 38.1803 7.77676 38.2317 7.79564 38.2818C7.81419 38.332 7.83763 38.3801 7.8653 38.426C7.89297 38.4719 7.92454 38.5149 7.96035 38.5549C7.99616 38.595 8.03522 38.6311 8.07786 38.664C8.12018 38.6965 8.16543 38.7249 8.21328 38.7493C8.26113 38.7737 8.31061 38.7932 8.36204 38.8082Z" fill="black"/>
<path d="M7.20703 41.9539V46.2625C7.19824 46.2944 7.19141 46.3266 7.18652 46.3595C7.18164 46.392 7.17839 46.4249 7.17741 46.4578C7.17611 46.4906 7.17676 46.5235 7.17936 46.5564C7.18197 46.5896 7.18652 46.6222 7.19271 46.6544C7.19922 46.6869 7.20736 46.7188 7.21745 46.7501C7.22754 46.7817 7.23926 46.8126 7.25293 46.8425C7.26628 46.8725 7.28158 46.9018 7.2985 46.9301C7.31543 46.9584 7.33398 46.9858 7.35384 47.0121C7.37402 47.0382 7.39551 47.0632 7.41829 47.087C7.44141 47.1108 7.46549 47.1332 7.49089 47.1541C7.5166 47.1749 7.54297 47.1944 7.57096 47.2123C7.59863 47.2302 7.62728 47.2465 7.6569 47.2611C7.68652 47.2758 7.7168 47.2888 7.74772 47.2999C7.77897 47.311 7.81055 47.3204 7.84277 47.3279C7.87467 47.3354 7.90723 47.3409 7.9401 47.3448C7.97298 47.3484 8.00586 47.3503 8.03874 47.3503C8.07194 47.3503 8.10482 47.3484 8.13737 47.3448C8.17025 47.3409 8.2028 47.3354 8.23503 47.3279C8.26693 47.3204 8.29883 47.311 8.32975 47.2999C8.36068 47.2888 8.39128 47.2758 8.4209 47.2611C8.45052 47.2465 8.47917 47.2302 8.50684 47.2123C8.53451 47.1944 8.5612 47.1749 8.58659 47.1541C8.61198 47.1332 8.63639 47.1108 8.65918 47.087C8.68197 47.0632 8.70345 47.0382 8.72363 47.0121C8.74382 46.9858 8.76204 46.9584 8.77897 46.9301C8.7959 46.9018 8.8112 46.8725 8.82487 46.8425C8.83822 46.8126 8.85026 46.7817 8.86003 46.7501C8.87012 46.7188 8.87826 46.6869 8.88477 46.6544C8.89095 46.6222 8.89551 46.5896 8.89811 46.5564C8.90072 46.5235 8.90137 46.4906 8.90039 46.4578C8.89909 46.4249 8.89616 46.392 8.89095 46.3595C8.88607 46.3266 8.87923 46.2944 8.87077 46.2625V41.9539C8.8584 41.9083 8.84245 41.8643 8.82292 41.8217C8.80339 41.7791 8.7806 41.738 8.75423 41.699C8.72819 41.6602 8.69889 41.6235 8.66667 41.5893C8.63444 41.5551 8.59961 41.5238 8.5625 41.4952C8.52507 41.4666 8.48568 41.4412 8.44401 41.4194C8.40267 41.3972 8.3597 41.3787 8.3151 41.3634C8.27051 41.3484 8.22526 41.337 8.17871 41.3295C8.13249 41.3217 8.08594 41.3181 8.03874 41.3181C7.99186 41.3181 7.94499 41.3217 7.89876 41.3295C7.85221 41.337 7.80697 41.3484 7.76237 41.3634C7.71777 41.3787 7.6748 41.3972 7.63346 41.4194C7.5918 41.4412 7.55241 41.4666 7.5153 41.4952C7.47786 41.5235 7.44303 41.5551 7.41081 41.5893C7.37858 41.6235 7.34961 41.6602 7.32324 41.699C7.2972 41.738 7.27409 41.7791 7.25456 41.8217C7.23503 41.8643 7.21908 41.9083 7.20703 41.9539Z" fill="black"/>
</svg>
