<svg width="50" height="49" viewBox="0 0 50 49" fill="none" xmlns="http://www.w3.org/2000/svg">
<mask id="mask0_108_5387" style="mask-type:luminance" maskUnits="userSpaceOnUse" x="25" y="35" width="25" height="14">
<path d="M25.5 35.3542H50V48.8751H25.5V35.3542Z" fill="white"/>
</mask>
<g mask="url(#mask0_108_5387)">
<path d="M41.5692 48.8761C40.6405 48.8761 39.8839 48.1196 39.8839 47.1909V45.5054H25.5591V43.8201H41.5692V47.1909L48.3104 42.1173L41.5545 37.0861L41.5692 40.4497H30.6147V38.7645H39.8839V37.0793C39.8839 36.1502 40.6405 35.394 41.5692 35.394C41.9165 35.394 42.2599 35.5122 42.5614 35.7358L49.3208 40.8045C49.7528 41.1359 49.9956 41.6196 49.9956 42.1349C49.9956 42.6502 49.7528 43.1339 49.3296 43.4601L42.564 48.5317C42.2589 48.7576 41.9155 48.8761 41.5685 48.8761H41.5692Z" fill="black"/>
</g>
<path d="M22.1885 43.8201H23.874V45.5053H22.1885V43.8201Z" fill="black"/>
<path d="M18.8174 43.8201H20.5026V45.5053H18.8174V43.8201Z" fill="black"/>
<path d="M30.5107 5.8999H36.5137V7.58512H30.5107V5.8999Z" fill="black"/>
<path d="M39.9965 32.8655H26.4024V31.1802H39.9965C40.3995 31.1802 40.7273 30.8524 40.7273 30.4491C40.7273 30.4159 40.7257 30.3817 40.7204 30.3485L37.6101 8.57707C37.5294 8.01164 37.0378 7.58586 36.4672 7.58586C35.8969 7.58586 35.4421 7.97648 35.3341 8.51457L33.8337 16.012H14.4197L15.6098 10.0614L17.2628 10.3918L16.4757 14.3258H32.4535L33.6824 8.18254C33.946 6.85929 35.1186 5.89868 36.4682 5.89868C37.8178 5.89868 39.0808 6.94686 39.2803 8.33683L42.3897 30.1057C42.4057 30.217 42.4135 30.331 42.4135 30.4475C42.4135 31.7795 41.3295 32.8635 39.9975 32.8635L39.9965 32.8655Z" fill="black"/>
<path d="M27.2445 32.8656H17.0234C15.6895 32.8656 14.6045 31.7807 14.6045 30.4467C14.6045 30.3321 14.6123 30.2188 14.6289 30.1049L16.735 15.0525L18.4036 15.2865L16.2969 30.3461C16.2907 30.3839 16.2897 30.4151 16.2897 30.4467C16.2897 30.8507 16.6191 31.1804 17.0234 31.1804H27.2445V32.8656Z" fill="black"/>
<path d="M36.4043 32.8656C35.0703 32.8656 33.9854 31.7806 33.9854 30.4466C33.9854 30.332 33.9932 30.2187 34.0098 30.1048L35.7529 17.6465L37.4215 17.8805L35.6777 30.346C35.6715 30.3838 35.6706 30.415 35.6706 30.4466C35.6706 30.8506 36 31.1803 36.4043 31.1803V32.8656Z" fill="black"/>
<mask id="mask1_108_5387" style="mask-type:luminance" maskUnits="userSpaceOnUse" x="0" y="0" width="36" height="15">
<path d="M0 0H35.6667V14.6042H0V0Z" fill="white"/>
</mask>
<g mask="url(#mask1_108_5387)">
<path d="M1.00423 14.6013L0.0253906 13.2305L17.2292 0.943766C18.0898 0.327881 19.1064 0.00170898 20.1676 0.00170898H28.4486C29.5615 0.00170898 30.6475 0.367269 31.5052 1.03166C33.0677 2.23934 35.0547 4.17586 35.6442 6.53947L34.0098 6.948C33.5114 4.9532 31.5807 3.22078 30.4746 2.36531C29.9095 1.92814 29.1898 1.68791 28.4476 1.68791H20.167C19.4587 1.68791 18.7822 1.90535 18.208 2.31551L1.00423 14.6013Z" fill="black"/>
</g>
<path d="M1.18913 26.3962L0.0078125 25.1947L16.1689 9.30697L17.835 9.66992C19.5068 10.0371 19.8548 10.1133 20.6338 10.1133C22.4261 10.1133 23.625 9.5472 25.0911 8.56901L25.2419 8.46842L29.3336 7.78743C29.5869 7.74447 29.7718 7.52637 29.7718 7.26758C29.7718 6.97754 29.5361 6.74186 29.2461 6.74186H22.1878V5.05664H29.2461C30.4658 5.05664 31.457 6.04785 31.457 7.26758C31.457 8.35351 30.6807 9.27018 29.6107 9.44889L25.8737 10.0713C24.2454 11.1403 22.7777 11.7975 20.6338 11.7975C19.6715 11.7975 19.2064 11.696 17.473 11.3148L16.6999 11.1465L1.18913 26.3962Z" fill="black"/>
</svg>
