<svg width="65" height="35" viewBox="0 0 65 35" fill="none" xmlns="http://www.w3.org/2000/svg">
<mask id="mask0_108_5427" style="mask-type:luminance" maskUnits="userSpaceOnUse" x="10" y="0" width="55" height="35">
<path d="M10.7244 0H65.0001V34.6942H10.7244V0Z" fill="white"/>
</mask>
<g mask="url(#mask0_108_5427)">
<path d="M64.5663 17.3531L59.3573 8.1239L59.3421 8.09809C58.844 7.28219 58.004 6.79553 57.095 6.79553H50.707L51.1548 3.55522C51.2783 2.65977 51.0088 1.755 50.4146 1.07326C49.8205 0.391509 48.9614 0.000488281 48.0571 0.000488281H17.1804C16.7043 0.000488281 16.318 0.386431 16.318 0.862511C16.318 1.33859 16.7043 1.72496 17.1804 1.72496H48.0575C48.4688 1.72496 48.8442 1.8955 49.1146 2.20569C49.385 2.51589 49.5031 2.91156 49.4468 3.31909L48.9665 6.79511H48.9394L46.1041 26.8015L46.1011 26.8239C46.0389 27.3664 45.9974 27.779 45.9699 28.0918H30.7967C30.3795 25.333 27.9927 23.212 25.1197 23.212C22.2467 23.212 19.86 25.333 19.4427 28.0918H13.9257C13.5144 28.0918 13.139 27.9208 12.8686 27.6106C12.5986 27.3004 12.4805 26.9052 12.5368 26.4976L13.1242 22.2455C13.1894 21.7737 12.8593 21.3382 12.3879 21.2735C11.9147 21.2083 11.4814 21.5379 11.4162 22.0098L10.8289 26.2619C10.7049 27.1574 10.9749 28.0621 11.5686 28.7439C12.1627 29.4256 13.0222 29.8162 13.9261 29.8162H19.4432C19.8604 32.575 22.2472 34.696 25.1202 34.696C27.9931 34.696 30.3799 32.575 30.7972 29.8162H48.8336C49.2509 32.575 51.6376 34.696 54.5106 34.696C57.3836 34.696 59.7703 32.575 60.1876 29.8162H61.3052C62.7699 29.8162 63.9649 28.5497 63.9941 26.9809L64.9937 19.0382L65.0005 18.9307C65.0005 18.3687 64.8502 17.8241 64.5667 17.3535L64.5663 17.3531ZM29.137 28.9538C29.137 29.2496 29.1036 29.5382 29.0426 29.8162C28.647 31.6181 27.0389 32.9711 25.1193 32.9711C23.1998 32.9711 21.5921 31.6177 21.1964 29.8162C21.1355 29.5378 21.102 29.2496 21.102 28.9538C21.102 28.658 21.1355 28.3694 21.1964 28.0918C21.5921 26.2894 23.2002 24.9369 25.1193 24.9369C27.0384 24.9369 28.6465 26.2899 29.0426 28.0918C29.1036 28.3698 29.137 28.658 29.137 28.9538ZM58.5279 28.9538C58.5279 29.2496 58.4944 29.5382 58.4335 29.8162C58.0378 31.6181 56.4297 32.9711 54.5102 32.9711C52.5911 32.9711 50.9825 31.6177 50.5869 29.8162C50.5259 29.5378 50.4929 29.2496 50.4929 28.9538C50.4929 28.658 50.5259 28.3694 50.5869 28.0918C50.9825 26.2894 52.5911 24.9369 54.5102 24.9369C56.4297 24.9369 58.0374 26.2899 58.4335 28.0918C58.4944 28.3698 58.5279 28.658 58.5279 28.9538ZM62.2764 26.8146L62.2697 26.9225C62.2697 27.567 61.8367 28.0918 61.3048 28.0918H60.1872C59.7699 25.333 57.3832 23.212 54.5102 23.212C51.6372 23.212 49.2505 25.333 48.8332 28.0918H47.7659L50.4692 8.52H57.0954C57.395 8.52 57.6811 8.69393 57.8643 8.98635L63.0712 18.213L63.0864 18.2384C63.2024 18.4284 63.2671 18.6501 63.2751 18.8829L62.2769 26.8146H62.2764Z" fill="#1D1D1B"/>
</g>
<path d="M57.0156 10.344C56.7951 9.91019 56.3554 9.64062 55.8688 9.64062H52.3868C51.7419 9.64062 51.1935 10.1226 51.1109 10.7616L50.3585 16.5677C50.3111 16.9346 50.4237 17.3045 50.6679 17.5825C50.912 17.8601 51.2641 18.0196 51.6344 18.0196H58.8213C59.2724 18.0196 59.6825 17.7899 59.9182 17.4056C60.1539 17.0214 60.1726 16.5516 59.9686 16.15L57.016 10.344H57.0156ZM52.1329 16.2952L52.7719 11.3655H55.6005L58.107 16.2952H52.1329Z" fill="#1D1D1B"/>
<path d="M23.1439 9.09389C23.1439 8.61781 22.7579 8.23145 22.2818 8.23145H0.862446C0.386366 8.23145 0 8.61781 0 9.09389C0 9.56955 0.386366 9.95591 0.862446 9.95591H22.2814C22.7575 9.95591 23.1434 9.56955 23.1434 9.09389H23.1439Z" fill="#1D1D1B"/>
<path d="M28.0782 13.1873H6.65883C6.18275 13.1873 5.79639 13.5736 5.79639 14.0497C5.79639 14.5258 6.18275 14.9117 6.65883 14.9117H28.0778C28.5539 14.9117 28.9398 14.5258 28.9398 14.0497C28.9398 13.5736 28.5539 13.1873 28.0778 13.1873H28.0782Z" fill="#1D1D1B"/>
<path d="M20.5233 19.0055C20.5233 18.5294 20.137 18.1431 19.6613 18.1431H3.48305C3.00697 18.1431 2.62061 18.5294 2.62061 19.0055C2.62061 19.4816 3.00697 19.8675 3.48305 19.8675H19.6613C20.137 19.8675 20.5233 19.4816 20.5233 19.0055Z" fill="#1D1D1B"/>
<path d="M6.84347 5.37169H28.2624C28.7385 5.37169 29.1249 4.98532 29.1249 4.50924C29.1249 4.03316 28.7385 3.64722 28.2624 3.64722H6.84347C6.36739 3.64722 5.98145 4.03316 5.98145 4.50924C5.98145 4.98532 6.36739 5.37169 6.84347 5.37169Z" fill="#1D1D1B"/>
</svg>
