<svg width="13" height="17" viewBox="0 0 13 17" fill="none" xmlns="http://www.w3.org/2000/svg">
<mask id="mask0_151_3956" style="mask-type:luminance" maskUnits="userSpaceOnUse" x="0" y="0" width="13" height="17">
<path d="M0 0H12.75V17H0V0Z" fill="white"/>
</mask>
<g mask="url(#mask0_151_3956)">
<path d="M12.3958 17H0.354167C0.158637 17 0 16.8414 0 16.6458V10.5598C0 9.7113 0.223814 8.89885 0.648076 8.21101C1.11497 7.45246 1.41667 5.75869 1.41667 3.89583C1.41667 2.14837 1.07316 0.442093 1.06967 0.425082C1.04836 0.320964 1.07521 0.212541 1.14264 0.130353C1.20986 0.0475502 1.3105 0 1.41667 0H3.1875C3.38303 0 3.54167 0.158637 3.54167 0.354167C3.54167 2.64559 4.41786 4.95833 6.375 4.95833C8.4668 4.95833 9.20833 2.47855 9.20833 0.354167C9.20833 0.158637 9.36697 0 9.5625 0H11.3333C11.4395 0 11.5401 0.0475502 11.6074 0.130353C11.6748 0.212541 11.7016 0.320964 11.6803 0.425082C11.6768 0.442093 11.3333 2.14837 11.3333 3.89583C11.3333 5.75951 11.635 7.45246 12.1019 8.21019C12.5262 8.89885 12.75 9.7113 12.75 10.5598V16.6458C12.75 16.8414 12.5914 17 12.3958 17ZM0.708333 16.2917H12.0417V10.5598C12.0417 9.84227 11.8539 9.15873 11.4991 8.58219C10.9601 7.70743 10.625 5.9118 10.625 3.89583C10.625 2.59189 10.8021 1.34083 10.9091 0.708333H9.91093C9.81255 3.73371 8.44692 5.66667 6.375 5.66667C4.33649 5.66667 2.94094 3.68903 2.83907 0.708333H1.84093C1.94792 1.34083 2.125 2.59189 2.125 3.89583C2.125 5.91098 1.78989 7.70661 1.25086 8.58219C0.896074 9.15873 0.708333 9.84227 0.708333 10.5598V16.2917Z" fill="black"/>
</g>
<mask id="mask1_151_3956" style="mask-type:luminance" maskUnits="userSpaceOnUse" x="0" y="10" width="13" height="2">
<path d="M0 10.5989H12.75V11.3334H0V10.5989Z" fill="white"/>
</mask>
<g mask="url(#mask1_151_3956)">
<path d="M12.3958 11.3333H0.354167C0.158637 11.3333 0 11.1747 0 10.9792C0 10.7836 0.158637 10.625 0.354167 10.625H12.3958C12.5914 10.625 12.75 10.7836 12.75 10.9792C12.75 11.1747 12.5914 11.3333 12.3958 11.3333Z" fill="black"/>
</g>
<path d="M11.2384 7.08333H1.51725C1.32172 7.08333 1.16309 6.9247 1.16309 6.72917C1.16309 6.53364 1.3209 6.375 1.51725 6.375H11.2384C11.4339 6.375 11.5926 6.53364 11.5926 6.72917C11.5926 6.9247 11.4339 7.08333 11.2384 7.08333Z" fill="black"/>
<path d="M10.979 4.95809H8.17887C7.98355 4.95809 7.82471 4.79945 7.82471 4.60392C7.82471 4.40839 7.98355 4.24976 8.17887 4.24976H10.979C11.1745 4.24976 11.3332 4.40839 11.3332 4.60392C11.3332 4.79945 11.1745 4.95809 10.979 4.95809Z" fill="black"/>
<path d="M11.0396 2.83358H9.30339C9.10786 2.83358 8.94922 2.67494 8.94922 2.47941C8.94922 2.28388 9.10786 2.12524 9.30339 2.12524H11.0396C11.2351 2.12524 11.3937 2.28388 11.3937 2.47941C11.3937 2.67494 11.2351 2.83358 11.0396 2.83358Z" fill="black"/>
<path d="M12.0415 9.20858H0.708171C0.512641 9.20858 0.354004 9.04994 0.354004 8.85441C0.354004 8.65888 0.512641 8.50024 0.708171 8.50024H12.0415C12.237 8.50024 12.3957 8.65888 12.3957 8.85441C12.3957 9.04994 12.237 9.20858 12.0415 9.20858Z" fill="black"/>
<mask id="mask2_151_3956" style="mask-type:luminance" maskUnits="userSpaceOnUse" x="0" y="12" width="13" height="2">
<path d="M0 12.75H12.75V13.4846H0V12.75Z" fill="white"/>
</mask>
<g mask="url(#mask2_151_3956)">
<path d="M12.3958 13.4583H0.354167C0.158637 13.4583 0 13.2997 0 13.1042C0 12.9086 0.158637 12.75 0.354167 12.75H12.3958C12.5914 12.75 12.75 12.9086 12.75 13.1042C12.75 13.2997 12.5914 13.4583 12.3958 13.4583Z" fill="black"/>
</g>
<mask id="mask3_151_3956" style="mask-type:luminance" maskUnits="userSpaceOnUse" x="0" y="14" width="13" height="2">
<path d="M0 14.8486H12.75V15.5832H0V14.8486Z" fill="white"/>
</mask>
<g mask="url(#mask3_151_3956)">
<path d="M12.3958 15.5828H0.354167C0.158637 15.5828 0 15.4242 0 15.2287C0 15.0331 0.158637 14.8745 0.354167 14.8745H12.3958C12.5914 14.8745 12.75 15.0331 12.75 15.2287C12.75 15.4242 12.5914 15.5828 12.3958 15.5828Z" fill="black"/>
</g>
<path d="M4.64012 4.95809H1.75309C1.55756 4.95809 1.39893 4.79945 1.39893 4.60392C1.39893 4.40839 1.55674 4.24976 1.75309 4.24976H4.64094C4.83647 4.24976 4.99511 4.40839 4.99511 4.60392C4.99511 4.79945 4.83647 4.95809 4.64012 4.95809Z" fill="black"/>
<path d="M3.45261 2.83358H1.70719C1.51166 2.83358 1.35303 2.67494 1.35303 2.47941C1.35303 2.28388 1.51166 2.12524 1.70719 2.12524H3.45261C3.64794 2.12524 3.80678 2.28388 3.80678 2.47941C3.80678 2.67494 3.64794 2.83358 3.45261 2.83358Z" fill="black"/>
</svg>
