<svg width="16" height="14" viewBox="0 0 16 14" fill="none" xmlns="http://www.w3.org/2000/svg">
<path d="M5.14375 1.16113C2.66709 2.27514 0.712613 4.89589 0.681363 8.97421H0.502737C0.228238 8.97421 0.00292969 9.19933 0.00292969 9.47363V10.3774C0.00292969 10.6519 0.228238 10.877 0.502737 10.877H15.4968C15.7713 10.877 15.9966 10.6519 15.9966 10.3774V9.47363C15.9966 9.19933 15.7713 8.97421 15.4968 8.97421H15.3183C15.2849 4.90072 13.3316 2.27687 10.8557 1.16113V1.57722C13.1688 2.67811 14.9782 5.1864 14.9493 9.16441V9.35481H15.4968C15.5596 9.35481 15.6158 9.41075 15.6158 9.47363V10.3774C15.6158 10.4405 15.5596 10.4964 15.4968 10.4964H0.502737C0.439851 10.4964 0.383717 10.4405 0.383717 10.3774V9.47363C0.383717 9.41075 0.439851 9.35481 0.502737 9.35481H1.05019V9.16441C1.01913 5.1783 2.82758 2.67521 5.14375 1.57722V1.16113Z" fill="black"/>
<mask id="mask0_151_3983" style="mask-type:luminance" maskUnits="userSpaceOnUse" x="0" y="11" width="16" height="3">
<path d="M0 11.0996H16V13.0255H0V11.0996Z" fill="white"/>
</mask>
<g mask="url(#mask0_151_3983)">
<path d="M0.098458 11.1174C0.0542836 11.144 0.0255413 11.1822 0.0124241 11.232C0.00953052 11.2511 0.00953052 11.2702 0.0124241 11.2893C0.00953052 11.3084 0.00953052 11.3275 0.0124241 11.3466C0.0187898 11.3672 0.0282419 11.3863 0.0411663 11.4039C0.152084 11.5428 0.364469 11.7372 0.585534 11.9478C0.806598 12.1587 1.02805 12.4015 1.18739 12.5779C1.5755 13.0076 2.09306 13.0075 2.47693 13.0075C2.48638 13.0082 2.49603 13.0082 2.50548 13.0075C7.06991 12.6274 9.32705 12.6274 13.5097 13.0075C13.8905 13.0075 14.3735 13.0034 14.7993 12.5779L15.9455 11.4324C15.9582 11.4149 15.9679 11.3958 15.974 11.3751C15.987 11.3578 15.9964 11.3387 16.0026 11.3178C16.0034 11.3084 16.0034 11.2987 16.0026 11.2893C15.9964 11.2684 15.987 11.2493 15.974 11.232C15.963 11.1978 15.9439 11.1693 15.9167 11.146C15.8992 11.1332 15.8801 11.1238 15.8595 11.1174C15.85 11.1166 15.8404 11.1166 15.8309 11.1174C15.8213 11.1166 15.8118 11.1166 15.8022 11.1174H0.184299C0.165202 11.1145 0.146105 11.1145 0.127007 11.1174C0.117555 11.1166 0.10791 11.1166 0.098458 11.1174ZM0.671567 11.4897H15.3436L14.5414 12.2916C14.2138 12.6189 13.9054 12.6355 13.5383 12.6352C13.5273 12.6342 13.5209 12.6361 13.5097 12.6352C9.33592 12.2571 7.03962 12.2551 2.47693 12.6352C2.09923 12.6352 1.75683 12.6332 1.47404 12.3201C1.29772 12.1251 1.06451 11.872 0.843442 11.6616C0.76551 11.5871 0.74024 11.5568 0.671567 11.4897Z" fill="black"/>
</g>
<path d="M7.94079 0.00179367C6.96471 0.024556 5.99982 0.251408 5.07004 0.611169L4.96587 0.655922L4.95102 0.789602L4.5791 10.675L4.95102 10.6899L5.33778 0.938329C7.06116 0.293653 8.80036 0.149942 10.663 0.938329L11.0498 10.6899L11.4215 10.675L11.0498 0.789602L11.0349 0.670775L10.9308 0.626215C9.90703 0.172126 8.91706 -0.0209686 7.94079 0.00179367Z" fill="black"/>
<path d="M4.56878 11.261L4.19629 12.7789L4.56878 12.8648L4.94147 11.347L4.56878 11.261Z" fill="black"/>
<path d="M11.4467 11.261L11.0742 11.347L11.4467 12.8648L11.7907 12.7789L11.4467 11.261Z" fill="black"/>
<path d="M6.88159 0.174316C6.87966 0.19052 6.86963 0.204988 6.86963 0.221963C6.86963 0.850049 7.38332 1.36355 8.01199 1.36355C8.64065 1.36355 9.15435 0.850049 9.15435 0.221963C9.15435 0.204988 9.14393 0.19052 9.14258 0.174316H8.7616C8.76257 0.190713 8.77356 0.205181 8.77356 0.221963C8.77356 0.644417 8.43483 0.982958 8.01199 0.982958C7.58915 0.982958 7.25042 0.644417 7.25042 0.221963C7.25042 0.205181 7.26122 0.190713 7.26238 0.174316H6.88159Z" fill="black"/>
<path d="M0.900674 8.96957C0.890257 8.97806 0.880612 8.98751 0.872125 8.99812C0.833737 9.01722 0.805188 9.04577 0.786284 9.08396C0.773359 9.10152 0.763907 9.12061 0.757541 9.14125C0.754648 9.16035 0.754648 9.17945 0.757541 9.19855C0.770659 9.24832 0.799401 9.28651 0.843575 9.31313C0.852063 9.32374 0.861515 9.33319 0.872125 9.34187C0.891222 9.34477 0.910319 9.34477 0.929416 9.34187C0.938868 9.34245 0.948513 9.34245 0.957966 9.34187H3.2506C3.26969 9.34477 3.28879 9.34477 3.30789 9.34187C3.32853 9.33551 3.34763 9.32605 3.36518 9.31313C3.39238 9.28998 3.41148 9.26124 3.42247 9.22729C3.42537 9.20819 3.42537 9.18909 3.42247 9.17C3.42537 9.1509 3.42537 9.1318 3.42247 9.11271C3.42324 9.10306 3.42324 9.09361 3.42247 9.08396C3.40762 9.06082 3.38852 9.04172 3.36518 9.02686C3.35669 9.01625 3.34705 9.00661 3.33663 8.99812C3.31908 8.98539 3.29998 8.97575 3.27934 8.96957C3.26969 8.9688 3.26024 8.9688 3.2506 8.96957H0.958159C0.948513 8.9688 0.939061 8.9688 0.929609 8.96957C0.919964 8.9688 0.910512 8.9688 0.900867 8.96957H0.900674Z" fill="black"/>
<path d="M13.0799 8.96957C13.0531 8.97903 13.0298 8.99388 13.0097 9.01394C12.9896 9.034 12.9748 9.05734 12.9652 9.08396C12.9459 9.1318 12.9459 9.17945 12.9652 9.22729C12.9715 9.24793 12.981 9.26703 12.9939 9.28458C13.017 9.31159 13.0458 9.33068 13.0797 9.34187C13.0988 9.34477 13.1179 9.34477 13.137 9.34187H15.057C15.0761 9.34477 15.0952 9.34477 15.1145 9.34187C15.1351 9.33551 15.1542 9.32605 15.1717 9.31313C15.1989 9.28998 15.218 9.26124 15.229 9.22729C15.2319 9.20819 15.2319 9.18909 15.229 9.17C15.2319 9.1509 15.2319 9.1318 15.229 9.11271C15.218 9.07875 15.1989 9.05001 15.1717 9.02686C15.1631 9.01625 15.1536 9.00661 15.143 8.99812C15.1256 8.98539 15.1065 8.97575 15.0857 8.96957C15.0763 8.9688 15.0666 8.9688 15.0572 8.96957H13.1372C13.1276 8.9688 13.1181 8.9688 13.1085 8.96957C13.099 8.9688 13.0894 8.9688 13.0799 8.96957Z" fill="black"/>
</svg>
