<svg width="10" height="22" viewBox="0 0 10 22" fill="none" xmlns="http://www.w3.org/2000/svg">
<mask id="mask0_151_3893" style="mask-type:luminance" maskUnits="userSpaceOnUse" x="0" y="0" width="10" height="22">
<path d="M0 0H9.06481V22H0V0Z" fill="white"/>
</mask>
<g mask="url(#mask0_151_3893)">
<path d="M8.41728 7.06464L6.88208 3.36986L7.39319 0.396261C7.40911 0.303162 7.3481 0.214041 7.25527 0.195475L6.33595 0.010603C6.27547 -0.0013328 6.21288 0.00397203 6.15558 0.0262521C6.09803 0.0485322 6.04816 0.0867267 6.01183 0.136326L4.52967 2.16169L3.04751 0.136326C3.01117 0.0867267 2.96131 0.0485322 2.90402 0.0262521C2.84646 0.00397203 2.78386 -0.00133278 2.72365 0.0108683L1.80434 0.195475C1.7115 0.214041 1.65023 0.303162 1.66641 0.396261L2.17726 3.37012L0.642058 7.06464L0.0123797 21.8167C0.0102578 21.8645 0.0277636 21.9106 0.0609185 21.9451C0.0938082 21.9796 0.139429 21.9989 0.187172 21.9989H3.93633C3.98328 21.9989 4.0281 21.9801 4.06099 21.9469C4.09388 21.9138 4.11192 21.8687 4.11139 21.822C4.11112 21.8013 4.08486 19.7282 4.13632 17.6129C4.16629 16.3727 4.21642 15.3613 4.28565 14.607C4.37159 13.6717 4.47079 13.3121 4.52967 13.1752C4.58882 13.3123 4.68802 13.6717 4.77369 14.607C4.84292 15.3613 4.89331 16.3727 4.92328 17.6129C4.97447 19.7282 4.94848 21.8013 4.94795 21.822C4.94742 21.8687 4.96572 21.9138 4.99861 21.9469C5.0315 21.9801 5.07633 21.9989 5.12301 21.9989H8.87217C8.91991 21.9989 8.96553 21.9796 8.99868 21.9451C9.03157 21.9106 9.04908 21.8645 9.04722 21.8167L8.41728 7.06464ZM8.34513 13.5805C8.0478 13.51 7.49849 13.3301 7.17225 12.9206C6.82611 12.4859 6.77969 11.4177 6.79375 10.8777H8.22976L8.34513 13.5805ZM6.35027 0.370002L7.01947 0.504478L6.55344 3.21575H5.8495L6.35027 0.370002ZM5.90626 0.873161L5.75932 1.7084L4.99437 2.79641L4.74663 2.4577L5.90626 0.873161ZM5.61662 2.51977L5.49408 3.21575H5.30125L5.21266 3.09454L5.61662 2.51977ZM4.86758 3.21575H4.35992L3.30002 1.7084L3.15308 0.873161L4.86758 3.21575ZM3.93208 3.21575H3.56526L3.44298 2.51977L3.93208 3.21575ZM2.04013 0.504478L2.70907 0.370002L3.20984 3.21575H2.50616L2.04013 0.504478ZM0.990582 7.11079L2.47513 3.56507H6.58448L8.06902 7.11079L8.2149 10.5281H0.8447L0.990582 7.11079ZM0.829847 10.8777H2.26559C2.27964 11.4177 2.23349 12.4859 1.88709 12.9206C1.56111 13.3301 1.01154 13.51 0.714203 13.5805L0.829847 10.8777ZM5.29992 21.6496C5.30496 21.1048 5.31584 19.3853 5.27393 17.6307C5.17022 13.2935 4.85193 12.9718 4.73231 12.8506C4.65858 12.7763 4.58139 12.7607 4.52967 12.7607C4.47795 12.7607 4.40103 12.776 4.32729 12.8506C4.2074 12.9718 3.88912 13.2935 3.78567 17.6307C3.7435 19.3853 3.75437 21.1048 3.75941 21.6496H0.369922L0.698819 13.9426C1.00809 13.8802 1.72795 13.6821 2.16135 13.1381C2.6096 12.575 2.62658 11.3469 2.61544 10.8777H6.4439C6.43276 11.3469 6.45 12.575 6.89825 13.1381C7.33139 13.6821 8.05125 13.8802 8.36052 13.9426L8.68968 21.6496H5.29992Z" fill="#333333"/>
</g>
<path d="M3.021 5.37987V7.47659C3.021 7.53388 3.04911 7.58746 3.09606 7.62008L4.42915 8.54656C4.45939 8.56752 4.49413 8.57786 4.52915 8.57786C4.56416 8.57786 4.59917 8.56752 4.62914 8.54656L5.96223 7.62008C6.00918 7.58746 6.0373 7.53388 6.0373 7.47659V5.37987C6.0373 5.28332 5.95905 5.20508 5.86224 5.20508H3.19605C3.09951 5.20508 3.021 5.28332 3.021 5.37987ZM3.37111 5.5544H5.68718V7.38534L4.52915 8.19035L3.37111 7.38534V5.5544Z" fill="#333333"/>
<path d="M2.95745 4.95428C3.2494 4.95428 3.48668 4.71727 3.48668 4.42611C3.48668 4.13469 3.2494 3.89795 2.95745 3.89795C2.66576 3.89795 2.42822 4.13469 2.42822 4.42611C2.42822 4.71727 2.66576 4.95428 2.95745 4.95428ZM2.95745 4.24749C3.05618 4.24749 3.13634 4.32765 3.13634 4.42611C3.13634 4.52458 3.05618 4.60447 2.95745 4.60447C2.85898 4.60447 2.77856 4.52458 2.77856 4.42611C2.77856 4.32765 2.85898 4.24749 2.95745 4.24749Z" fill="#333333"/>
<path d="M6.10247 4.95428C6.39415 4.95428 6.63143 4.71727 6.63143 4.42611C6.63143 4.13469 6.39415 3.89795 6.10247 3.89795C5.81052 3.89795 5.57324 4.13469 5.57324 4.42611C5.57324 4.71727 5.81052 4.95428 6.10247 4.95428ZM6.10247 4.24749C6.20094 4.24749 6.28109 4.32765 6.28109 4.42611C6.28109 4.52458 6.20094 4.60447 6.10247 4.60447C6.00374 4.60447 5.92358 4.52458 5.92358 4.42611C5.92358 4.32765 6.00374 4.24749 6.10247 4.24749Z" fill="#333333"/>
</svg>
