<svg width="12" height="19" viewBox="0 0 12 19" fill="none" xmlns="http://www.w3.org/2000/svg">
<mask id="mask0_151_3951" style="mask-type:luminance" maskUnits="userSpaceOnUse" x="0" y="0" width="12" height="19">
<path d="M0 0H11.2874V18.2302H0V0Z" fill="white"/>
</mask>
<g mask="url(#mask0_151_3951)">
<path d="M11.1933 7.40871C10.1378 6.91578 9.80903 6.41597 9.80903 4.24967V0.267137C9.80903 0.152888 9.7163 0.0601576 9.60227 0.0601576H8.63525C8.60664 0.0452941 8.57514 0.0344238 8.54097 0.0344238C8.42672 0.0344238 8.33421 0.127154 8.33421 0.241625C8.33421 1.71888 7.13426 2.92127 5.65923 2.92127C4.18397 2.92127 2.98402 1.71932 2.98402 0.241625C2.98402 0.127154 2.89151 0.0344238 2.77726 0.0344238C2.74132 0.0344238 2.70871 0.0459597 2.67943 0.0625979L1.72794 0.0601576C1.69201 0.0630416 1.62057 0.0816764 1.58153 0.120721C1.54226 0.159543 1.52074 0.21212 1.52074 0.267137V4.24967C1.52074 6.41597 1.19219 6.91578 0.136663 7.40871C0.0638988 7.44266 0.0170898 7.51586 0.0170898 7.59639V18.0106C0.0170898 18.1251 0.109599 18.2178 0.223848 18.2178H5.65945C5.66322 18.2178 5.66699 18.2178 5.67032 18.2178H11.1057C11.2197 18.2178 11.3122 18.1251 11.3122 18.0106V7.59639C11.3127 7.51586 11.2665 7.44266 11.1933 7.40871ZM5.65945 3.33545C6.80305 3.33545 7.8009 2.70852 8.33466 1.78144V2.41613C8.33466 3.89339 7.13471 5.09578 5.65945 5.09578C4.18441 5.09578 2.98446 3.89383 2.98446 2.41613V1.78144C3.51866 2.70897 4.51674 3.33545 5.65945 3.33545ZM10.8994 17.8036H5.67076C5.66699 17.8036 5.66322 17.8036 5.65989 17.8036H0.430606V7.72684C1.62124 7.13496 1.93426 6.38602 1.93426 4.24967V0.475226L2.57139 0.476779V2.41613C2.57139 4.12211 3.95703 5.50996 5.65989 5.50996C7.36298 5.50996 8.74839 4.12211 8.74839 2.41613V0.474339H9.39596V4.24967C9.39596 6.38557 9.70898 7.13452 10.8996 7.72684V17.8036H10.8994Z" fill="#414042"/>
</g>
</svg>
