<svg width="17" height="17" viewBox="0 0 17 17" fill="none" xmlns="http://www.w3.org/2000/svg">
<mask id="mask0_151_3996" style="mask-type:luminance" maskUnits="userSpaceOnUse" x="0" y="0" width="17" height="17">
<path d="M0 0H17V16.3704H0V0Z" fill="white"/>
</mask>
<g mask="url(#mask0_151_3996)">
<path d="M16.978 15.281C16.9803 15.2771 16.9829 15.2734 16.985 15.2693C16.9868 15.2654 16.988 15.2613 16.9897 15.2574C16.9913 15.2529 16.9934 15.2486 16.9946 15.2441C16.9958 15.2394 16.9965 15.2343 16.9971 15.2293C16.9979 15.2254 16.9989 15.2215 16.9991 15.2174C16.9995 15.2105 16.9991 15.2033 16.9985 15.1961C16.9985 15.1941 16.9987 15.192 16.9985 15.19C16.9985 15.1898 16.9983 15.1896 16.9983 15.1894C16.9983 15.1892 16.9983 15.189 16.9983 15.1888C16.952 14.8202 16.9014 14.4298 16.8386 13.9602C16.8386 13.96 16.8386 13.9596 16.8386 13.9594C16.8386 13.9592 16.8386 13.959 16.8384 13.9588C16.573 11.9666 16.2682 9.96254 15.9327 8.00253C15.7638 7.01546 15.5824 6.01178 15.3935 5.01958C15.3935 5.01917 15.3935 5.01897 15.3933 5.01856C15.3933 5.01835 15.3933 5.01835 15.3933 5.01815C15.1586 3.78574 14.9059 2.53775 14.6423 1.30841C14.5558 0.905878 14.4679 0.503546 14.3808 0.112282C14.3804 0.110233 14.3796 0.108388 14.3789 0.106338C14.3777 0.101624 14.3761 0.0973202 14.3744 0.0928112C14.3728 0.0885071 14.3711 0.0842029 14.3691 0.0803087C14.367 0.0762096 14.3648 0.0723154 14.3623 0.0686262C14.3599 0.064527 14.3572 0.0608378 14.3545 0.0571485C14.3519 0.0536642 14.349 0.0505899 14.3459 0.0475155C14.3429 0.0440313 14.3396 0.0407519 14.3361 0.0376776C14.3328 0.0348081 14.3293 0.0321437 14.3259 0.0296842C14.3222 0.0270198 14.3185 0.0245603 14.3146 0.0221008C14.3107 0.0198463 14.3068 0.0180016 14.3027 0.016157C14.2986 0.0143124 14.2945 0.0124678 14.2902 0.0110331C14.2861 0.00959843 14.2818 0.00836863 14.2775 0.00734385C14.273 0.00631908 14.2685 0.00529424 14.2638 0.00467941C14.2594 0.00406452 14.2551 0.00385956 14.2508 0.00365462C14.2459 0.00344967 14.2408 0.00324473 14.2359 0.00365462C14.2338 0.00385956 14.232 0.00344967 14.2299 0.00365462C12.5251 0.184017 10.7887 0.284447 9.06931 0.302278C8.8541 0.304532 8.67415 0.305557 8.50342 0.305557C8.50219 0.305557 8.50096 0.305557 8.49973 0.305557C6.59567 0.305352 4.6701 0.203898 2.77649 0.00365462C2.77444 0.00344967 2.77239 0.00385956 2.77034 0.00365462C2.76543 0.00344967 2.76071 0.00344967 2.756 0.00365462C2.75128 0.00365462 2.74677 0.00406452 2.74226 0.00467941C2.73796 0.00529424 2.73366 0.00611408 2.72935 0.00734385C2.72464 0.00836863 2.72013 0.00959843 2.71583 0.0110331C2.71173 0.0124678 2.70783 0.0143124 2.70394 0.0159521C2.69984 0.0180017 2.69553 0.0200512 2.69164 0.0223058C2.68775 0.0245603 2.68426 0.0270198 2.68078 0.0294793C2.67709 0.0321437 2.6734 0.0348082 2.67012 0.0378825C2.66664 0.040752 2.66356 0.0438263 2.66049 0.0471056C2.65741 0.0503849 2.65454 0.0536642 2.65167 0.0573535C2.64901 0.0608378 2.64655 0.064527 2.64409 0.0684212C2.64163 0.0723154 2.63938 0.0762096 2.63733 0.0805137C2.63528 0.0844079 2.63364 0.088507 2.632 0.0926062C2.63036 0.0971152 2.62872 0.101829 2.62749 0.106543C2.62687 0.108593 2.62605 0.110233 2.62544 0.112282C2.53854 0.503546 2.45061 0.905878 2.36432 1.30841C2.10054 2.53754 1.84783 3.78574 1.61315 5.01815C1.61315 5.01835 1.61315 5.01856 1.61315 5.01856C1.61295 5.01897 1.61295 5.01938 1.61295 5.01958C1.42398 6.01178 1.24259 7.01546 1.0735 8.00253C0.73819 9.96275 0.433418 11.9662 0.167998 13.9576C0.167998 13.9578 0.167998 13.958 0.167998 13.9582C0.167998 13.9584 0.167998 13.9588 0.167793 13.9592C0.104871 14.4321 0.0540415 14.8231 0.00792605 15.19C-0.000272256 15.2554 0.0384647 15.3177 0.100772 15.3394C1.15446 15.7061 2.24668 15.9787 3.34689 16.1496C4.28662 16.2953 5.23865 16.3687 6.1917 16.3687C6.67048 16.3687 7.14988 16.35 7.62763 16.3132C7.69199 16.308 7.74466 16.2597 7.75471 16.1959L7.94819 14.9865L8.33043 12.595L8.46591 11.7485C8.61717 11.7205 8.76843 11.6924 8.91989 11.6641C9.21216 11.6094 9.50382 11.5542 9.79465 11.4989C9.87028 11.4846 9.92008 11.4114 9.90574 11.3356C9.89119 11.2597 9.81843 11.2101 9.74239 11.2245C9.45196 11.2796 9.16072 11.3347 8.86865 11.3893C8.68501 11.4237 8.50137 11.4579 8.31814 11.4917C8.31691 11.4919 8.31588 11.4926 8.31465 11.4928C8.30953 11.494 8.30461 11.4956 8.29949 11.4973C8.29559 11.4985 8.2917 11.4997 8.28801 11.5014C8.2837 11.5032 8.27981 11.5055 8.27571 11.5077C8.27182 11.51 8.26792 11.512 8.26423 11.5145C8.26054 11.5171 8.25726 11.52 8.25398 11.5229C8.2505 11.5258 8.24702 11.5286 8.24394 11.5317C8.24066 11.535 8.238 11.5387 8.23513 11.5424C8.23226 11.5456 8.22959 11.5489 8.22713 11.5526C8.22468 11.5563 8.22263 11.5604 8.22058 11.5645C8.21853 11.5684 8.21627 11.5725 8.21443 11.5766C8.21299 11.5805 8.21197 11.5846 8.21074 11.5887C8.2091 11.5934 8.20766 11.5983 8.20664 11.6034C8.20643 11.6047 8.20602 11.6059 8.20582 11.6071L8.05477 12.551L7.68994 14.8336C6.45097 14.9299 5.20073 14.8955 3.97201 14.7301C2.77854 14.5696 1.59758 14.2847 0.459857 13.8836C0.721178 11.9322 1.02001 9.97013 1.34876 8.04988C1.51108 7.10113 1.6853 6.13721 1.86628 5.18273C2.25283 5.16981 2.62872 5.10259 2.98452 4.98125C4.31962 4.52584 5.36859 3.31925 5.80843 1.74169C6.70614 1.78576 7.61103 1.80851 8.49973 1.80872C8.63398 1.80872 8.77376 1.8079 8.93116 1.80667V5.17596H8.22918V2.33484C8.22918 2.25778 8.16667 2.19506 8.08961 2.19506C8.01254 2.19506 7.95003 2.25778 7.95003 2.33484V5.31574C7.95003 5.39301 8.01254 5.45553 8.08961 5.45553H9.07074C9.1478 5.45553 9.21032 5.39301 9.21032 5.31574V1.80318C9.8711 1.79457 10.538 1.77387 11.198 1.74149C11.6376 3.31905 12.6866 4.52584 14.0219 4.98125C14.3777 5.10259 14.7534 5.16981 15.1401 5.18273C15.3211 6.13721 15.4953 7.10113 15.6577 8.04988C15.9862 9.96992 16.2852 11.9324 16.5468 13.8846C15.4132 14.2833 14.2365 14.5665 13.0475 14.7266C11.8188 14.8918 10.569 14.9264 9.33022 14.8301L8.94449 12.3431C8.9326 12.2669 8.86127 12.2144 8.78503 12.2265C8.70899 12.2384 8.65673 12.3097 8.66861 12.386L9.07135 14.9824C9.07135 14.9826 9.07156 14.9826 9.07156 14.9828V14.983L9.25561 16.1344C9.25295 16.1434 9.2511 16.1531 9.25028 16.1629C9.24434 16.24 9.30193 16.3072 9.37879 16.3132C9.85655 16.35 10.3357 16.3687 10.8147 16.3687C11.7678 16.3687 12.72 16.2953 13.6595 16.1496C14.7593 15.9787 15.8511 15.7063 16.9046 15.3398C16.9048 15.3398 16.905 15.3396 16.9052 15.3396C16.9054 15.3396 16.9057 15.3394 16.9059 15.3394C16.9079 15.3386 16.9098 15.3373 16.912 15.3365C16.9184 15.3339 16.9247 15.3312 16.9307 15.3279C16.9341 15.3257 16.9372 15.323 16.9407 15.3207C16.9446 15.3179 16.9489 15.3152 16.9526 15.3119C16.9561 15.3089 16.9589 15.3052 16.962 15.3017C16.9649 15.2986 16.9682 15.2955 16.9708 15.2921C16.9735 15.2886 16.9755 15.2847 16.978 15.281ZM6.32144 15.1666C6.76292 15.1666 7.2044 15.1494 7.64465 15.1168L7.49667 16.0426C6.12509 16.1406 4.74409 16.0836 3.38973 15.8733C2.34321 15.7108 1.30408 15.4548 0.299171 15.1123C0.335653 14.8241 0.375415 14.5175 0.42194 14.1664C1.56089 14.5638 2.74165 14.8467 3.93491 15.0072C4.72441 15.1133 5.52272 15.1666 6.32144 15.1666ZM11.2966 1.45701C11.2964 1.45701 11.2962 1.45701 11.296 1.45701C10.6044 1.49267 9.90369 1.5146 9.21032 1.52362V0.57938C10.8518 0.55827 12.5071 0.46235 14.1352 0.294079C14.2023 0.597007 14.2697 0.905468 14.3365 1.21536C13.3308 1.32358 12.3091 1.40515 11.2966 1.45701ZM2.89455 4.71665C2.58404 4.82262 2.25693 4.8841 1.92018 4.90112C2.13744 3.76688 2.36924 2.62117 2.61109 1.49001C3.57419 1.59433 4.55184 1.67365 5.52251 1.72673C5.09805 3.18583 4.12532 4.2969 2.89455 4.71665ZM5.71026 1.45701H5.71005C4.69756 1.40515 3.67564 1.32358 2.66991 1.21536C2.73653 0.905673 2.80396 0.597212 2.87118 0.294284C4.73466 0.486945 6.62744 0.584914 8.49973 0.585119C8.50096 0.585119 8.50219 0.585119 8.50342 0.585119C8.63623 0.585119 8.77499 0.584504 8.93116 0.58307V1.5271C8.77376 1.52854 8.63377 1.52915 8.49973 1.52915C7.57865 1.52915 6.64015 1.50476 5.71026 1.45701ZM11.4839 1.72673C12.4546 1.67365 13.4322 1.59433 14.3953 1.49001C14.6372 2.62117 14.869 3.76688 15.0862 4.90112C14.7493 4.8841 14.4224 4.82262 14.1119 4.71665C12.8811 4.2969 11.9084 3.18583 11.4839 1.72673ZM13.6167 15.8733C12.2668 16.083 10.8906 16.1398 9.5237 16.043L9.3751 15.1131C9.81515 15.1457 10.2566 15.1629 10.6981 15.1629C11.4966 15.1629 12.2951 15.1098 13.0848 15.0035C14.2734 14.8436 15.4498 14.5624 16.5847 14.1675C16.631 14.5169 16.6706 14.8227 16.7073 15.1119C15.7023 15.4546 14.6632 15.7108 13.6167 15.8733Z" fill="black"/>
<path d="M16.978 15.281C16.9803 15.2771 16.9829 15.2734 16.985 15.2693C16.9868 15.2654 16.988 15.2613 16.9897 15.2574C16.9913 15.2529 16.9934 15.2486 16.9946 15.2441C16.9958 15.2394 16.9965 15.2343 16.9971 15.2293C16.9979 15.2254 16.9989 15.2215 16.9991 15.2174C16.9995 15.2105 16.9991 15.2033 16.9985 15.1961C16.9985 15.1941 16.9987 15.192 16.9985 15.19C16.9985 15.1898 16.9983 15.1896 16.9983 15.1894C16.9983 15.1892 16.9983 15.189 16.9983 15.1888C16.952 14.8202 16.9014 14.4298 16.8386 13.9602C16.8386 13.96 16.8386 13.9596 16.8386 13.9594C16.8386 13.9592 16.8386 13.959 16.8384 13.9588C16.573 11.9666 16.2682 9.96254 15.9327 8.00253C15.7638 7.01546 15.5824 6.01178 15.3935 5.01958C15.3935 5.01917 15.3935 5.01897 15.3933 5.01856C15.3933 5.01835 15.3933 5.01835 15.3933 5.01815C15.1586 3.78574 14.9059 2.53775 14.6423 1.30841C14.5558 0.905878 14.4679 0.503546 14.3808 0.112282C14.3804 0.110233 14.3796 0.108388 14.3789 0.106338C14.3777 0.101624 14.3761 0.0973202 14.3744 0.0928112C14.3728 0.0885071 14.3711 0.0842029 14.3691 0.0803087C14.367 0.0762096 14.3648 0.0723154 14.3623 0.0686262C14.3599 0.064527 14.3572 0.0608378 14.3545 0.0571485C14.3519 0.0536642 14.349 0.0505899 14.3459 0.0475155C14.3429 0.0440313 14.3396 0.0407519 14.3361 0.0376776C14.3328 0.0348081 14.3293 0.0321437 14.3259 0.0296842C14.3222 0.0270198 14.3185 0.0245603 14.3146 0.0221008C14.3107 0.0198463 14.3068 0.0180016 14.3027 0.016157C14.2986 0.0143124 14.2945 0.0124678 14.2902 0.0110331C14.2861 0.00959843 14.2818 0.00836863 14.2775 0.00734385C14.273 0.00631908 14.2685 0.00529424 14.2638 0.00467941C14.2594 0.00406452 14.2551 0.00385956 14.2508 0.00365462C14.2459 0.00344967 14.2408 0.00324473 14.2359 0.00365462C14.2338 0.00385956 14.232 0.00344967 14.2299 0.00365462C12.5251 0.184017 10.7887 0.284447 9.06931 0.302278C8.8541 0.304532 8.67415 0.305557 8.50342 0.305557C8.50219 0.305557 8.50096 0.305557 8.49973 0.305557C6.59567 0.305352 4.6701 0.203898 2.77649 0.00365462C2.77444 0.00344967 2.77239 0.00385956 2.77034 0.00365462C2.76543 0.00344967 2.76071 0.00344967 2.756 0.00365462C2.75128 0.00365462 2.74677 0.00406452 2.74226 0.00467941C2.73796 0.00529424 2.73366 0.00611408 2.72935 0.00734385C2.72464 0.00836863 2.72013 0.00959843 2.71583 0.0110331C2.71173 0.0124678 2.70783 0.0143124 2.70394 0.0159521C2.69984 0.0180017 2.69553 0.0200512 2.69164 0.0223058C2.68775 0.0245603 2.68426 0.0270198 2.68078 0.0294793C2.67709 0.0321437 2.6734 0.0348082 2.67012 0.0378825C2.66664 0.040752 2.66356 0.0438263 2.66049 0.0471056C2.65741 0.0503849 2.65454 0.0536642 2.65167 0.0573535C2.64901 0.0608378 2.64655 0.064527 2.64409 0.0684212C2.64163 0.0723154 2.63938 0.0762096 2.63733 0.0805137C2.63528 0.0844079 2.63364 0.088507 2.632 0.0926062C2.63036 0.0971152 2.62872 0.101829 2.62749 0.106543C2.62687 0.108593 2.62605 0.110233 2.62544 0.112282C2.53854 0.503546 2.45061 0.905878 2.36432 1.30841C2.10054 2.53754 1.84783 3.78574 1.61315 5.01815C1.61315 5.01835 1.61315 5.01856 1.61315 5.01856C1.61295 5.01897 1.61295 5.01938 1.61295 5.01958C1.42398 6.01178 1.24259 7.01546 1.0735 8.00253C0.73819 9.96275 0.433418 11.9662 0.167998 13.9576C0.167998 13.9578 0.167998 13.958 0.167998 13.9582C0.167998 13.9584 0.167998 13.9588 0.167793 13.9592C0.104871 14.4321 0.0540415 14.8231 0.00792605 15.19C-0.000272256 15.2554 0.0384647 15.3177 0.100772 15.3394C1.15446 15.7061 2.24668 15.9787 3.34689 16.1496C4.28662 16.2953 5.23865 16.3687 6.1917 16.3687C6.67048 16.3687 7.14988 16.35 7.62763 16.3132C7.69199 16.308 7.74466 16.2597 7.75471 16.1959L7.94819 14.9865L8.33043 12.595L8.46591 11.7485C8.61717 11.7205 8.76843 11.6924 8.91989 11.6641C9.21216 11.6094 9.50382 11.5542 9.79465 11.4989C9.87028 11.4846 9.92008 11.4114 9.90574 11.3356C9.89119 11.2597 9.81843 11.2101 9.74239 11.2245C9.45196 11.2796 9.16072 11.3347 8.86865 11.3893C8.68501 11.4237 8.50137 11.4579 8.31814 11.4917C8.31691 11.4919 8.31588 11.4926 8.31465 11.4928C8.30953 11.494 8.30461 11.4956 8.29949 11.4973C8.29559 11.4985 8.2917 11.4997 8.28801 11.5014C8.2837 11.5032 8.27981 11.5055 8.27571 11.5077C8.27182 11.51 8.26792 11.512 8.26423 11.5145C8.26054 11.5171 8.25726 11.52 8.25398 11.5229C8.2505 11.5258 8.24702 11.5286 8.24394 11.5317C8.24066 11.535 8.238 11.5387 8.23513 11.5424C8.23226 11.5456 8.22959 11.5489 8.22713 11.5526C8.22468 11.5563 8.22263 11.5604 8.22058 11.5645C8.21853 11.5684 8.21627 11.5725 8.21443 11.5766C8.21299 11.5805 8.21197 11.5846 8.21074 11.5887C8.2091 11.5934 8.20766 11.5983 8.20664 11.6034C8.20643 11.6047 8.20602 11.6059 8.20582 11.6071L8.05477 12.551L7.68994 14.8336C6.45097 14.9299 5.20073 14.8955 3.97201 14.7301C2.77854 14.5696 1.59758 14.2847 0.459857 13.8836C0.721178 11.9322 1.02001 9.97013 1.34876 8.04988C1.51108 7.10113 1.6853 6.13721 1.86628 5.18273C2.25283 5.16981 2.62872 5.10259 2.98452 4.98125C4.31962 4.52584 5.36859 3.31925 5.80843 1.74169C6.70614 1.78576 7.61103 1.80851 8.49973 1.80872C8.63398 1.80872 8.77376 1.8079 8.93116 1.80667V5.17596H8.22918V2.33484C8.22918 2.25778 8.16667 2.19506 8.08961 2.19506C8.01254 2.19506 7.95003 2.25778 7.95003 2.33484V5.31574C7.95003 5.39301 8.01254 5.45553 8.08961 5.45553H9.07074C9.1478 5.45553 9.21032 5.39301 9.21032 5.31574V1.80318C9.8711 1.79457 10.538 1.77387 11.198 1.74149C11.6376 3.31905 12.6866 4.52584 14.0219 4.98125C14.3777 5.10259 14.7534 5.16981 15.1401 5.18273C15.3211 6.13721 15.4953 7.10113 15.6577 8.04988C15.9862 9.96992 16.2852 11.9324 16.5468 13.8846C15.4132 14.2833 14.2365 14.5665 13.0475 14.7266C11.8188 14.8918 10.569 14.9264 9.33022 14.8301L8.94449 12.3431C8.9326 12.2669 8.86127 12.2144 8.78503 12.2265C8.70899 12.2384 8.65673 12.3097 8.66861 12.386L9.07135 14.9824C9.07135 14.9826 9.07156 14.9826 9.07156 14.9828V14.983L9.25561 16.1344C9.25295 16.1434 9.2511 16.1531 9.25028 16.1629C9.24434 16.24 9.30193 16.3072 9.37879 16.3132C9.85655 16.35 10.3357 16.3687 10.8147 16.3687C11.7678 16.3687 12.72 16.2953 13.6595 16.1496C14.7593 15.9787 15.8511 15.7063 16.9046 15.3398C16.9048 15.3398 16.905 15.3396 16.9052 15.3396C16.9054 15.3396 16.9057 15.3394 16.9059 15.3394C16.9079 15.3386 16.9098 15.3373 16.912 15.3365C16.9184 15.3339 16.9247 15.3312 16.9307 15.3279C16.9341 15.3257 16.9372 15.323 16.9407 15.3207C16.9446 15.3179 16.9489 15.3152 16.9526 15.3119C16.9561 15.3089 16.9589 15.3052 16.962 15.3017C16.9649 15.2986 16.9682 15.2955 16.9708 15.2921C16.9735 15.2886 16.9755 15.2847 16.978 15.281ZM6.32144 15.1666C6.76292 15.1666 7.2044 15.1494 7.64465 15.1168L7.49667 16.0426C6.12509 16.1406 4.74409 16.0836 3.38973 15.8733C2.34321 15.7108 1.30408 15.4548 0.299171 15.1123C0.335653 14.8241 0.375415 14.5175 0.42194 14.1664C1.56089 14.5638 2.74165 14.8467 3.93491 15.0072C4.72441 15.1133 5.52272 15.1666 6.32144 15.1666ZM11.2966 1.45701C11.2964 1.45701 11.2962 1.45701 11.296 1.45701C10.6044 1.49267 9.90369 1.5146 9.21032 1.52362V0.57938C10.8518 0.55827 12.5071 0.46235 14.1352 0.294079C14.2023 0.597007 14.2697 0.905468 14.3365 1.21536C13.3308 1.32358 12.3091 1.40515 11.2966 1.45701ZM2.89455 4.71665C2.58404 4.82262 2.25693 4.8841 1.92018 4.90112C2.13744 3.76688 2.36924 2.62117 2.61109 1.49001C3.57419 1.59433 4.55184 1.67365 5.52251 1.72673C5.09805 3.18583 4.12532 4.2969 2.89455 4.71665ZM5.71026 1.45701H5.71005C4.69756 1.40515 3.67564 1.32358 2.66991 1.21536C2.73653 0.905673 2.80396 0.597212 2.87118 0.294284C4.73466 0.486945 6.62744 0.584914 8.49973 0.585119C8.50096 0.585119 8.50219 0.585119 8.50342 0.585119C8.63623 0.585119 8.77499 0.584504 8.93116 0.58307V1.5271C8.77376 1.52854 8.63377 1.52915 8.49973 1.52915C7.57865 1.52915 6.64015 1.50476 5.71026 1.45701ZM11.4839 1.72673C12.4546 1.67365 13.4322 1.59433 14.3953 1.49001C14.6372 2.62117 14.869 3.76688 15.0862 4.90112C14.7493 4.8841 14.4224 4.82262 14.1119 4.71665C12.8811 4.2969 11.9084 3.18583 11.4839 1.72673ZM13.6167 15.8733C12.2668 16.083 10.8906 16.1398 9.5237 16.043L9.3751 15.1131C9.81515 15.1457 10.2566 15.1629 10.6981 15.1629C11.4966 15.1629 12.2951 15.1098 13.0848 15.0035C14.2734 14.8436 15.4498 14.5624 16.5847 14.1675C16.631 14.5169 16.6706 14.8227 16.7073 15.1119C15.7023 15.4546 14.6632 15.7108 13.6167 15.8733Z" fill="black"/>
</g>
</svg>
