<svg width="15" height="15" viewBox="0 0 15 15" fill="none" xmlns="http://www.w3.org/2000/svg">
<mask id="mask0_151_3912" style="mask-type:luminance" maskUnits="userSpaceOnUse" x="0" y="0" width="15" height="15">
<path d="M0 0H15V14.1841H0V0Z" fill="white"/>
</mask>
<g mask="url(#mask0_151_3912)">
<path d="M2.7802 6.10291C2.82296 6.04887 2.86336 5.99282 2.9023 5.93732C2.52926 5.68129 2.10419 5.52553 1.71951 5.28988C1.32937 5.05095 0.936497 4.81767 0.5318 4.60258C0.523975 4.59967 0.517606 4.59567 0.510873 4.59185C0.508872 4.58985 0.507052 4.58894 0.50505 4.58839C0.465563 4.6337 0.425712 4.67901 0.384951 4.72268C1.14449 5.24893 1.96753 5.66764 2.7802 6.10291ZM3.6289 4.91703C3.63072 3.69893 3.47604 2.44826 2.69304 1.55753C2.30654 2.17276 1.78938 2.68446 1.39651 3.29387C1.16359 3.65326 0.944685 4.02411 0.686473 4.36439C1.13138 4.6044 1.55264 4.88591 1.99719 5.12483C2.35312 5.31626 2.72615 5.46766 3.05879 5.69931C3.23093 5.42617 3.39489 5.14831 3.6289 4.91703ZM8.44669 0.317598C8.08675 0.382742 7.73465 0.507936 7.36598 0.492833C7.059 0.480641 6.76184 0.425141 6.46232 0.36964C6.91615 0.923188 7.91898 0.794172 8.44669 0.317598ZM8.95729 0.355447C8.91453 0.342891 8.87067 0.332701 8.82736 0.320873C8.19175 1.1612 6.62628 1.31751 6.10185 0.323967C6.03233 0.344893 5.96428 0.368731 5.89713 0.392932C6.11986 1.03219 6.77895 1.41541 7.45787 1.39139C8.16646 1.36664 8.66159 0.964131 8.95729 0.355447ZM12.1306 1.3974C12.1224 1.4065 11.5019 1.11298 11.4397 1.08914C11.0161 0.923188 10.5794 0.787257 10.141 0.668068C9.96703 0.621848 9.77833 0.603834 9.61037 0.543966C9.57198 0.529773 9.26118 0.39548 9.23443 0.4417C8.83519 1.1612 8.2185 1.74878 7.33577 1.6718C7.17291 1.65779 7.00805 1.62959 6.85192 1.58428C6.294 1.4236 5.80615 1.04638 5.63837 0.475728C5.55721 0.489921 5.47933 0.531774 5.39617 0.548879C5.38162 0.551791 5.3676 0.551791 5.3545 0.550335C4.52273 0.769789 3.69695 1.00453 2.92796 1.3974C3.58504 2.17276 3.80977 3.25693 3.88365 4.24665C3.99174 5.7095 3.80595 7.19035 3.80595 8.65665C3.80595 9.4322 3.88074 10.2052 3.75682 10.974C3.63472 11.7197 3.70915 12.4909 3.55393 13.2308C3.49606 13.501 4.25778 13.7134 4.41773 13.7512C4.75091 13.8302 5.09138 13.87 5.43566 13.8768C6.80188 13.9032 8.17483 13.9133 9.53941 13.8782C9.90716 13.8691 10.284 13.852 10.639 13.7523C10.8088 13.7041 11.552 13.5137 11.5048 13.2308C11.3749 12.4301 11.3891 11.6156 11.2767 10.811C11.176 10.0988 11.2548 9.37434 11.2528 8.65665C11.2461 7.20164 11.0472 5.69439 11.176 4.24665C11.2641 3.25256 11.4697 2.17822 12.1306 1.3974ZM14.2749 4.31817C14.0091 3.95023 13.7882 3.55099 13.5154 3.1805C13.1253 2.64843 12.6774 2.16203 12.3242 1.60466C11.533 2.54325 11.4129 3.85906 11.4337 5.1161C11.5125 5.33027 11.6877 5.55628 11.8686 5.75772C11.8695 5.75772 11.8706 5.75717 11.8715 5.75717C12.7377 5.42235 13.5811 4.93886 14.2749 4.31817ZM14.6049 4.72177C14.5499 4.66391 14.4979 4.6044 14.4473 4.54363C13.7542 5.15704 12.9322 5.63362 12.0739 5.97881C12.1175 6.02448 12.1594 6.06779 12.1978 6.10782C13.0145 5.67056 13.8411 5.25094 14.6049 4.72177ZM14.9229 4.64298C14.9939 4.71158 14.9666 4.81476 14.8936 4.8668C14.062 5.46621 13.1433 5.92185 12.2416 6.40716C12.1876 6.43682 12.1146 6.433 12.0695 6.38478C11.8977 6.1979 11.6517 5.95242 11.4499 5.68657C11.4619 6.01375 11.4796 6.33128 11.4917 6.63298C11.533 7.79904 11.515 8.95763 11.5078 10.1226C11.5028 10.619 11.643 11.0952 11.6668 11.5883C11.6939 12.173 11.6959 12.7553 11.8175 13.3307C11.8267 13.3778 11.8189 13.4348 11.7796 13.469C11.231 13.9459 10.539 14.1202 9.824 14.1525C8.66832 14.2045 7.51283 14.1392 6.35824 14.1646C5.29755 14.1885 4.12876 14.2141 3.27916 13.469C3.23985 13.4348 3.23203 13.3778 3.24131 13.3307C3.37596 12.6963 3.32683 12.062 3.40508 11.4242C3.46877 10.9253 3.56175 10.4449 3.54374 9.93953C3.5068 8.8368 3.52572 7.73462 3.56703 6.63298C3.58304 6.23193 3.60888 5.80048 3.62198 5.35812C3.37014 5.68766 3.19017 6.06779 2.91831 6.38478C2.875 6.43391 2.80003 6.43591 2.74617 6.40716C1.84452 5.92185 0.925761 5.46621 0.0939843 4.8668C0.021015 4.81476 -0.00609821 4.71158 0.0648694 4.64298C0.591667 4.14057 0.883908 3.48093 1.31972 2.91028C1.73061 2.37238 2.18826 1.87106 2.52926 1.28239C2.56129 1.22653 2.61424 1.20851 2.66392 1.21616C2.66738 1.21324 2.6712 1.21033 2.6752 1.20742C3.59287 0.7172 4.5966 0.454802 5.59761 0.193495C5.59852 0.194405 5.59961 0.194951 5.60052 0.195861C5.77612 0.137449 5.94626 0.0668455 6.12532 0.0215354C6.16899 0.0104354 6.20593 0.0186239 6.23523 0.0375486C6.23705 0.0386405 6.24014 0.0406421 6.24305 0.0415519C6.66613 0.115613 7.10777 0.248996 7.54103 0.201684C7.92571 0.160741 8.29147 0.0328174 8.6776 0.000609088C8.71018 -0.0023024 8.73656 0.00552222 8.75749 0.0177141C8.77241 0.0166223 8.78951 0.0177141 8.80553 0.0215354C10.0142 0.307771 11.2801 0.618937 12.3836 1.20742C12.4065 1.21961 12.4205 1.23417 12.4327 1.25037C12.4425 1.25946 12.4516 1.2702 12.4585 1.28239C12.8272 1.91965 13.3544 2.42843 13.7609 3.03638C14.1272 3.58702 14.4389 4.18151 14.9229 4.64298Z" fill="black"/>
</g>
</svg>
