<svg width="13" height="22" viewBox="0 0 13 22" fill="none" xmlns="http://www.w3.org/2000/svg">
<mask id="mask0_151_4008" style="mask-type:luminance" maskUnits="userSpaceOnUse" x="0" y="0" width="13" height="22">
<path d="M0 0H12.358V22H0V0Z" fill="white"/>
</mask>
<g mask="url(#mask0_151_4008)">
<path d="M12.3411 10.7759L12.1939 10.2722C12.2459 10.2149 12.2706 10.1353 12.2539 10.055L12.1687 9.64436C12.1682 9.64304 12.1682 9.64171 12.1677 9.64012L10.6441 2.29432C10.5587 1.8832 10.2542 1.5604 9.84923 1.45112L7.90051 0.924624V0.33871C7.90051 0.151717 7.7488 0 7.5618 0H4.8256C4.6386 0 4.48689 0.151717 4.48689 0.33871V1.02356C4.48689 1.25723 4.66115 1.45908 4.89191 1.49303L6.03509 1.66119V8.60356H3.72273L3.50789 6.01987L5.52556 6.52276C5.62847 6.54849 5.72794 6.47078 5.72794 6.36468V4.40403C5.72794 4.32897 5.67701 4.26399 5.6046 4.24595L3.3132 3.67489L3.29914 3.50408C3.29198 3.41708 3.21612 3.35236 3.1286 3.35952C3.04133 3.36695 2.97688 3.44334 2.98404 3.53033L3.17687 5.8464L1.95252 10.6838L1.90372 10.6639C1.89391 10.6568 1.88303 10.6499 1.87083 10.6448L0.427134 10.0555L0.479916 9.80112L1.23346 9.62765C1.41329 9.58601 1.55334 9.44278 1.59127 9.26268L2.21272 6.29147C2.25065 6.11111 2.1793 5.92332 2.03104 5.81351L1.40374 5.34722L2.02387 2.35851C2.08488 2.06489 2.30264 1.83413 2.59149 1.75588L3.96171 1.38587C4.04606 1.36333 4.09592 1.2766 4.07338 1.19225C4.05057 1.10764 3.96383 1.05804 3.87949 1.08058L2.50926 1.45059C2.10424 1.55987 1.79948 1.8832 1.7146 2.29432L0.19001 9.64012C0.189479 9.64171 0.189479 9.64304 0.188949 9.64436L0.103807 10.055C0.0870969 10.1348 0.111764 10.2149 0.163751 10.2722L0.0165433 10.7759C-0.0195292 10.8987 0.042802 11.0276 0.161099 11.0759L1.45255 11.6032C1.48279 11.6154 1.51435 11.6217 1.54644 11.6217C1.58358 11.6217 1.62071 11.6135 1.6544 11.5973C1.71779 11.5668 1.765 11.5106 1.78489 11.4432L1.91247 11.0085C1.94032 11.0191 1.96976 11.0249 1.99894 11.0249C2.0374 11.0249 2.07639 11.0159 2.11114 10.9981C2.17506 10.9658 2.22201 10.9069 2.23978 10.8374L3.25724 6.81718L3.41214 8.67704C3.41877 8.75661 3.41718 8.83751 3.40816 8.91655L3.30365 9.79608C3.14398 11.1454 3.02515 12.518 2.95195 13.8749L2.53923 21.5008C2.53234 21.6305 2.57928 21.7589 2.66841 21.8528C2.75726 21.9467 2.88272 22.0008 3.01242 22.0008H4.97068C5.21841 22.0008 5.42636 21.8072 5.44334 21.56L5.66773 18.3901C5.70433 17.871 5.75632 17.3456 5.8213 16.8294L6.17911 13.9919L6.53665 16.8294C6.60164 17.3456 6.65336 17.8705 6.69023 18.3901L6.91462 21.56C6.93239 21.8072 7.14007 22.0008 7.38754 22.0008H9.3458C9.47524 22.0008 9.60096 21.9472 9.68982 21.8528C9.77867 21.7589 9.82615 21.6305 9.81899 21.5008L9.40628 13.8749C9.33254 12.518 9.21424 11.1454 9.05431 9.79608L8.95007 8.91787C8.94052 8.83804 8.93919 8.75608 8.94609 8.67571L9.10364 6.83097L10.1174 10.8374C10.1352 10.9069 10.1821 10.9658 10.2463 10.9981C10.2813 11.0159 10.3198 11.0249 10.3582 11.0249C10.3877 11.0249 10.4168 11.0191 10.445 11.0085L10.5723 11.4432C10.5922 11.5106 10.6396 11.5666 10.7028 11.5973C10.7367 11.6135 10.7736 11.6217 10.8107 11.6217C10.8428 11.6217 10.8744 11.6154 10.9046 11.6032L12.1961 11.0759C12.3149 11.0276 12.3772 10.8984 12.3411 10.7759ZM1.3324 5.68885L1.84245 6.06735C1.89152 6.10395 1.91539 6.16628 1.90292 6.22676L1.75333 6.94051C1.67084 6.71692 1.5109 6.52356 1.29287 6.40075C1.25972 6.38219 1.22444 6.37449 1.1897 6.37556L1.3324 5.68885ZM1.50268 11.2814L0.337218 10.8058L0.451536 10.4154L1.61753 10.8889L1.50268 11.2814ZM6.95891 0.316165H7.56154C7.574 0.316165 7.58408 0.326244 7.58408 0.33871V1.02356C7.58408 1.10127 7.52573 1.16864 7.44908 1.18005L6.42154 1.33124L6.67935 0.52093C6.71834 0.398389 6.8308 0.316165 6.95891 0.316165ZM4.93806 1.18005C4.8614 1.16864 4.80305 1.10127 4.80305 1.02356V0.33871C4.80305 0.326244 4.81286 0.316165 4.8256 0.316165H5.42795C5.55633 0.316165 5.66879 0.398389 5.70752 0.52093L5.96533 1.33124L4.93806 1.18005ZM6.00936 0.425178C5.99716 0.386719 5.98071 0.350646 5.96241 0.316165H6.42525C6.40669 0.350646 6.39051 0.386719 6.37831 0.425178L6.19396 1.00526L6.00936 0.425178ZM3.7214 8.95262C3.72273 8.94174 3.72326 8.9306 3.72459 8.91973H6.03509V9.49344H3.65722L3.7214 8.95262ZM9.09144 13.8911L9.50415 21.517C9.50654 21.561 9.49115 21.6024 9.46118 21.6345C9.43094 21.6661 9.39036 21.6838 9.3466 21.6838H7.38834C7.30585 21.6838 7.23662 21.6191 7.23078 21.5369L7.00639 18.367C6.96926 17.8421 6.91701 17.3114 6.85096 16.7891L6.34303 12.7559C6.33268 12.6737 6.2608 12.6156 6.17991 12.6185C6.09901 12.6156 6.02739 12.6742 6.01732 12.7559L5.50938 16.7891C5.44334 17.3114 5.39135 17.8421 5.35395 18.367L5.12956 21.5369C5.12372 21.6191 5.0545 21.6838 4.97201 21.6838H3.01375C2.96998 21.6838 2.9294 21.6661 2.89916 21.6345C2.86893 21.6024 2.85354 21.561 2.85619 21.517L3.26678 13.8911C3.33973 12.5408 3.45776 11.1753 3.61664 9.83268L3.61929 9.81014H6.03456V10.8987C6.03456 10.9859 6.10537 11.057 6.19264 11.057C6.2799 11.057 6.35072 10.9859 6.35072 10.8987V9.81014H7.93818C8.02518 9.81014 8.09599 9.73905 8.09599 9.65205C8.09599 9.56479 8.02518 9.49397 7.93818 9.49397H6.35072V8.92026H8.63363C8.63443 8.93193 8.63523 8.94334 8.63655 8.95501L8.74106 9.83321C8.90047 11.1753 9.01823 12.5408 9.09144 13.8911ZM10.4874 10.6448C10.4752 10.6499 10.4648 10.6568 10.4542 10.6639L10.4057 10.6838L9.18666 5.86683L9.38638 3.53086C9.39355 3.4436 9.32936 3.36721 9.24236 3.35952C9.15563 3.35236 9.07871 3.41655 9.07101 3.50381L9.05616 3.6786L6.78094 4.24542C6.70826 4.26345 6.65787 4.3287 6.65787 4.4035V6.36415C6.65787 6.47025 6.75707 6.54796 6.85998 6.52223L8.85564 6.02491L8.63523 8.60303H6.35072V1.66146L7.49496 1.49303C7.65039 1.46996 7.77956 1.37155 7.84773 1.23814L9.76647 1.75641C10.0561 1.83466 10.2736 2.06542 10.3343 2.35904L11.1675 6.37582C11.1333 6.37502 11.0974 6.38272 11.0646 6.40128C10.8463 6.52409 10.6869 6.71745 10.6038 6.94104L10.4545 6.22676C10.4418 6.16681 10.4656 6.10395 10.515 6.06735L10.6609 5.95886C10.7309 5.90714 10.7457 5.80821 10.6932 5.73765C10.6412 5.66763 10.5426 5.65278 10.472 5.70503L10.3261 5.81351C10.1781 5.92332 10.107 6.11111 10.1447 6.29147L10.7659 9.26268C10.8038 9.44278 10.9439 9.58654 11.1237 9.62765L11.8772 9.80112L11.9303 10.0555L10.4874 10.6448ZM10.8553 11.2814L10.7407 10.8889L11.9067 10.4154L12.021 10.8058L10.8553 11.2814Z" fill="black"/>
</g>
</svg>
