<svg width="16" height="11" viewBox="0 0 16 11" fill="none" xmlns="http://www.w3.org/2000/svg">
<mask id="mask0_151_4002" style="mask-type:luminance" maskUnits="userSpaceOnUse" x="0" y="0" width="16" height="11">
<path d="M0 0H15.329V11H0V0Z" fill="white"/>
</mask>
<g mask="url(#mask0_151_4002)">
<path d="M15.0141 5.27025C14.8831 4.07156 14.7077 2.8616 14.4928 1.67418C14.4922 1.67141 14.4911 1.66882 14.4904 1.66605C14.4941 1.6544 14.4965 1.64221 14.4965 1.62945V0.127674C14.4965 0.0934835 14.4824 0.0607719 14.4575 0.0371159C14.4327 0.0136448 14.3995 0.00126247 14.3651 0.00311056C12.1533 0.122499 9.89892 0.183117 7.66399 0.183117C7.66103 0.183117 7.65789 0.183117 7.65512 0.183117C5.42296 0.182932 3.17158 0.122314 0.963081 0.00311056C0.928891 0.00144727 0.89544 0.0136448 0.870675 0.0371159C0.845725 0.0607719 0.83168 0.0934835 0.83168 0.127674V1.62945C0.83168 1.64221 0.834082 1.6544 0.837778 1.66605C0.837039 1.66882 0.83593 1.67141 0.835376 1.67418C0.62044 2.86141 0.445053 4.07137 0.314022 5.27025C0.136602 6.89308 0.0349558 8.54419 0.012224 10.1776C0.0112999 10.2336 0.0482623 10.2833 0.102227 10.299C1.20685 10.6183 2.34751 10.8314 3.49242 10.9323C4.01211 10.9782 4.53457 11.0011 5.0574 11.0011C5.7595 11.0011 6.46216 10.9597 7.15834 10.8773C7.22487 10.8695 7.27311 10.8107 7.26812 10.744C7.23855 10.3603 7.29714 10.0231 7.44203 9.74159C7.59616 9.44256 7.8074 9.27142 8.05209 9.07331C8.32025 8.85615 8.62409 8.61017 8.88652 8.15091C9.01348 7.92877 9.07466 7.75652 9.14525 7.55748C9.63371 6.181 9.80097 3.01333 9.84218 2.02273C11.3286 1.98004 12.8056 1.89374 14.2555 1.76474C14.4656 2.93164 14.6375 4.11998 14.7661 5.29742C14.9393 6.88088 15.0398 8.49115 15.0651 10.0857C14.0043 10.3862 12.911 10.5875 11.8138 10.6841C10.6518 10.7865 9.47551 10.7727 8.31545 10.6431C8.3282 10.2615 8.25853 9.9203 8.10772 9.62756C8.0763 9.56638 8.00108 9.54236 7.93991 9.57378C7.87855 9.60538 7.85453 9.68041 7.88595 9.74159C8.03102 10.0231 8.08942 10.3603 8.06004 10.744C8.05505 10.8107 8.10329 10.8695 8.16982 10.8773C8.86619 10.9597 9.56847 11.0011 10.2708 11.0011C10.7934 11.0011 11.3161 10.9782 11.8357 10.9323C12.9805 10.8314 14.1211 10.6183 15.2259 10.299C15.2799 10.2833 15.3167 10.2336 15.3159 10.1776C15.2932 8.54401 15.1916 6.89308 15.0141 5.27025ZM1.08118 0.259075C3.25179 0.373843 5.46269 0.432059 7.65493 0.432244C7.65807 0.432244 7.66085 0.432244 7.66399 0.432244C9.859 0.432244 12.073 0.374028 14.247 0.259075V1.51543C12.1096 1.70615 9.91204 1.80336 7.71315 1.80484C5.48173 1.80577 3.2505 1.70892 1.08118 1.51543V0.259075ZM7.22025 9.62756C7.06963 9.9203 6.99996 10.2615 7.01271 10.6431C5.85265 10.7727 4.67632 10.7865 3.51441 10.6841C2.417 10.5875 1.32365 10.3862 0.263014 10.0857C0.288333 8.49133 0.388686 6.88088 0.561854 5.29742C0.690668 4.11961 0.862543 2.93145 1.07267 1.76474C2.52271 1.89374 3.99954 1.98004 5.48598 2.02273C5.52719 3.01314 5.69426 6.18045 6.18272 7.55748C6.2535 7.75652 6.31449 7.92858 6.44146 8.15091C6.6575 8.52867 6.90219 8.76171 7.11325 8.93969C7.16832 8.98608 7.22303 9.03043 7.27588 9.07331C7.3487 9.13226 7.41856 9.189 7.48527 9.24777C7.38769 9.35477 7.29788 9.47694 7.22025 9.62756ZM8.91017 7.47413C8.84346 7.66208 8.78598 7.82435 8.66992 8.02727C8.43077 8.44606 8.15854 8.66654 7.89519 8.87962C7.81627 8.94357 7.73865 9.0064 7.66399 9.07294C7.58951 9.00659 7.51281 8.94431 7.43297 8.87962C7.38104 8.83767 7.32726 8.79406 7.27422 8.74933C7.07019 8.57709 6.85414 8.37047 6.65824 8.02727C6.54218 7.82435 6.48452 7.66208 6.4178 7.47413C6.33149 7.23073 5.89423 5.82727 5.73585 2.02939C6.37751 2.04565 7.02084 2.05415 7.66436 2.05415C7.68062 2.05415 7.69707 2.05415 7.71333 2.05415C8.34021 2.0536 8.96691 2.04528 9.59231 2.02939C9.43781 5.73191 9.0316 7.13223 8.91017 7.47413Z" fill="black"/>
<path d="M15.0141 5.27025C14.8831 4.07156 14.7077 2.8616 14.4928 1.67418C14.4922 1.67141 14.4911 1.66882 14.4904 1.66605C14.4941 1.6544 14.4965 1.64221 14.4965 1.62945V0.127674C14.4965 0.0934835 14.4824 0.0607719 14.4575 0.0371159C14.4327 0.0136448 14.3995 0.00126247 14.3651 0.00311056C12.1533 0.122499 9.89892 0.183117 7.66399 0.183117C7.66103 0.183117 7.65789 0.183117 7.65512 0.183117C5.42296 0.182932 3.17158 0.122314 0.963081 0.00311056C0.928891 0.00144727 0.89544 0.0136448 0.870675 0.0371159C0.845725 0.0607719 0.83168 0.0934835 0.83168 0.127674V1.62945C0.83168 1.64221 0.834082 1.6544 0.837778 1.66605C0.837039 1.66882 0.83593 1.67141 0.835376 1.67418C0.62044 2.86141 0.445053 4.07137 0.314022 5.27025C0.136602 6.89308 0.0349558 8.54419 0.012224 10.1776C0.0112999 10.2336 0.0482623 10.2833 0.102227 10.299C1.20685 10.6183 2.34751 10.8314 3.49242 10.9323C4.01211 10.9782 4.53457 11.0011 5.0574 11.0011C5.7595 11.0011 6.46216 10.9597 7.15834 10.8773C7.22487 10.8695 7.27311 10.8107 7.26812 10.744C7.23855 10.3603 7.29714 10.0231 7.44203 9.74159C7.59616 9.44256 7.8074 9.27142 8.05209 9.07331C8.32025 8.85615 8.62409 8.61017 8.88652 8.15091C9.01348 7.92877 9.07466 7.75652 9.14525 7.55748C9.63371 6.181 9.80097 3.01333 9.84218 2.02273C11.3286 1.98004 12.8056 1.89374 14.2555 1.76474C14.4656 2.93164 14.6375 4.11998 14.7661 5.29742C14.9393 6.88088 15.0398 8.49115 15.0651 10.0857C14.0043 10.3862 12.911 10.5875 11.8138 10.6841C10.6518 10.7865 9.47551 10.7727 8.31545 10.6431C8.3282 10.2615 8.25853 9.9203 8.10772 9.62756C8.0763 9.56638 8.00108 9.54236 7.93991 9.57378C7.87855 9.60538 7.85453 9.68041 7.88595 9.74159C8.03102 10.0231 8.08942 10.3603 8.06004 10.744C8.05505 10.8107 8.10329 10.8695 8.16982 10.8773C8.86619 10.9597 9.56847 11.0011 10.2708 11.0011C10.7934 11.0011 11.3161 10.9782 11.8357 10.9323C12.9805 10.8314 14.1211 10.6183 15.2259 10.299C15.2799 10.2833 15.3167 10.2336 15.3159 10.1776C15.2932 8.54401 15.1916 6.89308 15.0141 5.27025ZM1.08118 0.259075C3.25179 0.373843 5.46269 0.432059 7.65493 0.432244C7.65807 0.432244 7.66085 0.432244 7.66399 0.432244C9.859 0.432244 12.073 0.374028 14.247 0.259075V1.51543C12.1096 1.70615 9.91204 1.80336 7.71315 1.80484C5.48173 1.80577 3.2505 1.70892 1.08118 1.51543V0.259075ZM7.22025 9.62756C7.06963 9.9203 6.99996 10.2615 7.01271 10.6431C5.85265 10.7727 4.67632 10.7865 3.51441 10.6841C2.417 10.5875 1.32365 10.3862 0.263014 10.0857C0.288333 8.49133 0.388686 6.88088 0.561854 5.29742C0.690668 4.11961 0.862543 2.93145 1.07267 1.76474C2.52271 1.89374 3.99954 1.98004 5.48598 2.02273C5.52719 3.01314 5.69426 6.18045 6.18272 7.55748C6.2535 7.75652 6.31449 7.92858 6.44146 8.15091C6.6575 8.52867 6.90219 8.76171 7.11325 8.93969C7.16832 8.98608 7.22303 9.03043 7.27588 9.07331C7.3487 9.13226 7.41856 9.189 7.48527 9.24777C7.38769 9.35477 7.29788 9.47694 7.22025 9.62756ZM8.91017 7.47413C8.84346 7.66208 8.78598 7.82435 8.66992 8.02727C8.43077 8.44606 8.15854 8.66654 7.89519 8.87962C7.81627 8.94357 7.73865 9.0064 7.66399 9.07294C7.58951 9.00659 7.51281 8.94431 7.43297 8.87962C7.38104 8.83767 7.32726 8.79406 7.27422 8.74933C7.07019 8.57709 6.85414 8.37047 6.65824 8.02727C6.54218 7.82435 6.48452 7.66208 6.4178 7.47413C6.33149 7.23073 5.89423 5.82727 5.73585 2.02939C6.37751 2.04565 7.02084 2.05415 7.66436 2.05415C7.68062 2.05415 7.69707 2.05415 7.71333 2.05415C8.34021 2.0536 8.96691 2.04528 9.59231 2.02939C9.43781 5.73191 9.0316 7.13223 8.91017 7.47413Z" fill="black"/>
</g>
</svg>
