<svg width="13" height="12" viewBox="0 0 13 12" fill="none" xmlns="http://www.w3.org/2000/svg">
<mask id="mask0_151_3907" style="mask-type:luminance" maskUnits="userSpaceOnUse" x="0" y="0" width="13" height="12">
<path d="M0 0H12.0278V12H0V0Z" fill="white"/>
</mask>
<g mask="url(#mask0_151_3907)">
<path d="M11.8991 3.07277C11.8501 2.85163 11.7879 2.64832 11.717 2.45792C11.7137 2.44516 11.7096 2.43342 11.7032 2.42225C10.7868 0.0304286 8.28241 0.00244141 8.24602 0.00244141C8.24587 0.00244141 8.24587 0.00244141 8.24587 0.00244141C8.20585 0.00258641 8.16786 0.0185377 8.13958 0.0466699C8.11159 0.0749472 8.09593 0.11323 8.09607 0.152818C8.10028 1.396 7.22194 2.33626 6.05388 2.34017C5.47267 2.33814 4.93178 2.11033 4.53096 1.69864C4.1316 1.28811 3.91263 0.739245 3.91466 0.152818C3.91481 0.11323 3.89915 0.0749472 3.87116 0.0466699C3.84303 0.0185377 3.80489 0.00258641 3.76501 0.00244141C3.76501 0.00244141 3.76501 0.00244141 3.76487 0.00244141C3.72804 0.00244141 1.21875 0.0305737 0.304601 2.4295C0.301991 2.43501 0.300251 2.44052 0.298221 2.44618C0.22557 2.63919 0.162055 2.84568 0.112026 3.07045C0.0353149 3.41659 -0.00195312 3.78579 -0.00195312 4.19937V11.1253C-0.00195312 11.2082 0.0651872 11.2754 0.148134 11.2754H2.2218V11.8502C2.2218 11.9331 2.28894 12.0003 2.37189 12.0003H9.64103C9.72412 12.0003 9.79126 11.9331 9.79126 11.8502V11.2754H11.8704C11.9103 11.2754 11.9485 11.2594 11.9766 11.2314C12.0049 11.2031 12.0205 11.165 12.0205 11.1251L12.0133 4.19458C12.0128 3.78391 11.9754 3.41703 11.8991 3.07277ZM0.405384 3.13542C0.444103 2.96082 0.491376 2.79812 0.544596 2.64441H11.4661C11.5195 2.79885 11.5671 2.96213 11.6059 3.13745C11.6774 3.46039 11.7125 3.80624 11.713 4.19487L11.7134 4.68342H9.79126V4.07524C9.79126 3.99244 9.72412 3.9253 9.64103 3.9253C9.55808 3.9253 9.49094 3.99244 9.49094 4.07524V4.68342H2.52212V4.07524C2.52212 3.99244 2.45498 3.9253 2.37189 3.9253C2.28894 3.9253 2.2218 3.99244 2.2218 4.07524V4.68342H0.298366V4.19937C0.298366 3.80798 0.333314 3.45995 0.405384 3.13542ZM9.79126 4.9833H11.7138L11.716 7.02231H9.79126V4.9833ZM9.49094 7.02231H2.52212V4.9833H9.49094V7.02231ZM2.2218 4.9833V7.02231H0.298366V4.9833H2.2218ZM0.298366 7.32219H2.2218V9.36134H0.298366V7.32219ZM2.52212 7.32219H9.49094V9.36134H2.52212V7.32219ZM9.79126 7.32219H11.7163L11.7183 9.36134H9.79126V7.32219ZM7.74616 1.90441C8.13465 1.4804 8.36116 0.91877 8.39262 0.308851C8.90277 0.346264 10.5824 0.603369 11.349 2.34438H7.19367C7.39755 2.22909 7.58375 2.08162 7.74616 1.90441ZM3.61855 0.308706C3.65277 0.914709 3.89712 1.4775 4.31577 1.9076C4.48688 2.0835 4.68033 2.22982 4.89001 2.34438H0.66191C1.42873 0.602934 3.10898 0.346119 3.61855 0.308706ZM0.298366 10.9753V9.66137H2.2218V10.9753H0.298366ZM9.49094 11.7002H2.52212V9.66137H9.49094V11.7002ZM9.79126 10.9753V9.66137H11.7188L11.7201 10.9753H9.79126Z" fill="black"/>
</g>
</svg>
