<svg width="33" height="44" viewBox="0 0 33 44" fill="none" xmlns="http://www.w3.org/2000/svg">
<mask id="mask0_8_852" style="mask-type:luminance" maskUnits="userSpaceOnUse" x="0" y="0" width="33" height="44">
<path d="M0 0H33V44H0V0Z" fill="white"/>
</mask>
<g mask="url(#mask0_8_852)">
<path d="M32.0833 44H0.916667C0.41059 44 0 43.5894 0 43.0833V27.3313C0 25.1351 0.579283 23.0323 1.67737 21.252C2.8858 19.2887 3.66667 14.9049 3.66667 10.0833C3.66667 5.56047 2.77758 1.14424 2.76857 1.10021C2.7134 0.830729 2.78289 0.550106 2.95742 0.337384C3.13141 0.123071 3.39188 0 3.66667 0H8.25C8.75608 0 9.16667 0.41059 9.16667 0.916667C9.16667 6.84741 11.4345 12.8333 16.5 12.8333C21.9141 12.8333 23.8333 6.41507 23.8333 0.916667C23.8333 0.41059 24.2439 0 24.75 0H29.3333C29.6081 0 29.8686 0.123071 30.0426 0.337384C30.2171 0.550106 30.2866 0.830729 30.2314 1.10021C30.2224 1.14424 29.3333 5.56047 29.3333 10.0833C29.3333 14.907 30.1142 19.2887 31.3226 21.2499C32.4207 23.0323 33 25.1351 33 27.3313V43.0833C33 43.5894 32.5894 44 32.0833 44ZM1.83333 42.1667H31.1667V27.3313C31.1667 25.4741 30.6807 23.705 29.7625 22.2127C28.3673 19.9486 27.5 15.3011 27.5 10.0833C27.5 6.70843 27.9583 3.47039 28.2352 1.83333H25.6518C25.3972 9.66372 21.8626 14.6667 16.5 14.6667C11.2239 14.6667 7.61183 9.54808 7.34819 1.83333H4.76476C5.04167 3.47039 5.5 6.70843 5.5 10.0833C5.5 15.299 4.63267 19.9465 3.23751 22.2127C2.31925 23.705 1.83333 25.4741 1.83333 27.3313V42.1667Z" fill="black"/>
</g>
<mask id="mask1_8_852" style="mask-type:luminance" maskUnits="userSpaceOnUse" x="0" y="27" width="33" height="3">
<path d="M0 27.4321H33V29.3334H0V27.4321Z" fill="white"/>
</mask>
<g mask="url(#mask1_8_852)">
<path d="M32.0833 29.3331H0.916667C0.41059 29.3331 0 28.9225 0 28.4164C0 27.9103 0.41059 27.4998 0.916667 27.4998H32.0833C32.5894 27.4998 33 27.9103 33 28.4164C33 28.9225 32.5894 29.3331 32.0833 29.3331Z" fill="black"/>
</g>
<path d="M29.0878 18.3333H3.92716C3.42109 18.3333 3.0105 17.9227 3.0105 17.4167C3.0105 16.9106 3.41897 16.5 3.92716 16.5H29.0878C29.5938 16.5 30.0044 16.9106 30.0044 17.4167C30.0044 17.9227 29.5938 18.3333 29.0878 18.3333Z" fill="black"/>
<path d="M28.4165 12.8333H21.1691C20.6636 12.8333 20.2524 12.4227 20.2524 11.9167C20.2524 11.4106 20.6636 11 21.1691 11H28.4165C28.9226 11 29.3332 11.4106 29.3332 11.9167C29.3332 12.4227 28.9226 12.8333 28.4165 12.8333Z" fill="black"/>
<path d="M28.5727 7.33333H24.079C23.5729 7.33333 23.1624 6.92274 23.1624 6.41667C23.1624 5.91059 23.5729 5.5 24.079 5.5H28.5727C29.0788 5.5 29.4894 5.91059 29.4894 6.41667C29.4894 6.92274 29.0788 7.33333 28.5727 7.33333Z" fill="black"/>
<path d="M31.1665 23.8333H1.83317C1.32709 23.8333 0.916504 23.4227 0.916504 22.9167C0.916504 22.4106 1.32709 22 1.83317 22H31.1665C31.6726 22 32.0832 22.4106 32.0832 22.9167C32.0832 23.4227 31.6726 23.8333 31.1665 23.8333Z" fill="black"/>
<mask id="mask2_8_852" style="mask-type:luminance" maskUnits="userSpaceOnUse" x="0" y="33" width="33" height="2">
<path d="M0 33H33V34.9012H0V33Z" fill="white"/>
</mask>
<g mask="url(#mask2_8_852)">
<path d="M32.0833 34.8333H0.916667C0.41059 34.8333 0 34.4227 0 33.9167C0 33.4106 0.41059 33 0.916667 33H32.0833C32.5894 33 33 33.4106 33 33.9167C33 34.4227 32.5894 34.8333 32.0833 34.8333Z" fill="black"/>
</g>
<mask id="mask3_8_852" style="mask-type:luminance" maskUnits="userSpaceOnUse" x="0" y="38" width="33" height="3">
<path d="M0 38.4321H33V40.3334H0V38.4321Z" fill="white"/>
</mask>
<g mask="url(#mask3_8_852)">
<path d="M32.0833 40.3331H0.916667C0.41059 40.3331 0 39.9225 0 39.4164C0 38.9103 0.41059 38.4998 0.916667 38.4998H32.0833C32.5894 38.4998 33 38.9103 33 39.4164C33 39.9225 32.5894 40.3331 32.0833 40.3331Z" fill="black"/>
</g>
<path d="M12.0101 12.8333H4.53776C4.03168 12.8333 3.62109 12.4227 3.62109 11.9167C3.62109 11.4106 4.02956 11 4.53776 11H12.0122C12.5183 11 12.9289 11.4106 12.9289 11.9167C12.9289 12.4227 12.5183 12.8333 12.0101 12.8333Z" fill="black"/>
<path d="M8.93593 7.33333H4.41838C3.9123 7.33333 3.50171 6.92274 3.50171 6.41667C3.50171 5.91059 3.9123 5.5 4.41838 5.5H8.93593C9.44148 5.5 9.8526 5.91059 9.8526 6.41667C9.8526 6.92274 9.44148 7.33333 8.93593 7.33333Z" fill="black"/>
</svg>
