<svg width="47" height="39" viewBox="0 0 47 39" fill="none" xmlns="http://www.w3.org/2000/svg">
<path d="M15.1107 3.41138C7.83549 6.68377 2.09422 14.3822 2.00242 26.3623H1.4777C0.671366 26.3623 0.00952148 27.0236 0.00952148 27.8293V30.4841C0.00952148 31.2904 0.671366 31.9517 1.4777 31.9517H45.5226C46.329 31.9517 46.9908 31.2904 46.9908 30.4841V27.8293C46.9908 27.0236 46.329 26.3623 45.5226 26.3623H44.9985C44.9005 14.3964 39.1626 6.68887 31.8897 3.41138V4.63364C38.6843 7.86749 43.9995 15.2356 43.9145 26.921V27.4803H45.5226C45.7074 27.4803 45.8723 27.6446 45.8723 27.8293V30.4841C45.8723 30.6694 45.7074 30.8337 45.5226 30.8337H1.4777C1.29298 30.8337 1.12808 30.6694 1.12808 30.4841V27.8293C1.12808 27.6446 1.29298 27.4803 1.4777 27.4803H3.08585V26.921C2.99462 15.2118 8.30694 7.85899 15.1107 4.63364V3.41138Z" fill="#333333"/>
<mask id="mask0_40_1678" style="mask-type:luminance" maskUnits="userSpaceOnUse" x="0" y="32" width="47" height="7">
<path d="M0 32.6057H47V38.2631H0V32.6057Z" fill="white"/>
</mask>
<g mask="url(#mask0_40_1678)">
<path d="M0.289617 32.6577C0.159855 32.7359 0.0754244 32.8481 0.0368924 32.9943C0.0283926 33.0504 0.0283926 33.1065 0.0368924 33.1626C0.0283926 33.2187 0.0283926 33.2748 0.0368924 33.3309C0.0555917 33.3916 0.0833574 33.4476 0.121323 33.4992C0.447145 33.9072 1.07102 34.4784 1.7204 35.0972C2.36978 35.7165 3.02029 36.4299 3.48834 36.9478C4.62844 38.2103 6.14875 38.2098 7.27638 38.2098C7.30414 38.212 7.33248 38.212 7.36024 38.2098C20.7683 37.0935 27.3986 37.0935 39.6852 38.2098C40.8038 38.2098 42.2227 38.1979 43.4732 36.9478L46.8403 33.5831C46.8777 33.5315 46.906 33.4754 46.9241 33.4148C46.9621 33.3638 46.9899 33.3077 47.008 33.2465C47.0103 33.2187 47.0103 33.1904 47.008 33.1626C46.9899 33.1014 46.9621 33.0453 46.9241 32.9943C46.8918 32.894 46.8357 32.8102 46.7558 32.7416C46.7043 32.7042 46.6482 32.6764 46.5875 32.6577C46.5598 32.6555 46.5314 32.6555 46.5037 32.6577C46.4753 32.6555 46.4476 32.6555 46.4192 32.6577H0.541775C0.485677 32.6492 0.429579 32.6492 0.373481 32.6577C0.345715 32.6555 0.317383 32.6555 0.289617 32.6577ZM1.97313 33.7514H45.0723L42.7156 36.1069C41.7535 37.0685 40.8474 37.1173 39.7691 37.1161C39.7368 37.1133 39.7181 37.119 39.6852 37.1161C27.4247 36.0055 20.6793 35.9998 7.27638 37.1161C6.16688 37.1161 5.16108 37.1105 4.33038 36.1908C3.81246 35.6179 3.12739 34.8745 2.47801 34.2563C2.24908 34.0375 2.17485 33.9486 1.97313 33.7514Z" fill="#333333"/>
</g>
<path d="M23.3254 0.00526892C20.4582 0.0721332 17.6238 0.738511 14.8926 1.79531L14.5866 1.92677L14.5429 2.31946L13.4504 31.3579L14.5429 31.4015L15.6791 2.75634C20.7415 0.862606 25.8504 0.440454 31.3219 2.75634L32.4581 31.4015L33.55 31.3579L32.4581 2.31946L32.4144 1.9704L32.1084 1.83951C29.1012 0.505619 26.1932 -0.0615954 23.3254 0.00526892Z" fill="#333333"/>
<path d="M13.4211 33.0784L12.3269 37.5373L13.4211 37.7895L14.5159 33.3311L13.4211 33.0784Z" fill="#333333"/>
<path d="M33.6242 33.0784L32.53 33.3311L33.6242 37.7895L34.6346 37.5373L33.6242 33.0784Z" fill="#333333"/>
<path d="M20.2146 0.511719C20.2089 0.559317 20.1794 0.601816 20.1794 0.651681C20.1794 2.49668 21.6884 4.0051 23.5351 4.0051C25.3818 4.0051 26.8908 2.49668 26.8908 0.651681C26.8908 0.601816 26.8602 0.559317 26.8562 0.511719H25.7371C25.74 0.559884 25.7723 0.602382 25.7723 0.651681C25.7723 1.89264 24.7772 2.8871 23.5351 2.8871C22.293 2.8871 21.298 1.89264 21.298 0.651681C21.298 0.602382 21.3297 0.559884 21.3331 0.511719H20.2146Z" fill="#333333"/>
<path d="M2.64631 26.3486C2.61571 26.3736 2.58738 26.4013 2.56245 26.4325C2.44968 26.4886 2.36582 26.5724 2.31029 26.6846C2.27232 26.7362 2.24456 26.7923 2.22586 26.8529C2.21736 26.909 2.21736 26.9651 2.22586 27.0212C2.26439 27.1674 2.34882 27.2796 2.47858 27.3578C2.50351 27.389 2.53128 27.4168 2.56245 27.4423C2.61854 27.4508 2.67464 27.4508 2.73074 27.4423C2.75851 27.444 2.78684 27.444 2.8146 27.4423H9.54921C9.60531 27.4508 9.6614 27.4508 9.7175 27.4423C9.77813 27.4236 9.83423 27.3958 9.8858 27.3578C9.96569 27.2898 10.0218 27.2054 10.0541 27.1057C10.0626 27.0496 10.0626 26.9935 10.0541 26.9374C10.0626 26.8813 10.0626 26.8252 10.0541 26.7691C10.0564 26.7407 10.0564 26.713 10.0541 26.6846C10.0105 26.6166 9.95436 26.5605 9.8858 26.5169C9.86086 26.4858 9.83253 26.4574 9.80193 26.4325C9.75037 26.3951 9.69427 26.3668 9.63364 26.3486C9.60531 26.3464 9.57754 26.3464 9.54921 26.3486H2.81517C2.78684 26.3464 2.75907 26.3464 2.73131 26.3486C2.70297 26.3464 2.67521 26.3464 2.64688 26.3486H2.64631Z" fill="#333333"/>
<path d="M38.4226 26.3486C38.3439 26.3764 38.2753 26.42 38.2164 26.479C38.1574 26.5379 38.1138 26.6064 38.0855 26.6846C38.0288 26.8252 38.0288 26.9651 38.0855 27.1057C38.1042 27.1663 38.1319 27.2224 38.1699 27.274C38.2379 27.3533 38.3223 27.4094 38.4221 27.4423C38.4782 27.4508 38.5343 27.4508 38.5904 27.4423H44.2302C44.2863 27.4508 44.3424 27.4508 44.3991 27.4423C44.4597 27.4236 44.5158 27.3958 44.5673 27.3578C44.6472 27.2898 44.7033 27.2054 44.7356 27.1057C44.7441 27.0496 44.7441 26.9935 44.7356 26.9374C44.7441 26.8813 44.7441 26.8252 44.7356 26.7691C44.7033 26.6693 44.6472 26.5849 44.5673 26.5169C44.5418 26.4858 44.5141 26.4574 44.4829 26.4325C44.4319 26.3951 44.3758 26.3668 44.3146 26.3486C44.2869 26.3464 44.2585 26.3464 44.2308 26.3486H38.5909C38.5626 26.3464 38.5348 26.3464 38.5065 26.3486C38.4787 26.3464 38.4504 26.3464 38.4226 26.3486Z" fill="#333333"/>
</svg>
