<svg width="29" height="68" viewBox="0 0 29 68" fill="none" xmlns="http://www.w3.org/2000/svg">
<mask id="mask0_46_1754" style="mask-type:luminance" maskUnits="userSpaceOnUse" x="0" y="0" width="29" height="68">
<path d="M0 0H28.0185V68H0V0Z" fill="white"/>
</mask>
<g mask="url(#mask0_46_1754)">
<path d="M26.0164 21.8362L21.2712 10.416L22.8511 1.2249C22.9002 0.937135 22.7117 0.661672 22.4247 0.604283L19.5832 0.0328617C19.3963 -0.00403079 19.2028 0.012366 19.0257 0.0812317C18.8478 0.150097 18.6937 0.268153 18.5814 0.421461L14.0002 6.68169L9.41896 0.421461C9.30664 0.268153 9.15252 0.150097 8.97543 0.0812317C8.79753 0.012366 8.60405 -0.00403074 8.41795 0.0336816L5.57642 0.604283C5.28948 0.661672 5.10009 0.937135 5.1501 1.2249L6.7291 10.4168L1.98392 21.8362L0.0376431 67.4336C0.0310845 67.5811 0.0851933 67.7238 0.187672 67.8304C0.289331 67.937 0.430342 67.9968 0.577911 67.9968H12.1662C12.3113 67.9968 12.4499 67.9386 12.5515 67.8361C12.6532 67.7336 12.7089 67.5943 12.7073 67.45C12.7065 67.386 12.6253 60.9782 12.7844 54.4401C12.877 50.6066 13.032 47.4805 13.2459 45.1489C13.5116 42.2582 13.8182 41.1465 14.0002 40.7235C14.183 41.1474 14.4896 42.2582 14.7544 45.1489C14.9684 47.4805 15.1242 50.6066 15.2168 54.4401C15.375 60.9782 15.2947 67.386 15.293 67.45C15.2914 67.5943 15.348 67.7336 15.4496 67.8361C15.5513 67.9386 15.6898 67.9968 15.8341 67.9968H27.4224C27.57 67.9968 27.711 67.937 27.8135 67.8304C27.9152 67.7238 27.9693 67.5811 27.9635 67.4336L26.0164 21.8362ZM25.7934 41.9762C24.8744 41.7581 23.1765 41.2023 22.1681 39.9365C21.0983 38.5928 20.9548 35.2913 20.9982 33.6221H25.4368L25.7934 41.9762ZM19.6275 1.14373L21.6959 1.55939L20.2555 9.93969H18.0796L19.6275 1.14373ZM18.2551 2.69895L17.8009 5.2806L15.4365 8.64354L14.6708 7.59662L18.2551 2.69895ZM17.3598 7.78846L16.9811 9.93969H16.3851L16.1112 9.56503L17.3598 7.78846ZM15.0446 9.93969H13.4755L10.1994 5.2806L9.74525 2.69895L15.0446 9.93969ZM12.1531 9.93969H11.0193L10.6413 7.78846L12.1531 9.93969ZM6.30524 1.55939L8.37286 1.14373L9.9207 9.93969H7.74569L6.30524 1.55939ZM3.06118 21.9789L7.64977 11.0194H20.3514L24.94 21.9789L25.3909 32.5416H2.61027L3.06118 21.9789ZM2.56436 33.6221H7.0021C7.04555 35.2913 6.9029 38.5928 5.8322 39.9365C4.82463 41.2023 3.12594 41.7581 2.20691 41.9762L2.56436 33.6221ZM16.381 66.9171C16.3965 65.2331 16.4301 59.9182 16.3006 54.495C15.9801 41.0891 14.9963 40.0947 14.6265 39.72C14.3986 39.4905 14.16 39.4421 14.0002 39.4421C13.8403 39.4421 13.6026 39.4897 13.3746 39.72C13.0041 40.0947 12.0203 41.0891 11.7005 54.495C11.5702 59.9182 11.6038 65.2331 11.6194 66.9171H1.14277L2.15936 43.0953C3.11529 42.9026 5.3403 42.2902 6.67991 40.6087C8.06542 38.8682 8.11789 35.0724 8.08346 33.6221H19.9169C19.8825 35.0724 19.9357 38.8682 21.3213 40.6087C22.66 42.2902 24.8851 42.9026 25.841 43.0953L26.8584 66.9171H16.381Z" fill="#333333"/>
</g>
<path d="M9.33862 16.6286V23.1094C9.33862 23.2865 9.42553 23.4521 9.57064 23.5529L13.6911 26.4166C13.7846 26.4814 13.892 26.5133 14.0002 26.5133C14.1084 26.5133 14.2166 26.4814 14.3093 26.4166L18.4297 23.5529C18.5748 23.4521 18.6617 23.2865 18.6617 23.1094V16.6286C18.6617 16.3302 18.4199 16.0884 18.1206 16.0884H9.87971C9.58129 16.0884 9.33862 16.3302 9.33862 16.6286ZM10.4208 17.1681H17.5796V22.8274L14.0002 25.3156L10.4208 22.8274V17.1681Z" fill="#333333"/>
<path d="M9.14036 15.3113C10.0422 15.3113 10.7751 14.5792 10.7751 13.6798C10.7751 12.7796 10.0422 12.0483 9.14036 12.0483C8.23936 12.0483 7.50562 12.7796 7.50562 13.6798C7.50562 14.5792 8.23936 15.3113 9.14036 15.3113ZM9.14036 13.1281C9.44533 13.1281 9.69292 13.3756 9.69292 13.6798C9.69292 13.984 9.44533 14.2307 9.14036 14.2307C8.8362 14.2307 8.58779 13.984 8.58779 13.6798C8.58779 13.3756 8.8362 13.1281 9.14036 13.1281Z" fill="#333333"/>
<path d="M18.8611 15.3113C19.7621 15.3113 20.495 14.5792 20.495 13.6798C20.495 12.7796 19.7621 12.0483 18.8611 12.0483C17.9592 12.0483 17.2263 12.7796 17.2263 13.6798C17.2263 14.5792 17.9592 15.3113 18.8611 15.3113ZM18.8611 13.1281C19.1652 13.1281 19.4128 13.3756 19.4128 13.6798C19.4128 13.984 19.1652 14.2307 18.8611 14.2307C18.5561 14.2307 18.3085 13.984 18.3085 13.6798C18.3085 13.3756 18.5561 13.1281 18.8611 13.1281Z" fill="#333333"/>
</svg>
