<svg width="30" height="47" viewBox="0 0 30 47" fill="none" xmlns="http://www.w3.org/2000/svg">
<mask id="mask0_8_858" style="mask-type:luminance" maskUnits="userSpaceOnUse" x="0" y="0" width="30" height="47">
<path d="M0 0H29.1005V47H0V0Z" fill="white"/>
</mask>
<g mask="url(#mask0_8_858)">
<path d="M28.8574 19.1011C26.1361 17.8302 25.2885 16.5416 25.2885 10.9566V0.68908C25.2885 0.394529 25.0494 0.155457 24.7554 0.155457H22.2623C22.1885 0.117137 22.1073 0.0891113 22.0192 0.0891113C21.7247 0.0891113 21.4862 0.328184 21.4862 0.623306C21.4862 4.43188 18.3925 7.53181 14.5897 7.53181C10.7863 7.53181 7.69262 4.43302 7.69262 0.623306C7.69262 0.328184 7.45412 0.0891113 7.15957 0.0891113C7.06692 0.0891113 6.98284 0.118852 6.90735 0.161748L4.45428 0.155457C4.36163 0.162892 4.17746 0.210935 4.0768 0.311597C3.97557 0.411687 3.92009 0.547238 3.92009 0.68908V10.9566C3.92009 16.5416 3.07304 17.8302 0.351734 19.1011C0.164137 19.1886 0.043457 19.3773 0.043457 19.5849V46.4342C0.043457 46.7294 0.281957 46.9684 0.576508 46.9684H14.5903C14.6 46.9684 14.6097 46.9684 14.6183 46.9684H28.6315C28.9254 46.9684 29.1639 46.7294 29.1639 46.4342V19.5849C29.1651 19.3773 29.0461 19.1886 28.8574 19.1011ZM14.5903 8.59963C17.5386 8.59963 20.1112 6.98331 21.4873 4.59316V6.22949C21.4873 10.0381 18.3937 13.138 14.5903 13.138C10.7874 13.138 7.69377 10.0392 7.69377 6.22949V4.59316C9.07101 6.98446 11.6442 8.59963 14.5903 8.59963ZM28.0996 45.9006H14.6194C14.6097 45.9006 14.6 45.9006 14.5914 45.9006H1.10956V19.9212C4.17918 18.3953 4.98619 16.4644 4.98619 10.9566V1.22556L6.62881 1.22957V6.22949C6.62881 10.6277 10.2012 14.2058 14.5914 14.2058C18.9822 14.2058 22.554 10.6277 22.554 6.22949V1.22327H24.2235V10.9566C24.2235 16.4633 25.0305 18.3942 28.1001 19.9212V45.9006H28.0996Z" fill="#333333"/>
</g>
</svg>
