<svg width="47" height="46" viewBox="0 0 47 46" fill="none" xmlns="http://www.w3.org/2000/svg">
<mask id="mask0_40_1685" style="mask-type:luminance" maskUnits="userSpaceOnUse" x="0" y="0" width="47" height="46">
<path d="M0 0H47V45.2593H0V0Z" fill="white"/>
</mask>
<g mask="url(#mask0_40_1685)">
<path d="M46.9393 42.2475C46.9456 42.2367 46.9529 42.2265 46.9586 42.2152C46.9637 42.2044 46.9671 42.1931 46.9716 42.1823C46.9762 42.1699 46.9818 42.158 46.9852 42.1455C46.9886 42.1325 46.9903 42.1183 46.992 42.1047C46.9943 42.0939 46.9971 42.0832 46.9977 42.0718C46.9988 42.0526 46.9977 42.0327 46.996 42.0129C46.996 42.0072 46.9966 42.0016 46.996 41.9959C46.996 41.9953 46.9954 41.9948 46.9954 41.9942C46.9954 41.9936 46.9954 41.9931 46.9954 41.9925C46.8674 40.9737 46.7274 39.8942 46.554 38.596C46.554 38.5955 46.554 38.5943 46.554 38.5938C46.554 38.5932 46.554 38.5926 46.5534 38.5921C45.8196 33.0843 44.977 27.5436 44.0494 22.1247C43.5825 19.3958 43.081 16.6209 42.5586 13.8777C42.5586 13.8766 42.5586 13.876 42.558 13.8749C42.558 13.8743 42.558 13.8743 42.558 13.8738C41.9092 10.4665 41.2105 7.0162 40.4818 3.61745C40.2427 2.50456 39.9996 1.39223 39.7588 0.310499C39.7576 0.304832 39.7554 0.299733 39.7537 0.294066C39.7503 0.281033 39.7457 0.269134 39.7412 0.256667C39.7367 0.244768 39.7321 0.232868 39.7265 0.222102C39.7208 0.210769 39.7146 0.200003 39.7078 0.189803C39.701 0.17847 39.6936 0.16827 39.6862 0.158071C39.6789 0.148438 39.6709 0.139938 39.6624 0.131438C39.6539 0.121805 39.6449 0.112739 39.6352 0.104239C39.6262 0.0963061 39.6165 0.0889397 39.6069 0.08214C39.5967 0.0747736 39.5865 0.0679738 39.5757 0.061174C39.565 0.0549409 39.5542 0.049841 39.5429 0.0447412C39.5315 0.0396413 39.5202 0.0345416 39.5083 0.0305751C39.497 0.0266086 39.4851 0.0232086 39.4732 0.0203754C39.4607 0.0175422 39.4482 0.0147088 39.4352 0.013009C39.4233 0.011309 39.4114 0.0107424 39.3995 0.0101758C39.3859 0.00960914 39.3718 0.00904253 39.3582 0.0101758C39.3525 0.0107424 39.3474 0.00960914 39.3417 0.0101758C34.6283 0.508825 29.8277 0.786483 25.0741 0.835781C24.4791 0.842014 23.9816 0.844847 23.5096 0.844847C23.5062 0.844847 23.5028 0.844847 23.4994 0.844847C18.2352 0.844281 12.9116 0.56379 7.67633 0.0101758C7.67066 0.00960914 7.665 0.0107424 7.65933 0.0101758C7.64573 0.00960914 7.6327 0.00960914 7.61966 0.0101758C7.60663 0.0101758 7.59417 0.011309 7.5817 0.013009C7.5698 0.0147088 7.5579 0.0169754 7.546 0.0203754C7.53297 0.0232086 7.5205 0.0266086 7.5086 0.0305751C7.49727 0.0345416 7.4865 0.0396414 7.47574 0.0441746C7.4644 0.0498411 7.4525 0.0555075 7.44174 0.0617407C7.43097 0.0679738 7.42134 0.0747736 7.41171 0.0815733C7.40151 0.0889397 7.39131 0.0963061 7.38224 0.104806C7.37261 0.112739 7.36411 0.121239 7.35561 0.130305C7.34711 0.139371 7.33917 0.148438 7.33124 0.158637C7.32387 0.16827 7.31708 0.17847 7.31028 0.189236C7.30348 0.200003 7.29724 0.210769 7.29158 0.222669C7.28591 0.233435 7.28138 0.244768 7.27684 0.256101C7.27231 0.268567 7.26778 0.2816 7.26438 0.294633C7.26268 0.300299 7.26041 0.304832 7.25871 0.310499C7.01845 1.39223 6.77536 2.50456 6.5368 3.61745C5.80753 7.01564 5.10885 10.4665 4.46004 13.8738C4.46004 13.8743 4.46004 13.8749 4.46004 13.8749C4.45947 13.876 4.45947 13.8772 4.45947 13.8777C3.93702 16.6209 3.43554 19.3958 2.96806 22.1247C2.04102 27.5441 1.19842 33.0831 0.464608 38.5887C0.464608 38.5892 0.464608 38.5898 0.464608 38.5904C0.464608 38.5909 0.464608 38.5921 0.464042 38.5932C0.290081 39.9005 0.149552 40.9816 0.0220568 41.9959C-0.000609094 42.1767 0.106487 42.3489 0.278748 42.409C3.19188 43.4227 6.21155 44.1764 9.25331 44.649C11.8514 45.0518 14.4835 45.2547 17.1184 45.2547C18.4421 45.2547 19.7675 45.2031 21.0883 45.1011C21.2662 45.087 21.4119 44.9532 21.4396 44.777L21.9745 41.4332L23.0313 34.8216L23.4059 32.4813C23.8241 32.4037 24.2423 32.3261 24.661 32.2479C25.4691 32.0966 26.2754 31.9442 27.0795 31.7912C27.2886 31.7515 27.4263 31.5492 27.3866 31.3395C27.3464 31.1299 27.1452 30.9928 26.935 31.0324C26.132 31.1848 25.3268 31.3373 24.5194 31.488C24.0116 31.5832 23.5039 31.6778 22.9973 31.7713C22.9939 31.7719 22.9911 31.7736 22.9877 31.7742C22.9735 31.7776 22.9599 31.7821 22.9458 31.7866C22.935 31.79 22.9242 31.7934 22.914 31.798C22.9021 31.8031 22.8914 31.8093 22.88 31.8155C22.8693 31.8218 22.8585 31.8274 22.8483 31.8342C22.8381 31.8416 22.829 31.8495 22.82 31.8575C22.8103 31.8654 22.8007 31.8733 22.7922 31.8818C22.7831 31.8909 22.7758 31.9011 22.7679 31.9113C22.7599 31.9204 22.7526 31.9294 22.7458 31.9396C22.739 31.9498 22.7333 31.9612 22.7276 31.9725C22.722 31.9833 22.7157 31.9946 22.7106 32.0059C22.7067 32.0167 22.7038 32.028 22.7004 32.0394C22.6959 32.0524 22.6919 32.066 22.6891 32.0802C22.6885 32.0836 22.6874 32.087 22.6868 32.0904L22.2692 34.6998L21.2606 41.0105C17.8352 41.2768 14.3786 41.1816 10.9816 40.7244C7.682 40.2807 4.41697 39.493 1.27151 38.3841C1.99399 32.9891 2.82016 27.5645 3.72906 22.2556C4.17785 19.6326 4.6595 16.9677 5.15985 14.3288C6.22855 14.2931 7.26778 14.1072 8.25148 13.7718C11.9426 12.5127 14.8427 9.17683 16.0587 4.81535C18.5407 4.93717 21.0424 5.00007 23.4994 5.00064C23.8705 5.00064 24.257 4.99837 24.6922 4.99497V14.3101H22.7514V6.45522C22.7514 6.24216 22.5786 6.06877 22.3655 6.06877C22.1525 6.06877 21.9796 6.24216 21.9796 6.45522V14.6965C21.9796 14.9102 22.1525 15.083 22.3655 15.083H25.0781C25.2911 15.083 25.464 14.9102 25.464 14.6965V4.98534C27.2908 4.96154 29.1347 4.90431 30.9593 4.81478C32.1748 9.17626 35.0749 12.5127 38.7666 13.7718C39.7503 14.1072 40.7889 14.2931 41.8582 14.3288C42.3586 16.9677 42.8402 19.6326 43.289 22.2556C44.1973 27.564 45.0241 32.9896 45.7471 38.3869C42.613 39.4891 39.3599 40.2722 36.0727 40.7147C32.6757 41.1714 29.2203 41.2672 25.7954 41.0009L24.729 34.1252C24.6962 33.9144 24.499 33.7693 24.2882 33.8028C24.0779 33.8356 23.9334 34.0328 23.9663 34.2436L25.0798 41.4219C25.0798 41.4225 25.0803 41.4225 25.0803 41.423V41.4236L25.5892 44.607C25.5818 44.632 25.5767 44.6586 25.5745 44.6858C25.558 44.8988 25.7173 45.0847 25.9297 45.1011C27.2506 45.2031 28.5754 45.2547 29.8997 45.2547C32.5346 45.2547 35.1672 45.0518 37.7647 44.649C40.8054 44.1764 43.8239 43.4233 46.7365 42.4101C46.737 42.4101 46.7376 42.4096 46.7382 42.4096C46.7387 42.4096 46.7393 42.409 46.7399 42.409C46.7455 42.4067 46.7506 42.4033 46.7569 42.4011C46.7744 42.3937 46.792 42.3863 46.8084 42.3773C46.8181 42.371 46.8266 42.3637 46.8362 42.3574C46.847 42.3495 46.8589 42.3421 46.8691 42.3331C46.8787 42.3246 46.8866 42.3144 46.8951 42.3047C46.9031 42.2962 46.9121 42.2877 46.9195 42.2781C46.9269 42.2685 46.9325 42.2577 46.9393 42.2475ZM17.4771 41.9313C18.6976 41.9313 19.9182 41.8837 21.1353 41.7936L20.7262 44.3532C16.9342 44.624 13.1161 44.4665 9.37174 43.8851C6.47844 43.4358 3.60553 42.728 0.827263 41.7812C0.928126 40.9844 1.03806 40.1367 1.16668 39.1661C4.31554 40.2648 7.58 41.0468 10.879 41.4905C13.0617 41.784 15.2688 41.9313 17.4771 41.9313ZM31.2319 4.02827C31.2313 4.02827 31.2307 4.02827 31.2302 4.02827C29.3183 4.12687 27.3809 4.1875 25.464 4.21243V1.60189C30.0022 1.54352 34.5785 1.27833 39.0799 0.813115C39.2652 1.65062 39.4516 2.50342 39.6364 3.3602C36.8558 3.65938 34.0311 3.88491 31.2319 4.02827ZM8.00272 13.0402C7.14425 13.3332 6.23988 13.5032 5.30888 13.5502C5.90952 10.4144 6.5504 7.24683 7.21905 4.1195C9.88172 4.40793 12.5846 4.62722 15.2683 4.77398C14.0947 8.80794 11.4054 11.8797 8.00272 13.0402ZM15.7873 4.02827H15.7868C12.9875 3.88491 10.1622 3.65938 7.38167 3.3602C7.56583 2.50399 7.75226 1.65119 7.93812 0.813682C13.0901 1.34633 18.3231 1.61719 23.4994 1.61775C23.5028 1.61775 23.5062 1.61775 23.5096 1.61775C23.8768 1.61775 24.2604 1.61605 24.6922 1.61209V4.22207C24.257 4.22603 23.87 4.22773 23.4994 4.22773C20.9529 4.22773 18.3582 4.1603 15.7873 4.02827ZM31.7498 4.77398C34.4334 4.62722 37.1363 4.40793 39.799 4.1195C40.4676 7.24683 41.1085 10.4144 41.7092 13.5502C40.7776 13.5032 39.8738 13.3332 39.0153 13.0402C35.6126 11.8797 32.9233 8.80794 31.7498 4.77398ZM37.6463 43.8851C33.9144 44.4648 30.1093 44.6218 26.3304 44.3543L25.9195 41.7834C27.1361 41.8735 28.3567 41.9211 29.5773 41.9211C31.7849 41.9211 33.9926 41.7744 36.1759 41.4803C39.4618 41.0383 42.7144 40.2608 45.8519 39.1689C45.98 40.135 46.0894 40.9805 46.1908 41.78C43.4125 42.7275 40.5396 43.4358 37.6463 43.8851Z" fill="black"/>
<path d="M46.9393 42.2475C46.9456 42.2367 46.9529 42.2265 46.9586 42.2152C46.9637 42.2044 46.9671 42.1931 46.9716 42.1823C46.9762 42.1699 46.9818 42.158 46.9852 42.1455C46.9886 42.1325 46.9903 42.1183 46.992 42.1047C46.9943 42.0939 46.9971 42.0832 46.9977 42.0718C46.9988 42.0526 46.9977 42.0327 46.996 42.0129C46.996 42.0072 46.9966 42.0016 46.996 41.9959C46.996 41.9953 46.9954 41.9948 46.9954 41.9942C46.9954 41.9936 46.9954 41.9931 46.9954 41.9925C46.8674 40.9737 46.7274 39.8942 46.554 38.596C46.554 38.5955 46.554 38.5943 46.554 38.5938C46.554 38.5932 46.554 38.5926 46.5534 38.5921C45.8196 33.0843 44.977 27.5436 44.0494 22.1247C43.5825 19.3958 43.081 16.6209 42.5586 13.8777C42.5586 13.8766 42.5586 13.876 42.558 13.8749C42.558 13.8743 42.558 13.8743 42.558 13.8738C41.9092 10.4665 41.2105 7.0162 40.4818 3.61745C40.2427 2.50456 39.9996 1.39223 39.7588 0.310499C39.7576 0.304832 39.7554 0.299733 39.7537 0.294066C39.7503 0.281033 39.7457 0.269134 39.7412 0.256667C39.7367 0.244768 39.7321 0.232868 39.7265 0.222102C39.7208 0.210769 39.7146 0.200003 39.7078 0.189803C39.701 0.17847 39.6936 0.16827 39.6862 0.158071C39.6789 0.148438 39.6709 0.139938 39.6624 0.131438C39.6539 0.121805 39.6449 0.112739 39.6352 0.104239C39.6262 0.0963061 39.6165 0.0889397 39.6069 0.08214C39.5967 0.0747736 39.5865 0.0679738 39.5757 0.061174C39.565 0.0549409 39.5542 0.049841 39.5429 0.0447412C39.5315 0.0396413 39.5202 0.0345416 39.5083 0.0305751C39.497 0.0266086 39.4851 0.0232086 39.4732 0.0203754C39.4607 0.0175422 39.4482 0.0147088 39.4352 0.013009C39.4233 0.011309 39.4114 0.0107424 39.3995 0.0101758C39.3859 0.00960914 39.3718 0.00904253 39.3582 0.0101758C39.3525 0.0107424 39.3474 0.00960914 39.3417 0.0101758C34.6283 0.508825 29.8277 0.786483 25.0741 0.835781C24.4791 0.842014 23.9816 0.844847 23.5096 0.844847C23.5062 0.844847 23.5028 0.844847 23.4994 0.844847C18.2352 0.844281 12.9116 0.56379 7.67633 0.0101758C7.67066 0.00960914 7.665 0.0107424 7.65933 0.0101758C7.64573 0.00960914 7.6327 0.00960914 7.61966 0.0101758C7.60663 0.0101758 7.59417 0.011309 7.5817 0.013009C7.5698 0.0147088 7.5579 0.0169754 7.546 0.0203754C7.53297 0.0232086 7.5205 0.0266086 7.5086 0.0305751C7.49727 0.0345416 7.4865 0.0396414 7.47574 0.0441746C7.4644 0.0498411 7.4525 0.0555075 7.44174 0.0617407C7.43097 0.0679738 7.42134 0.0747736 7.41171 0.0815733C7.40151 0.0889397 7.39131 0.0963061 7.38224 0.104806C7.37261 0.112739 7.36411 0.121239 7.35561 0.130305C7.34711 0.139371 7.33917 0.148438 7.33124 0.158637C7.32387 0.16827 7.31708 0.17847 7.31028 0.189236C7.30348 0.200003 7.29724 0.210769 7.29158 0.222669C7.28591 0.233435 7.28138 0.244768 7.27684 0.256101C7.27231 0.268567 7.26778 0.2816 7.26438 0.294633C7.26268 0.300299 7.26041 0.304832 7.25871 0.310499C7.01845 1.39223 6.77536 2.50456 6.5368 3.61745C5.80753 7.01564 5.10885 10.4665 4.46004 13.8738C4.46004 13.8743 4.46004 13.8749 4.46004 13.8749C4.45947 13.876 4.45947 13.8772 4.45947 13.8777C3.93702 16.6209 3.43554 19.3958 2.96806 22.1247C2.04102 27.5441 1.19842 33.0831 0.464608 38.5887C0.464608 38.5892 0.464608 38.5898 0.464608 38.5904C0.464608 38.5909 0.464608 38.5921 0.464042 38.5932C0.290081 39.9005 0.149552 40.9816 0.0220568 41.9959C-0.000609094 42.1767 0.106487 42.3489 0.278748 42.409C3.19188 43.4227 6.21155 44.1764 9.25331 44.649C11.8514 45.0518 14.4835 45.2547 17.1184 45.2547C18.4421 45.2547 19.7675 45.2031 21.0883 45.1011C21.2662 45.087 21.4119 44.9532 21.4396 44.777L21.9745 41.4332L23.0313 34.8216L23.4059 32.4813C23.8241 32.4037 24.2423 32.3261 24.661 32.2479C25.4691 32.0966 26.2754 31.9442 27.0795 31.7912C27.2886 31.7515 27.4263 31.5492 27.3866 31.3395C27.3464 31.1299 27.1452 30.9928 26.935 31.0324C26.132 31.1848 25.3268 31.3373 24.5194 31.488C24.0116 31.5832 23.5039 31.6778 22.9973 31.7713C22.9939 31.7719 22.9911 31.7736 22.9877 31.7742C22.9735 31.7776 22.9599 31.7821 22.9458 31.7866C22.935 31.79 22.9242 31.7934 22.914 31.798C22.9021 31.8031 22.8914 31.8093 22.88 31.8155C22.8693 31.8218 22.8585 31.8274 22.8483 31.8342C22.8381 31.8416 22.829 31.8495 22.82 31.8575C22.8103 31.8654 22.8007 31.8733 22.7922 31.8818C22.7831 31.8909 22.7758 31.9011 22.7679 31.9113C22.7599 31.9204 22.7526 31.9294 22.7458 31.9396C22.739 31.9498 22.7333 31.9612 22.7276 31.9725C22.722 31.9833 22.7157 31.9946 22.7106 32.0059C22.7067 32.0167 22.7038 32.028 22.7004 32.0394C22.6959 32.0524 22.6919 32.066 22.6891 32.0802C22.6885 32.0836 22.6874 32.087 22.6868 32.0904L22.2692 34.6998L21.2606 41.0105C17.8352 41.2768 14.3786 41.1816 10.9816 40.7244C7.682 40.2807 4.41697 39.493 1.27151 38.3841C1.99399 32.9891 2.82016 27.5645 3.72906 22.2556C4.17785 19.6326 4.6595 16.9677 5.15985 14.3288C6.22855 14.2931 7.26778 14.1072 8.25148 13.7718C11.9426 12.5127 14.8427 9.17683 16.0587 4.81535C18.5407 4.93717 21.0424 5.00007 23.4994 5.00064C23.8705 5.00064 24.257 4.99837 24.6922 4.99497V14.3101H22.7514V6.45522C22.7514 6.24216 22.5786 6.06877 22.3655 6.06877C22.1525 6.06877 21.9796 6.24216 21.9796 6.45522V14.6965C21.9796 14.9102 22.1525 15.083 22.3655 15.083H25.0781C25.2911 15.083 25.464 14.9102 25.464 14.6965V4.98534C27.2908 4.96154 29.1347 4.90431 30.9593 4.81478C32.1748 9.17626 35.0749 12.5127 38.7666 13.7718C39.7503 14.1072 40.7889 14.2931 41.8582 14.3288C42.3586 16.9677 42.8402 19.6326 43.289 22.2556C44.1973 27.564 45.0241 32.9896 45.7471 38.3869C42.613 39.4891 39.3599 40.2722 36.0727 40.7147C32.6757 41.1714 29.2203 41.2672 25.7954 41.0009L24.729 34.1252C24.6962 33.9144 24.499 33.7693 24.2882 33.8028C24.0779 33.8356 23.9334 34.0328 23.9663 34.2436L25.0798 41.4219C25.0798 41.4225 25.0803 41.4225 25.0803 41.423V41.4236L25.5892 44.607C25.5818 44.632 25.5767 44.6586 25.5745 44.6858C25.558 44.8988 25.7173 45.0847 25.9297 45.1011C27.2506 45.2031 28.5754 45.2547 29.8997 45.2547C32.5346 45.2547 35.1672 45.0518 37.7647 44.649C40.8054 44.1764 43.8239 43.4233 46.7365 42.4101C46.737 42.4101 46.7376 42.4096 46.7382 42.4096C46.7387 42.4096 46.7393 42.409 46.7399 42.409C46.7455 42.4067 46.7506 42.4033 46.7569 42.4011C46.7744 42.3937 46.792 42.3863 46.8084 42.3773C46.8181 42.371 46.8266 42.3637 46.8362 42.3574C46.847 42.3495 46.8589 42.3421 46.8691 42.3331C46.8787 42.3246 46.8866 42.3144 46.8951 42.3047C46.9031 42.2962 46.9121 42.2877 46.9195 42.2781C46.9269 42.2685 46.9325 42.2577 46.9393 42.2475ZM17.4771 41.9313C18.6976 41.9313 19.9182 41.8837 21.1353 41.7936L20.7262 44.3532C16.9342 44.624 13.1161 44.4665 9.37174 43.8851C6.47844 43.4358 3.60553 42.728 0.827263 41.7812C0.928126 40.9844 1.03806 40.1367 1.16668 39.1661C4.31554 40.2648 7.58 41.0468 10.879 41.4905C13.0617 41.784 15.2688 41.9313 17.4771 41.9313ZM31.2319 4.02827C31.2313 4.02827 31.2307 4.02827 31.2302 4.02827C29.3183 4.12687 27.3809 4.1875 25.464 4.21243V1.60189C30.0022 1.54352 34.5785 1.27833 39.0799 0.813115C39.2652 1.65062 39.4516 2.50342 39.6364 3.3602C36.8558 3.65938 34.0311 3.88491 31.2319 4.02827ZM8.00272 13.0402C7.14425 13.3332 6.23988 13.5032 5.30888 13.5502C5.90952 10.4144 6.5504 7.24683 7.21905 4.1195C9.88172 4.40793 12.5846 4.62722 15.2683 4.77398C14.0947 8.80794 11.4054 11.8797 8.00272 13.0402ZM15.7873 4.02827H15.7868C12.9875 3.88491 10.1622 3.65938 7.38167 3.3602C7.56583 2.50399 7.75226 1.65119 7.93812 0.813682C13.0901 1.34633 18.3231 1.61719 23.4994 1.61775C23.5028 1.61775 23.5062 1.61775 23.5096 1.61775C23.8768 1.61775 24.2604 1.61605 24.6922 1.61209V4.22207C24.257 4.22603 23.87 4.22773 23.4994 4.22773C20.9529 4.22773 18.3582 4.1603 15.7873 4.02827ZM31.7498 4.77398C34.4334 4.62722 37.1363 4.40793 39.799 4.1195C40.4676 7.24683 41.1085 10.4144 41.7092 13.5502C40.7776 13.5032 39.8738 13.3332 39.0153 13.0402C35.6126 11.8797 32.9233 8.80794 31.7498 4.77398ZM37.6463 43.8851C33.9144 44.4648 30.1093 44.6218 26.3304 44.3543L25.9195 41.7834C27.1361 41.8735 28.3567 41.9211 29.5773 41.9211C31.7849 41.9211 33.9926 41.7744 36.1759 41.4803C39.4618 41.0383 42.7144 40.2608 45.8519 39.1689C45.98 40.135 46.0894 40.9805 46.1908 41.78C43.4125 42.7275 40.5396 43.4358 37.6463 43.8851Z" fill="black"/>
</g>
</svg>
