<svg width="48" height="46" viewBox="0 0 48 46" fill="none" xmlns="http://www.w3.org/2000/svg">
<mask id="mask0_4_824" style="mask-type:luminance" maskUnits="userSpaceOnUse" x="0" y="0" width="48" height="46">
<path d="M0 0H48V45.389H0V0Z" fill="white"/>
</mask>
<g mask="url(#mask0_4_824)">
<path d="M8.89634 19.5291C9.03318 19.3561 9.16245 19.1768 9.28706 18.9992C8.09335 18.1799 6.7331 17.6814 5.50213 16.9274C4.25368 16.1628 2.9965 15.4163 1.70147 14.728C1.67643 14.7187 1.65605 14.7059 1.6345 14.6937C1.6281 14.6873 1.62227 14.6844 1.61587 14.6826C1.48951 14.8276 1.36199 14.9726 1.23155 15.1123C3.66206 16.7963 6.2958 18.1362 8.89634 19.5291ZM11.6122 15.7342C11.618 11.8363 11.123 7.8342 8.61742 4.98385C7.38062 6.9526 5.72573 8.59002 4.46855 10.5401C3.7232 11.6902 3.0227 12.8769 2.19642 13.9658C3.62014 14.7338 4.96816 15.6347 6.39071 16.3992C7.52969 17.0118 8.7234 17.4963 9.78784 18.2375C10.3387 17.3635 10.8633 16.4743 11.6122 15.7342ZM27.0291 1.01607C25.8773 1.22453 24.7506 1.62515 23.5708 1.57682C22.5885 1.53781 21.6376 1.36021 20.6791 1.18261C22.1314 2.95396 25.3404 2.54111 27.0291 1.01607ZM28.663 1.13719C28.5262 1.09701 28.3859 1.0644 28.2473 1.02655C26.2133 3.7156 21.2038 4.2158 19.5256 1.03645C19.3032 1.10341 19.0854 1.17969 18.8705 1.25714C19.5833 3.30275 21.6923 4.52907 23.8649 4.45221C26.1324 4.37302 27.7168 3.08497 28.663 1.13719ZM38.8177 4.47143C38.7915 4.50054 36.8059 3.56129 36.6067 3.48501C35.2512 2.95396 33.8536 2.51898 32.4509 2.13757C31.8942 1.98967 31.2904 1.93202 30.7529 1.74045C30.63 1.69503 29.6355 1.26529 29.5499 1.4132C28.2723 3.7156 26.2989 5.59584 23.4742 5.34953C22.953 5.30469 22.4255 5.21444 21.9258 5.06945C20.1405 4.55528 18.5794 3.34817 18.0425 1.52209C17.7828 1.5675 17.5336 1.70143 17.2675 1.75617C17.2209 1.76549 17.176 1.76549 17.1341 1.76083C14.4724 2.46308 11.83 3.21424 9.36917 4.47143C11.4718 6.9526 12.191 10.4219 12.4274 13.5891C12.7733 18.2701 12.1788 23.0089 12.1788 27.701C12.1788 30.1828 12.4181 32.6564 12.0215 35.1166C11.6308 37.5029 11.869 39.9706 11.3723 42.3383C11.1871 43.203 13.6246 43.8825 14.1364 44.0036C15.2026 44.2564 16.2921 44.3839 17.3938 44.4054C21.7657 44.4899 26.1592 44.5225 30.5258 44.4101C31.7026 44.381 32.9086 44.3262 34.0446 44.0071C34.5879 43.8528 36.966 43.2437 36.8152 42.3383C36.3994 39.7762 36.4449 37.1698 36.085 34.5949C35.763 32.3158 36.0151 29.9976 36.0087 27.701C35.9872 23.045 35.3507 18.2218 35.763 13.5891C36.0448 10.408 36.7028 6.97007 38.8177 4.47143ZM45.6795 13.8179C44.8288 12.6405 44.1219 11.3629 43.249 10.1774C42.0006 8.47473 40.5675 6.91824 39.4373 5.13466C36.9055 8.13816 36.5211 12.3488 36.5875 16.3713C36.8397 17.0566 37.4004 17.7799 37.9792 18.4245C37.9821 18.4245 37.9856 18.4227 37.9885 18.4227C40.7603 17.3513 43.4592 15.8041 45.6795 13.8179ZM46.7352 15.1094C46.5594 14.9243 46.3928 14.7338 46.231 14.5394C44.013 16.5023 41.3828 18.0273 38.6361 19.1319C38.7758 19.2781 38.9097 19.4167 39.0326 19.5448C41.646 18.1455 44.2913 16.8028 46.7352 15.1094ZM47.7531 14.8573C47.9802 15.0768 47.8928 15.407 47.6593 15.5735C44.9982 17.4916 42.0582 18.9497 39.1729 20.5027C39 20.5976 38.7665 20.5854 38.6221 20.4311C38.0724 19.833 37.2851 19.0475 36.6394 18.1968C36.6778 19.2437 36.7343 20.2599 36.7733 21.2253C36.9055 24.9567 36.8478 28.6642 36.8245 32.392C36.8088 33.9805 37.2572 35.5044 37.3335 37.0825C37.4202 38.9534 37.4266 40.8167 37.8156 42.658C37.8453 42.8088 37.8203 42.991 37.6945 43.1005C35.9388 44.6267 33.7244 45.1845 31.4365 45.2876C27.7383 45.4542 24.0408 45.2451 20.3461 45.3266C16.9519 45.4029 13.2118 45.485 10.493 43.1005C10.3672 42.991 10.3422 42.8088 10.3719 42.658C10.8028 40.6281 10.6456 38.5982 10.896 36.5572C11.0998 34.9606 11.3973 33.4233 11.3397 31.8062C11.2215 28.2775 11.282 24.7505 11.4142 21.2253C11.4654 19.9419 11.5481 18.5613 11.5901 17.1457C10.7842 18.2003 10.2083 19.4167 9.33831 20.4311C9.19972 20.5883 8.95981 20.5947 8.78745 20.5027C5.90216 18.9497 2.96214 17.4916 0.300457 15.5735C0.0669552 15.407 -0.0198072 15.0768 0.207289 14.8573C1.89304 13.2496 2.82821 11.1387 4.22282 9.31265C5.53765 7.59138 7.00213 5.98715 8.09335 4.10341C8.19584 3.92465 8.36528 3.867 8.52425 3.89146C8.53532 3.88214 8.54754 3.87282 8.56036 3.86351C11.4969 2.29479 14.7088 1.45512 17.9121 0.618941C17.915 0.621852 17.9185 0.623599 17.9214 0.626511C18.4833 0.439593 19.0277 0.213662 19.6007 0.0686692C19.7405 0.0331491 19.8587 0.0593525 19.9524 0.119911C19.9583 0.123405 19.9682 0.129811 19.9775 0.132722C21.3313 0.369717 22.7446 0.796542 24.131 0.645144C25.362 0.514127 26.5324 0.104772 27.768 0.00170494C27.8723 -0.00761183 27.9567 0.017427 28.0237 0.056441C28.0714 0.0529473 28.1262 0.056441 28.1774 0.0686692C32.045 0.984624 36.0961 1.98035 39.6271 3.86351C39.7005 3.90252 39.7453 3.9491 39.7843 4.00093C39.8158 4.03004 39.8449 4.0644 39.867 4.10341C41.0468 6.14262 42.7337 7.77073 44.0345 9.71619C45.2067 11.4782 46.2042 13.3806 47.7531 14.8573Z" fill="#333333"/>
</g>
</svg>
