<svg width="38" height="68" viewBox="0 0 38 68" fill="none" xmlns="http://www.w3.org/2000/svg">
<mask id="mask0_40_1698" style="mask-type:luminance" maskUnits="userSpaceOnUse" x="0" y="0" width="38" height="68">
<path d="M0 0H38V67.6483H0V0Z" fill="white"/>
</mask>
<g mask="url(#mask0_40_1698)">
<path d="M37.9486 33.135L37.496 31.5862C37.6558 31.41 37.7317 31.1653 37.6803 30.9182L37.4185 29.6557C37.4168 29.6516 37.4168 29.6475 37.4152 29.6426L32.7305 7.05486C32.4678 5.79069 31.5315 4.79812 30.2861 4.4621L24.294 2.84315V1.04151C24.294 0.466518 23.8275 0 23.2525 0H14.8388C14.2639 0 13.7973 0.466518 13.7973 1.04151V3.14736C13.7973 3.8659 14.3332 4.48656 15.0427 4.59096L18.5579 5.10804V26.4553H11.4476L10.787 18.5106L16.9912 20.057C17.3076 20.1361 17.6135 19.8971 17.6135 19.5709V13.5421C17.6135 13.3113 17.4569 13.1114 17.2342 13.056L10.1883 11.3L10.1451 10.7748C10.1231 10.5073 9.88984 10.3082 9.6207 10.3303C9.35237 10.3531 9.15418 10.588 9.1762 10.8555L9.76913 17.9772L6.00437 32.852L5.8543 32.7908C5.82412 32.7688 5.79068 32.7476 5.75316 32.7321L1.3139 30.9199L1.47621 30.1377L3.7933 29.6043C4.34627 29.4763 4.7769 29.0358 4.89353 28.4821L6.80446 19.3458C6.92109 18.7912 6.7017 18.2138 6.24578 17.8761L4.31691 16.4423L6.22376 7.25223C6.41135 6.34937 7.08095 5.63981 7.96912 5.39921L12.1825 4.26146C12.4418 4.19214 12.5952 3.92544 12.5258 3.66608C12.4557 3.40591 12.189 3.25339 11.9296 3.32272L7.71629 4.46046C6.47088 4.79649 5.53377 5.79069 5.27278 7.05486L0.584767 29.6426C0.583136 29.6475 0.583136 29.6516 0.581504 29.6557L0.3197 30.9182C0.268318 31.1637 0.344168 31.41 0.504023 31.5862L0.0513705 33.135C-0.0595499 33.5126 0.132114 33.909 0.495867 34.0574L4.46698 35.6788C4.55996 35.7163 4.65701 35.7359 4.7557 35.7359C4.86988 35.7359 4.98406 35.7106 5.08764 35.6609C5.28257 35.5671 5.42774 35.3942 5.48891 35.187L5.88121 33.8503C5.96685 33.8829 6.05738 33.9008 6.14709 33.9008C6.26536 33.9008 6.38525 33.8731 6.49209 33.8185C6.68865 33.719 6.83301 33.5379 6.88765 33.3242L10.0163 20.9623L10.4926 26.6812C10.513 26.9259 10.5081 27.1747 10.4803 27.4177L10.159 30.1222C9.668 34.2711 9.30262 38.4918 9.07751 42.6644L7.80845 66.1134C7.78725 66.5122 7.93161 66.907 8.20565 67.1957C8.47887 67.4844 8.86464 67.6508 9.26347 67.6508H15.285C16.0467 67.6508 16.6862 67.0554 16.7384 66.2953L17.4283 56.5482C17.5409 54.952 17.7008 53.3364 17.9006 51.7492L19.0008 43.024L20.1002 51.7492C20.3 53.3364 20.4591 54.9504 20.5724 56.5482L21.2624 66.2953C21.3171 67.0554 21.9557 67.6508 22.7166 67.6508H28.7381C29.1361 67.6508 29.5227 67.486 29.796 67.1957C30.0692 66.907 30.2152 66.5122 30.1932 66.1134L28.9241 42.6644C28.6974 38.4918 28.3336 34.2711 27.8418 30.1222L27.5213 27.4218C27.4919 27.1763 27.4878 26.9243 27.509 26.6772L27.9935 21.0047L31.1107 33.3242C31.1653 33.5379 31.3097 33.719 31.5071 33.8185C31.6147 33.8731 31.733 33.9008 31.8512 33.9008C31.9418 33.9008 32.0315 33.8829 32.1179 33.8503L32.5094 35.187C32.5706 35.3942 32.7166 35.5663 32.9107 35.6609C33.0151 35.7106 33.1285 35.7359 33.2426 35.7359C33.3413 35.7359 33.4384 35.7163 33.5314 35.6788L37.5025 34.0574C37.8679 33.909 38.0595 33.5118 37.9486 33.135ZM4.09752 17.4928L5.6659 18.6566C5.81678 18.7692 5.89018 18.9608 5.85185 19.1468L5.39186 21.3416C5.13821 20.654 4.64641 20.0595 3.97599 19.6818C3.87404 19.6247 3.76557 19.6011 3.65873 19.6044L4.09752 17.4928ZM4.62112 34.6895L1.03742 33.2272L1.38894 32.0266L4.97428 33.4824L4.62112 34.6895ZM21.3986 0.972184H23.2517C23.29 0.972184 23.321 1.00318 23.321 1.04151V3.14736C23.321 3.38633 23.1416 3.59349 22.9059 3.62856L19.7463 4.09345L20.539 1.60182C20.6589 1.22502 21.0047 0.972184 21.3986 0.972184ZM15.1847 3.62856C14.9489 3.59349 14.7695 3.38633 14.7695 3.14736V1.04151C14.7695 1.00318 14.7997 0.972184 14.8388 0.972184H16.691C17.0858 0.972184 17.4316 1.22502 17.5507 1.60182L18.3434 4.09345L15.1847 3.62856ZM18.4788 1.30739C18.4413 1.18913 18.3907 1.07821 18.3345 0.972184H19.7577C19.7006 1.07821 19.6508 1.18913 19.6133 1.30739L19.0465 3.09109L18.4788 1.30739ZM11.4435 27.5286C11.4476 27.4952 11.4492 27.4609 11.4533 27.4275H18.5579V29.1916H11.2462L11.4435 27.5286ZM27.956 42.7141L29.225 66.1632C29.2324 66.2985 29.1851 66.4258 29.0929 66.5245C28.9999 66.6215 28.8752 66.6762 28.7406 66.6762H22.7191C22.4654 66.6762 22.2526 66.4772 22.2346 66.2243L21.5446 56.4772C21.4304 54.8631 21.2698 53.2312 21.0667 51.6253L19.5048 39.2234C19.473 38.9706 19.252 38.7919 19.0033 38.8009C18.7545 38.7919 18.5343 38.9722 18.5033 39.2234L16.9414 51.6253C16.7384 53.2312 16.5785 54.8631 16.4635 56.4772L15.7735 66.2243C15.7556 66.4772 15.5427 66.6762 15.2891 66.6762H9.26754C9.13297 66.6762 9.00819 66.6215 8.91521 66.5245C8.82223 66.4258 8.77493 66.2985 8.78308 66.1632L10.0456 42.7141C10.2699 38.5619 10.6328 34.3633 11.1214 30.2348L11.1295 30.1654H18.5563V33.5126C18.5563 33.7809 18.7741 33.9995 19.0424 33.9995C19.3107 33.9995 19.5285 33.7809 19.5285 33.5126V30.1654H24.4098C24.6773 30.1654 24.8951 29.9469 24.8951 29.6793C24.8951 29.411 24.6773 29.1933 24.4098 29.1933H19.5285V27.4291H26.5483C26.5507 27.465 26.5532 27.5001 26.5572 27.536L26.8786 30.2364C27.3688 34.3633 27.7309 38.5619 27.956 42.7141ZM32.2484 32.7321C32.2109 32.7476 32.1791 32.7688 32.1465 32.7908L31.9972 32.852L28.2488 18.04L28.8629 10.8571C28.8849 10.5888 28.6876 10.3539 28.4201 10.3303C28.1534 10.3082 27.9168 10.5056 27.8932 10.774L27.8475 11.3114L20.8514 13.0543C20.6279 13.1098 20.4729 13.3104 20.4729 13.5404V19.5693C20.4729 19.8955 20.778 20.1345 21.0944 20.0554L27.2309 18.5261L26.5532 26.4537H19.5285V5.10886L23.0469 4.59096C23.5249 4.52 23.9221 4.21742 24.1317 3.80718L30.0317 5.40084C30.9223 5.64144 31.5911 6.351 31.7778 7.25386L34.3396 19.6052C34.2344 19.6027 34.1243 19.6264 34.0232 19.6835C33.3519 20.0611 32.8618 20.6556 32.6065 21.3432L32.1473 19.1468C32.1082 18.9625 32.1816 18.7692 32.3333 18.6566L32.7818 18.3231C32.9972 18.164 33.0428 17.8598 32.8813 17.6429C32.7215 17.4275 32.4181 17.3819 32.2011 17.5425L31.7526 17.8761C31.2975 18.2138 31.0789 18.7912 31.1947 19.3458L33.1048 28.4821C33.2214 29.0358 33.6521 29.4779 34.205 29.6043L36.5221 30.1377L36.6853 30.9199L32.2484 32.7321ZM33.3797 34.6895L33.0273 33.4824L36.6127 32.0266L36.9642 33.2272L33.3797 34.6895Z" fill="#333333"/>
</g>
</svg>
