<svg width="47" height="34" viewBox="0 0 47 34" fill="none" xmlns="http://www.w3.org/2000/svg">
<mask id="mask0_40_1692" style="mask-type:luminance" maskUnits="userSpaceOnUse" x="0" y="0" width="47" height="34">
<path d="M0 0H47V33.7269H0V0Z" fill="white"/>
</mask>
<g mask="url(#mask0_40_1692)">
<path d="M46.034 16.159C45.6322 12.4838 45.0945 8.77392 44.4354 5.13321C44.4337 5.12471 44.4303 5.11678 44.4281 5.10828C44.4394 5.07258 44.4468 5.03518 44.4468 4.99608V0.391508C44.4468 0.286678 44.4037 0.186382 44.3272 0.113851C44.2513 0.0418867 44.1493 0.00392139 44.0439 0.00958779C37.2623 0.375642 30.3503 0.561502 23.4978 0.561502C23.4888 0.561502 23.4791 0.561502 23.4706 0.561502C16.6267 0.560936 9.72375 0.375075 2.95232 0.00958779C2.84749 0.004488 2.74493 0.0418867 2.66899 0.113851C2.5925 0.186382 2.54943 0.286678 2.54943 0.391508V4.99608C2.54943 5.03518 2.5568 5.07258 2.56813 5.10828C2.56586 5.11678 2.56246 5.12471 2.56076 5.13321C1.90175 8.77336 1.36401 12.4832 0.962252 16.159C0.418271 21.1348 0.106615 26.1972 0.0369172 31.2052C0.034084 31.3769 0.147413 31.5294 0.312874 31.5775C3.69973 32.5567 7.19707 33.21 10.7075 33.5194C12.3009 33.6599 13.9028 33.7302 15.5058 33.7302C17.6585 33.7302 19.8129 33.6033 21.9475 33.3506C22.1515 33.3268 22.2994 33.1466 22.2841 32.942C22.1934 31.7656 22.373 30.7315 22.8173 29.8685C23.2899 28.9517 23.9375 28.427 24.6878 27.8195C25.51 27.1537 26.4416 26.3995 27.2462 24.9914C27.6355 24.3103 27.823 23.7821 28.0395 23.1719C29.5371 18.9515 30.05 9.23914 30.1763 6.20191C34.7339 6.07101 39.2625 5.80639 43.7079 5.41087C44.3521 8.98868 44.8791 12.6322 45.2735 16.2423C45.8045 21.0974 46.1127 26.0346 46.1903 30.9236C42.9378 31.845 39.5855 32.4621 36.2213 32.7584C32.6588 33.0723 29.0521 33.0298 25.4953 32.6326C25.5343 31.4625 25.3207 30.4165 24.8583 29.5189C24.762 29.3313 24.5314 29.2577 24.3438 29.354C24.1557 29.4509 24.082 29.6809 24.1784 29.8685C24.6232 30.7315 24.8022 31.7656 24.7121 32.942C24.6968 33.1466 24.8447 33.3268 25.0487 33.3506C27.1839 33.6033 29.3371 33.7302 31.4904 33.7302C33.0929 33.7302 34.6953 33.6599 36.2887 33.5194C39.7986 33.21 43.2959 32.5567 46.6833 31.5775C46.8488 31.5294 46.9616 31.3769 46.9593 31.2052C46.8896 26.1966 46.5779 21.1348 46.034 16.159ZM3.31441 0.794394C9.96968 1.14628 16.7485 1.32478 23.4701 1.32534C23.4797 1.32534 23.4882 1.32534 23.4978 1.32534C30.2279 1.32534 37.0163 1.14685 43.6818 0.794394V4.64646C37.1285 5.23124 30.3905 5.5293 23.6485 5.53383C16.8068 5.53667 9.96571 5.23974 3.31441 4.64646V0.794394ZM22.1373 29.5189C21.6755 30.4165 21.4619 31.4625 21.501 32.6326C17.9441 33.0298 14.3374 33.0723 10.7749 32.7584C7.41013 32.4621 4.05785 31.845 0.805858 30.9236C0.883488 26.0351 1.19118 21.0974 1.72213 16.2423C2.11708 12.6311 2.64406 8.98812 3.28834 5.41087C7.73426 5.80639 12.2623 6.07101 16.8199 6.20191C16.9462 9.23857 17.4585 18.9498 18.9561 23.1719C19.1732 23.7821 19.3602 24.3097 19.7494 24.9914C20.4119 26.1496 21.1621 26.8641 21.8092 27.4098C21.9781 27.5521 22.1458 27.688 22.3079 27.8195C22.5311 28.0003 22.7453 28.1742 22.9499 28.3544C22.6507 28.6825 22.3753 29.0571 22.1373 29.5189ZM27.3187 22.9163C27.1142 23.4926 26.9379 23.9901 26.5821 24.6123C25.8488 25.8963 25.0142 26.5723 24.2067 27.2257C23.9647 27.4217 23.7267 27.6144 23.4978 27.8184C23.2695 27.615 23.0343 27.424 22.7895 27.2257C22.6303 27.097 22.4654 26.9633 22.3028 26.8262C21.6772 26.2981 21.0148 25.6645 20.4141 24.6123C20.0583 23.9901 19.8815 23.4926 19.6769 22.9163C19.4123 22.17 18.0716 17.8669 17.586 6.22231C19.5534 6.27217 21.5259 6.29824 23.499 6.29824C23.5488 6.29824 23.5992 6.29824 23.6491 6.29824C25.5712 6.29654 27.4927 6.27104 29.4102 6.22231C28.9365 17.5745 27.691 21.868 27.3187 22.9163Z" fill="#333333"/>
<path d="M46.034 16.159C45.6322 12.4838 45.0945 8.77392 44.4354 5.13321C44.4337 5.12471 44.4303 5.11678 44.4281 5.10828C44.4394 5.07258 44.4468 5.03518 44.4468 4.99608V0.391508C44.4468 0.286678 44.4037 0.186382 44.3272 0.113851C44.2513 0.0418867 44.1493 0.00392139 44.0439 0.00958779C37.2623 0.375642 30.3503 0.561502 23.4978 0.561502C23.4888 0.561502 23.4791 0.561502 23.4706 0.561502C16.6267 0.560936 9.72375 0.375075 2.95232 0.00958779C2.84749 0.004488 2.74493 0.0418867 2.66899 0.113851C2.5925 0.186382 2.54943 0.286678 2.54943 0.391508V4.99608C2.54943 5.03518 2.5568 5.07258 2.56813 5.10828C2.56586 5.11678 2.56246 5.12471 2.56076 5.13321C1.90175 8.77336 1.36401 12.4832 0.962252 16.159C0.418271 21.1348 0.106615 26.1972 0.0369172 31.2052C0.034084 31.3769 0.147413 31.5294 0.312874 31.5775C3.69973 32.5567 7.19707 33.21 10.7075 33.5194C12.3009 33.6599 13.9028 33.7302 15.5058 33.7302C17.6585 33.7302 19.8129 33.6033 21.9475 33.3506C22.1515 33.3268 22.2994 33.1466 22.2841 32.942C22.1934 31.7656 22.373 30.7315 22.8173 29.8685C23.2899 28.9517 23.9375 28.427 24.6878 27.8195C25.51 27.1537 26.4416 26.3995 27.2462 24.9914C27.6355 24.3103 27.823 23.7821 28.0395 23.1719C29.5371 18.9515 30.05 9.23914 30.1763 6.20191C34.7339 6.07101 39.2625 5.80639 43.7079 5.41087C44.3521 8.98868 44.8791 12.6322 45.2735 16.2423C45.8045 21.0974 46.1127 26.0346 46.1903 30.9236C42.9378 31.845 39.5855 32.4621 36.2213 32.7584C32.6588 33.0723 29.0521 33.0298 25.4953 32.6326C25.5343 31.4625 25.3207 30.4165 24.8583 29.5189C24.762 29.3313 24.5314 29.2577 24.3438 29.354C24.1557 29.4509 24.082 29.6809 24.1784 29.8685C24.6232 30.7315 24.8022 31.7656 24.7121 32.942C24.6968 33.1466 24.8447 33.3268 25.0487 33.3506C27.1839 33.6033 29.3371 33.7302 31.4904 33.7302C33.0929 33.7302 34.6953 33.6599 36.2887 33.5194C39.7986 33.21 43.2959 32.5567 46.6833 31.5775C46.8488 31.5294 46.9616 31.3769 46.9593 31.2052C46.8896 26.1966 46.5779 21.1348 46.034 16.159ZM3.31441 0.794394C9.96968 1.14628 16.7485 1.32478 23.4701 1.32534C23.4797 1.32534 23.4882 1.32534 23.4978 1.32534C30.2279 1.32534 37.0163 1.14685 43.6818 0.794394V4.64646C37.1285 5.23124 30.3905 5.5293 23.6485 5.53383C16.8068 5.53667 9.96571 5.23974 3.31441 4.64646V0.794394ZM22.1373 29.5189C21.6755 30.4165 21.4619 31.4625 21.501 32.6326C17.9441 33.0298 14.3374 33.0723 10.7749 32.7584C7.41013 32.4621 4.05785 31.845 0.805858 30.9236C0.883488 26.0351 1.19118 21.0974 1.72213 16.2423C2.11708 12.6311 2.64406 8.98812 3.28834 5.41087C7.73426 5.80639 12.2623 6.07101 16.8199 6.20191C16.9462 9.23857 17.4585 18.9498 18.9561 23.1719C19.1732 23.7821 19.3602 24.3097 19.7494 24.9914C20.4119 26.1496 21.1621 26.8641 21.8092 27.4098C21.9781 27.5521 22.1458 27.688 22.3079 27.8195C22.5311 28.0003 22.7453 28.1742 22.9499 28.3544C22.6507 28.6825 22.3753 29.0571 22.1373 29.5189ZM27.3187 22.9163C27.1142 23.4926 26.9379 23.9901 26.5821 24.6123C25.8488 25.8963 25.0142 26.5723 24.2067 27.2257C23.9647 27.4217 23.7267 27.6144 23.4978 27.8184C23.2695 27.615 23.0343 27.424 22.7895 27.2257C22.6303 27.097 22.4654 26.9633 22.3028 26.8262C21.6772 26.2981 21.0148 25.6645 20.4141 24.6123C20.0583 23.9901 19.8815 23.4926 19.6769 22.9163C19.4123 22.17 18.0716 17.8669 17.586 6.22231C19.5534 6.27217 21.5259 6.29824 23.499 6.29824C23.5488 6.29824 23.5992 6.29824 23.6491 6.29824C25.5712 6.29654 27.4927 6.27104 29.4102 6.22231C28.9365 17.5745 27.691 21.868 27.3187 22.9163Z" fill="#333333"/>
</g>
</svg>
