<svg width="47" height="47" viewBox="0 0 47 47" fill="none" xmlns="http://www.w3.org/2000/svg">
<mask id="mask0_40_1740" style="mask-type:luminance" maskUnits="userSpaceOnUse" x="0" y="0" width="47" height="47">
<path d="M0 0H47V46.8912H0V0Z" fill="white"/>
</mask>
<g mask="url(#mask0_40_1740)">
<path d="M46.4969 12.0062C46.3054 11.142 46.0623 10.3476 45.7852 9.60359C45.7722 9.55372 45.7563 9.50782 45.7314 9.46419C42.1502 0.117908 32.3642 0.00854492 32.222 0.00854492C32.2214 0.00854492 32.2214 0.00854492 32.2214 0.00854492C32.065 0.00911153 31.9165 0.0714427 31.806 0.181372C31.6967 0.291869 31.6355 0.441464 31.636 0.596158C31.6525 5.45403 28.2203 9.12817 23.6559 9.14347C21.3848 9.13553 19.2712 8.24533 17.705 6.63662C16.1445 5.03244 15.2888 2.88768 15.2968 0.596158C15.2973 0.441464 15.2361 0.291869 15.1268 0.181372C15.0168 0.0714427 14.8678 0.00911153 14.712 0.00854492C14.712 0.00854492 14.712 0.00854492 14.7114 0.00854492C14.5675 0.00854492 4.76223 0.118475 1.19008 9.49252C1.17988 9.51406 1.17308 9.53559 1.16515 9.55769C0.881257 10.3119 0.633066 11.1188 0.437572 11.9971C0.137816 13.3497 -0.0078125 14.7924 -0.0078125 16.4085V43.4721C-0.0078125 43.7962 0.254545 44.0586 0.578668 44.0586H8.68173V46.3048C8.68173 46.6289 8.94408 46.8913 9.26821 46.8913H37.6731C37.9978 46.8913 38.2602 46.6289 38.2602 46.3048V44.0586H46.3847C46.5406 44.0586 46.6896 43.9963 46.7995 43.8869C46.91 43.7764 46.9712 43.6274 46.9712 43.4715L46.9429 16.3898C46.9412 14.785 46.795 13.3514 46.4969 12.0062ZM1.5839 12.251C1.73519 11.5687 1.91992 10.9329 2.12788 10.3323H44.8049C45.0135 10.9358 45.1993 11.5738 45.3512 12.2589C45.6305 13.5208 45.7677 14.8723 45.7694 16.3909L45.7711 18.2999H38.2602V15.9234C38.2602 15.5998 37.9978 15.3375 37.6731 15.3375C37.349 15.3375 37.0866 15.5998 37.0866 15.9234V18.2999H9.85525V15.9234C9.85525 15.5998 9.59289 15.3375 9.26821 15.3375C8.94408 15.3375 8.68173 15.5998 8.68173 15.9234V18.2999H1.16571V16.4085C1.16571 14.8791 1.30228 13.5191 1.5839 12.251ZM38.2602 19.4718H45.7728L45.7813 27.4394H38.2602V19.4718ZM37.0866 27.4394H9.85525V19.4718H37.0866V27.4394ZM8.68173 19.4718V27.4394H1.16571V19.4718H8.68173ZM1.16571 28.6112H8.68173V36.5794H1.16571V28.6112ZM9.85525 28.6112H37.0866V36.5794H9.85525V28.6112ZM38.2602 28.6112H45.7824L45.7903 36.5794H38.2602V28.6112ZM30.2687 7.44069C31.7868 5.78381 32.6719 3.58919 32.7948 1.20587C34.7883 1.35207 41.3518 2.35673 44.3471 9.1599H28.1098C28.9065 8.70942 29.6341 8.13313 30.2687 7.44069ZM14.1397 1.2053C14.2734 3.57332 15.2282 5.77248 16.8641 7.45316C17.5328 8.1405 18.2887 8.71225 19.108 9.1599H2.5863C5.58273 2.35503 12.1485 1.3515 14.1397 1.2053ZM1.16571 42.8862V37.7518H8.68173V42.8862H1.16571ZM37.0866 45.7189H9.85525V37.7518H37.0866V45.7189ZM38.2602 42.8862V37.7518H45.792L45.7971 42.8862H38.2602Z" fill="#333333"/>
</g>
</svg>
